Monoid-Italic.sfdir
StartChar: exclam
Encoding: 33 33 56
GlifName: exclam
Width: 1024
VWidth: 0
Flags: W
HStem: -16 288<386.293 533.491> 1388 20G<632.339 784>
VStem: 314 295<58.0878 200.407>
LayerCount: 3
Back
Fore
SplineSet
489 272 m 0
 563 272 609 227 609 160 c 0
 609 59 527 -16 433 -16 c 0
 359 -16 314 29 314 96 c 0
 314 199 397 272 489 272 c 0
600 512 m 1
 472 512 l 1
 636 1408 l 1
 784 1408 l 1
 600 512 l 1
EndSplineSet
Validated: 1
Layer: 2
Substitution2: "Single Substitution lookup 90 subtable" exclam.2r
Substitution2: "Single Substitution lookup 89 subtable" exclam.2l
Substitution2: "Single Substitution lookup 42 subtable" larsenwork2
Substitution2: "Single Substitution lookup 39 subtable" larsenwork1
Substitution2: "Single Substitution lookup 20 subtable" larsenwork5
Position2: "Single Positioning lookup 24 subtable" dx=-128 dy=0 dh=0 dv=0
Position2: "Single Positioning lookup 18 subtable" dx=64 dy=0 dh=0 dv=0
Position2: "Single Positioning lookup 17 subtable" dx=64 dy=0 dh=0 dv=0
Position2: "Single Positioning lookup 15 subtable" dx=0 dy=0 dh=0 dv=0
Position2: "Single Positioning lookup 13 subtable" dx=0 dy=0 dh=0 dv=0
Position2: "Single Positioning lookup 10 subtable" dx=128 dy=0 dh=0 dv=0
Position2: "Single Positioning lookup 8 subtable" dx=64 dy=0 dh=0 dv=0
Position2: "Single Positioning lookup 4 subtable" dx=64 dy=0 dh=0 dv=0
Position2: "Single Positioning lookup 3 subtable" dx=64 dy=0 dh=0 dv=0
Position2: "Single Positioning lookup 1 subtable" dx=64 dy=0 dh=0 dv=0
EndChar
StartChar: quotedbl
Encoding: 34 34 57
GlifName: quotedbl
Width: 1024
VWidth: 0
Flags: W
HStem: 1388 20G<514.094 646 898.094 1030>
LayerCount: 3
Back
Fore
SplineSet
902 1408 m 1
 1030 1408 l 1
 905 768 l 1
 777 768 l 1
 902 1408 l 1
518 1408 m 1
 646 1408 l 1
 521 768 l 1
 393 768 l 1
 518 1408 l 1
EndSplineSet
Validated: 1
Layer: 2
EndChar
StartChar: dollar
Encoding: 36 36 59
GlifName: dollar
Width: 1024
VWidth: 0
Flags: W
HStem: 1304 120<593.46 753>
VStem: 281 130<876.982 1129.23> 867 130<302.502 564.192>
LayerCount: 3
Back
Fore
SplineSet
904 1419 m 1
 980 1414 1054 1407 1122 1399 c 1
 1098 1278 l 1
 1036 1285 956 1294 880 1299 c 1
 775 758 l 1
 902 722 997 624 997 469 c 0
 997 178 754 -7 497 -16 c 1
 475 -128 l 1
 347 -128 l 1
 369 -13 l 1
 280 -8 193 3 113 16 c 1
 137 139 l 1
 215 126 305 114 393 108 c 1
 505 682 l 1
 373 717 281 813 281 963 c 0
 281 1140 406 1424 777 1424 c 1
 799 1536 l 1
 927 1536 l 1
 904 1419 l 1
753 1304 m 1
 481 1304 411 1099 411 985 c 0
 411 831 550 790 652 782 c 1
 753 1304 l 1
520 104 m 1
 702 113 867 238 867 449 c 0
 867 596 751 652 629 662 c 1
 520 104 l 1
EndSplineSet
Validated: 1
Layer: 2
Substitution2: "'ss01' Style Set 1 lookup 0 subtable" dollar.empty
EndChar
StartChar: percent
Encoding: 37 37 60
GlifName: percent
Width: 1024
VWidth: 0
Flags: W
HStem: -16 120<558.051 750.476> 408 120<604.065 797.723> 880 120<348.051 540.476> 1304 120<394.065 587.723>
VStem: 190 130<1028.87 1226.59> 400 130<132.869 330.593> 616 130<1077.48 1275.13> 826 130<181.477 379.131>
LayerCount: 3
Back
Fore
SplineSet
707 408 m 0
 591 408 530 310 530 216 c 0
 530 143 576 104 648 104 c 0
 750 104 826 185 826 296 c 0
 826 369 779 408 707 408 c 0
731 528 m 0
 871 528 956 437 956 313 c 0
 956 154 821 -16 625 -16 c 0
 485 -16 400 75 400 199 c 0
 400 358 536 528 731 528 c 0
73 212 m 1
 2 300 l 1
 1072 1196 l 1
 1143 1108 l 1
 73 212 l 1
497 1304 m 0
 381 1304 320 1206 320 1112 c 0
 320 1039 366 1000 438 1000 c 0
 540 1000 616 1081 616 1192 c 0
 616 1265 569 1304 497 1304 c 0
521 1424 m 0
 661 1424 746 1333 746 1209 c 0
 746 1050 611 880 415 880 c 0
 275 880 190 971 190 1095 c 0
 190 1254 326 1424 521 1424 c 0
EndSplineSet
Validated: 1
Layer: 2
EndChar
StartChar: ampersand
Encoding: 38 38 61
GlifName: ampersand
Width: 1024
VWidth: 0
Flags: W
HStem: -16 120<285.53 629.8> 0 21G<796.512 962> 716 103<579 623.859> 1308 120<567.035 803.456>
VStem: 25 130<224.099 477.117> 305 130<925.295 1173.88> 863 130<1015.73 1247.52>
LayerCount: 3
Back
Fore
SplineSet
442 681 m 1xbe
 301 636 155 521 155 340 c 0
 155 206 258 104 456 104 c 0
 556 104 645 132 710 182 c 1
 442 681 l 1xbe
524 819 m 1
 744 870 863 988 863 1145 c 0
 863 1242 800 1308 690 1308 c 0
 532 1308 435 1174 435 1045 c 0
 435 979 466 928 524 819 c 1
802 299 m 1
 821 338 831 383 840 431 c 2
 880 640 l 1
 1008 640 l 1
 968 431 l 2
 951 342 927 254 866 179 c 1
 962 0 l 1
 807 0 l 1x7e
 764 82 l 1
 676 20 559 -16 433 -16 c 0
 164 -16 25 134 25 319 c 0
 25 544 203 718 388 782 c 1
 341 871 305 938 305 1025 c 0
 305 1228 474 1428 714 1428 c 0
 887 1428 993 1319 993 1165 c 0
 993 956 823 777 579 716 c 1
 802 299 l 1
EndSplineSet
Validated: 1
Layer: 2
Substitution2: "Single Substitution lookup 85 subtable" ampersand.method
Substitution2: "Single Substitution lookup 84 subtable" larsenwork6
Substitution2: "Single Substitution lookup 83 subtable" ampamp
EndChar
StartChar: parenleft
Encoding: 40 40 63
GlifName: parenleft
Width: 1024
VWidth: 0
Flags: W
VStem: 332 130<263.717 751.345>
LayerCount: 3
Back
Fore
SplineSet
462 486 m 0
 462 235 565 63 743 -35 c 1
 668 -140 l 1
 457 -27 332 173 332 465 c 0
 332 1045 696 1428 996 1546 c 1
 1030 1441 l 1
 780 1341 462 1000 462 486 c 0
EndSplineSet
Validated: 1
Layer: 2
Substitution2: "Single Substitution lookup 16 subtable" parenleft.shrug
EndChar
StartChar: parenright
Encoding: 41 41 64
GlifName: parenright
Width: 1024
VWidth: 0
Flags: W
VStem: 683 130<658.159 1143.82>
LayerCount: 3
Back
Fore
SplineSet
683 919 m 0
 683 1172 578 1347 405 1436 c 1
 478 1546 l 1
 687 1440 813 1237 813 940 c 0
 813 424 507 3 150 -140 c 1
 120 -30 l 1
 423 92 683 469 683 919 c 0
EndSplineSet
Validated: 1
Layer: 2
Substitution2: "Single Substitution lookup 17 subtable" parenright.shrug
EndChar
StartChar: asterisk
Encoding: 42 42 65
GlifName: asterisk
Width: 1024
VWidth: 0
Flags: W
HStem: 1004 20G<413.478 459.675 883.543 929.761>
LayerCount: 3
Back
Fore
SplineSet
513 522 m 1
 122 402 l 1
 102 515 l 1
 500 637 l 1
 330 957 l 1
 449 1024 l 1
 615 713 l 1
 902 1024 l 1
 995 957 l 1
 700 637 l 1
 1050 515 l 1
 986 402 l 1
 641 522 l 1
 565 128 l 1
 437 128 l 1
 513 522 l 1
EndSplineSet
Validated: 1
Layer: 2
Substitution2: "'ss02' Style Set 2 lookup 1 subtable" asterisk.multi
EndChar
StartChar: plus
Encoding: 43 43 66
GlifName: plus
Width: 1024
VWidth: 0
Flags: W
HStem: 516 120<139 499 651 1011> 1004 20G<594.134 726>
LayerCount: 3
Back
Fore
SplineSet
651 636 m 1
 1035 636 l 1
 1011 516 l 1
 627 516 l 1
 552 128 l 1
 424 128 l 1
 499 516 l 1
 115 516 l 1
 139 636 l 1
 523 636 l 1
 598 1024 l 1
 726 1024 l 1
 651 636 l 1
EndSplineSet
Validated: 1
Layer: 2
EndChar
StartChar: comma
Encoding: 44 44 67
GlifName: comma
Width: 1024
VWidth: 0
Flags: W
HStem: -272 120<177 282.278>
VStem: 154 384
LayerCount: 3
Back
Fore
SplineSet
282 384 m 1
 538 384 l 1
 467 23 l 2
 455 -37 443 -107 377 -177 c 0
 324 -234 244 -272 154 -272 c 1
 177 -152 l 1
 224 -152 260 -135 286 -107 c 0
 321 -70 329 -27 339 23 c 2
 360 128 l 1
 232 128 l 1
 282 384 l 1
EndSplineSet
Validated: 1
Layer: 2
Position2: "Single Positioning lookup 24 subtable" dx=-128 dy=0 dh=0 dv=0
Position2: "Single Positioning lookup 18 subtable" dx=64 dy=0 dh=0 dv=0
Position2: "Single Positioning lookup 17 subtable" dx=64 dy=0 dh=0 dv=0
Position2: "Single Positioning lookup 15 subtable" dx=0 dy=0 dh=0 dv=0
Position2: "Single Positioning lookup 13 subtable" dx=0 dy=0 dh=0 dv=0
Position2: "Single Positioning lookup 10 subtable" dx=128 dy=0 dh=0 dv=0
Position2: "Single Positioning lookup 8 subtable" dx=64 dy=0 dh=0 dv=0
Position2: "Single Positioning lookup 4 subtable" dx=64 dy=0 dh=0 dv=0
Position2: "Single Positioning lookup 3 subtable" dx=64 dy=0 dh=0 dv=0
Position2: "Single Positioning lookup 1 subtable" dx=64 dy=0 dh=0 dv=0
EndChar
StartChar: hyphen
Encoding: 45 45 55
GlifName: hyphen
Width: 1024
VWidth: 0
Flags: W
HStem: 516 120<140 1012>
LayerCount: 3
Back
Fore
SplineSet
140 636 m 1
 1036 636 l 1
 1012 516 l 1
 116 516 l 1
 140 636 l 1
EndSplineSet
Validated: 1
Layer: 2
Substitution2: "Single Substitution lookup 47 subtable" hyphenmore
Substitution2: "Single Substitution lookup 46 subtable" hyphenmore
Substitution2: "Single Substitution lookup 33 subtable" larsenwork
Substitution2: "Single Substitution lookup 32 subtable" ligaarrowleft
Substitution2: "Single Substitution lookup 28 subtable" larsenwork1
Substitution2: "Single Substitution lookup 27 subtable" ligaarrowlefttwoheads
Substitution2: "Single Substitution lookup 23 subtable" larsenwork
Substitution2: "Single Substitution lookup 22 subtable" larsenwork
Substitution2: "Single Substitution lookup 21 subtable" ligaarrowleftlong
Substitution2: "Single Substitution lookup 20 subtable" larsenwork3
Substitution2: "Single Substitution lookup 18 subtable" commentstart
Substitution2: "Single Substitution lookup 17 subtable" larsenwork5
EndChar
StartChar: period
Encoding: 46 46 68
GlifName: period
Width: 1024
VWidth: 0
Flags: W
HStem: 0 256<281 487>
VStem: 231 306
LayerCount: 3
Back
Fore
SplineSet
281 256 m 1
 537 256 l 1
 487 0 l 1
 231 0 l 1
 281 256 l 1
EndSplineSet
Validated: 1
Layer: 2
Substitution2: "Single Substitution lookup 93 subtable" period.2r
Substitution2: "Single Substitution lookup 92 subtable" period.2l
Substitution2: "Single Substitution lookup 90 subtable" larsenwork
Substitution2: "Single Substitution lookup 89 subtable" larsenwork
Substitution2: "Single Substitution lookup 88 subtable" period.x3
Substitution2: "Single Substitution lookup 87 subtable" larsenwork
Substitution2: "Single Substitution lookup 86 subtable" larsenwork
Position2: "Single Positioning lookup 24 subtable" dx=-128 dy=0 dh=0 dv=0
Position2: "Single Positioning lookup 18 subtable" dx=64 dy=0 dh=0 dv=0
Position2: "Single Positioning lookup 17 subtable" dx=64 dy=0 dh=0 dv=0
Position2: "Single Positioning lookup 15 subtable" dx=0 dy=0 dh=0 dv=0
Position2: "Single Positioning lookup 13 subtable" dx=0 dy=0 dh=0 dv=0
Position2: "Single Positioning lookup 10 subtable" dx=128 dy=0 dh=0 dv=0
Position2: "Single Positioning lookup 8 subtable" dx=64 dy=0 dh=0 dv=0
Position2: "Single Positioning lookup 4 subtable" dx=64 dy=0 dh=0 dv=0
Position2: "Single Positioning lookup 3 subtable" dx=64 dy=0 dh=0 dv=0
Position2: "Single Positioning lookup 1 subtable" dx=64 dy=0 dh=0 dv=0
EndChar
StartChar: slash
Encoding: 47 47 69
GlifName: slash
Width: 1024
VWidth: 0
Flags: W
LayerCount: 3
Back
Fore
SplineSet
68 -155 m 1
 -35 -102 l 1
 1078 1563 l 1
 1181 1510 l 1
 68 -155 l 1
EndSplineSet
Validated: 1
Layer: 2
Position2: "Single Positioning lookup 25 subtable" dx=128 dy=0 dh=0 dv=0
Substitution2: "Single Substitution lookup 69 subtable" ligadoubleslash
Substitution2: "Single Substitution lookup 68 subtable" larsenwork
Substitution2: "Single Substitution lookup 67 subtable" ligatrippleslash
Substitution2: "Single Substitution lookup 66 subtable" larsenwork1
Substitution2: "Single Substitution lookup 65 subtable" larsenwork1
EndChar
StartChar: zero
Encoding: 48 48 70
GlifName: zero
Width: 1024
VWidth: 0
Flags: W
HStem: -18 124<370.171 558.037> 1302 124<587.772 776.669>
LayerCount: 3
Back
Fore
SplineSet
319 241 m 1
 334 164 375 106 457 106 c 0
 547 106 614 176 659 264 c 0
 702 348 735 515 772 704 c 0
 793 813 813 915 824 997 c 1
 319 241 l 1
689 1302 m 0
 599 1302 531 1232 486 1144 c 0
 443 1060 411 893 374 704 c 0
 353 595 333 493 322 411 c 1
 827 1167 l 1
 812 1244 771 1302 689 1302 c 0
713 1426 m 0
 898 1426 960 1281 960 1142 c 0
 960 1036 931 884 896 704 c 0
 853 482 818 303 759 199 c 0
 698 93 598 -18 433 -18 c 0
 254 -18 185 117 185 266 c 0
 185 372 215 524 250 704 c 0
 293 926 328 1105 387 1209 c 0
 448 1315 548 1426 713 1426 c 0
EndSplineSet
Validated: 1
Layer: 2
Substitution2: "'ss04' Style Set 4 lookup 3 subtable" zero.clear
Substitution2: "'ss03' Style Set 3 lookup 2 subtable" zero.dot
EndChar
StartChar: one
Encoding: 49 49 71
GlifName: one
Width: 1024
VWidth: 0
Flags: W
HStem: 0 21G<500 631.892> 1388 20G<762.639 902>
LayerCount: 3
Back
Fore
SplineSet
794 1408 m 5
 902 1408 l 5
 628 0 l 5
 500 0 l 5
 742 1246 l 5
 732 1246 l 5
 378 1022 l 5
 333 1114 l 5
 794 1408 l 5
EndSplineSet
Validated: 1
Layer: 2
Substitution2: "'ss05' Style Set 5 lookup 4 subtable" one.base
EndChar
StartChar: two
Encoding: 50 50 72
GlifName: two
Width: 1024
VWidth: 0
Flags: W
HStem: 0 120<301 810> 1304 120<389.269 795.382>
VStem: 858 130<1006.25 1248>
LayerCount: 3
Back
Fore
SplineSet
387 1393 m 5
 477 1410 586 1424 681 1424 c 4
 906 1424 988 1305 988 1168 c 4
 988 1019 920 926 856 843 c 6
 301 120 l 5
 833 120 l 5
 810 0 l 5
 116 0 l 5
 133 89 l 5
 753 899 l 6
 806 969 858 1033 858 1148 c 4
 858 1228 816 1304 657 1304 c 4
 558 1304 447 1288 363 1273 c 5
 387 1393 l 5
EndSplineSet
Validated: 1
Layer: 2
EndChar
StartChar: three
Encoding: 51 51 73
GlifName: three
Width: 1024
VWidth: 0
Flags: W
HStem: -16 120<224.734 594.174> 772 99<587 711.918> 1288 120<410 850>
VStem: 768 131<395.413 715.224>
LayerCount: 3
Back
Fore
SplineSet
768 606 m 4
 768 731 684 772 602 772 c 4
 572 772 547 768 522 761 c 5
 478 837 l 5
 850 1288 l 5
 386 1288 l 5
 410 1408 l 5
 1030 1408 l 5
 1008 1298 l 5
 633 868 l 5
 638 861 l 5
 662 868 685 871 705 871 c 4
 835 871 899 762 899 633 c 4
 899 536 863 359 828 262 c 4
 769 99 641 -16 427 -16 c 4
 311 -16 204 12 123 35 c 5
 147 160 l 5
 224 135 343 104 450 104 c 4
 603 104 669 180 708 290 c 4
 737 372 768 527 768 606 c 4
EndSplineSet
Validated: 1
Layer: 2
Substitution2: "'ss06' Style Set 6 lookup 5 subtable" three.boob
EndChar
StartChar: four
Encoding: 52 52 74
GlifName: four
Width: 1024
VWidth: 0
Flags: WO
HStem: 0 21G<628 759.906> 384 120<304 703 854 959>
LayerCount: 3
Back
Fore
SplineSet
756 0 m 5
 628 0 l 5
 703 384 l 5
 127 384 l 5
 146 484 l 5
 820 1436 l 5
 918 1380 l 5
 306 514 l 5
 304 504 l 5
 726 504 l 5
 777 768 l 5
 905 768 l 5
 854 504 l 5
 982 504 l 5
 959 384 l 5
 831 384 l 5
 756 0 l 5
EndSplineSet
Layer: 2
Substitution2: "'ss12' Style Set 12 lookup 11 subtable" four.triangle
EndChar
StartChar: five
Encoding: 53 53 75
GlifName: five
Width: 1024
VWidth: 0
Flags: W
HStem: -16 120<138.442 567.521> 792 120<506.413 708.983> 1288 120<494 1006>
VStem: 764 131<373.344 734.499>
LayerCount: 3
Back
Fore
SplineSet
143 137 m 1
 219 122 336 104 440 104 c 0
 716 104 764 441 764 600 c 0
 764 710 726 792 606 792 c 0
 512 792 431 744 376 683 c 1
 255 717 l 1
 390 1408 l 1
 1030 1408 l 1
 1006 1288 l 1
 494 1288 l 1
 403 816 l 1
 413 816 l 1
 483 872 551 912 649 912 c 0
 822 912 895 807 895 629 c 0
 895 390 802 -16 417 -16 c 0
 305 -16 198 1 119 15 c 1
 143 137 l 1
EndSplineSet
Validated: 1
Layer: 2
EndChar
StartChar: six
Encoding: 54 54 76
GlifName: six
Width: 1024
VWidth: 0
Flags: W
HStem: -16 120<350.942 610.476> 792 120<500.746 726.516> 1304 120<594.34 944>
VStem: 178 132<146.288 530.354> 768 135<379.914 749.784>
LayerCount: 3
Back
Fore
SplineSet
472 104 m 0
 659 104 711 261 747 448 c 0
 759 510 768 568 768 619 c 0
 768 722 731 792 606 792 c 0
 419 792 367 635 331 448 c 0
 319 386 310 328 310 277 c 0
 310 174 347 104 472 104 c 0
775 1424 m 0
 830 1424 894 1422 968 1418 c 1
 944 1298 l 1
 867 1302 802 1304 751 1304 c 0
 640 1304 557 1257 504 1173 c 0
 458 1100 438 998 418 896 c 2
 397 787 l 1
 407 787 l 1
 479 872 551 912 649 912 c 0
 812 912 903 809 903 653 c 0
 903 592 890 525 875 448 c 0
 859 366 841 271 792 184 c 0
 726 67 607 -16 449 -16 c 0
 269 -16 178 89 178 255 c 0
 178 302 185 353 197 415 c 2
 290 896 l 2
 314 1017 336 1122 392 1215 c 0
 462 1331 596 1424 775 1424 c 0
EndSplineSet
Validated: 1
Layer: 2
Substitution2: "'ss13' Style Set 13 lookup 12 subtable" six.straighter
EndChar
StartChar: eight
Encoding: 56 56 78
GlifName: eight
Width: 1024
VWidth: 0
Flags: W
HStem: -16 120<341.447 579.199> 648 120<482.752 672.198> 1304 120<569.137 793.507>
VStem: 147 129<170.828 460.167> 295 129<823.491 1122.96> 742 129<289.659 582.425> 851 129<951.693 1248.06>
LayerCount: 3
Back
Fore
SplineSet
851 1127 m 0xfa
 851 1229 806 1304 689 1304 c 0
 488 1304 424 1077 424 945 c 0
 424 843 468 768 585 768 c 0
 794 768 851 1008 851 1127 c 0xfa
406 716 m 1
 326 768 295 846 295 938 c 0
 295 1145 429 1424 713 1424 c 0
 898 1424 980 1304 980 1143 c 0xfa
 980 962 901 797 744 716 c 1
 742 706 l 1
 833 654 871 570 871 470 c 0xfc
 871 247 715 -16 433 -16 c 0
 241 -16 147 106 147 275 c 0
 147 462 238 630 404 706 c 1
 406 716 l 1
562 648 m 0
 357 648 276 439 276 293 c 0
 276 182 330 104 456 104 c 0
 661 104 742 313 742 459 c 0xfc
 742 570 688 648 562 648 c 0
EndSplineSet
Validated: 1
Layer: 2
EndChar
StartChar: nine
Encoding: 57 57 79
GlifName: nine
Width: 1024
VWidth: 0
Flags: W
HStem: 496 120<429.062 626.749> 1304 120<549.48 784.088>
VStem: 243 134<666.839 986.716> 836 132<932.168 1253.42>
LayerCount: 3
Back
Fore
SplineSet
815 960 m 4
 827 1022 836 1080 836 1131 c 4
 836 1234 798 1304 673 1304 c 4
 486 1304 435 1147 399 960 c 4
 387 898 377 840 377 789 c 4
 377 686 415 616 540 616 c 4
 727 616 779 773 815 960 c 4
697 1424 m 4
 879 1424 968 1320 968 1154 c 4
 968 1101 959 1042 943 961 c 4
 851 489 600 210 338 -36 c 5
 259 46 l 5
 412 191 560 342 669 544 c 5
 660 548 l 5
 609 513 554 496 496 496 c 4
 330 496 243 599 243 755 c 4
 243 816 256 883 271 960 c 4
 287 1042 305 1137 354 1224 c 4
 420 1341 539 1424 697 1424 c 4
EndSplineSet
Validated: 1
Layer: 2
Substitution2: "'ss13' Style Set 13 lookup 12 subtable" nine.round
EndChar
StartChar: colon
Encoding: 58 58 80
GlifName: colon
Width: 1024
VWidth: 0
Flags: W
HStem: 0 240<291 500> 784 240<443 652>
VStem: 244 455
LayerCount: 3
Back
Fore
SplineSet
291 240 m 5
 547 240 l 5
 500 0 l 5
 244 0 l 5
 291 240 l 5
443 1024 m 5
 699 1024 l 5
 652 784 l 5
 396 784 l 5
 443 1024 l 5
EndSplineSet
Validated: 1
Layer: 2
Substitution2: "Single Substitution lookup 92 subtable" colon.2r
Substitution2: "Single Substitution lookup 91 subtable" colon.2l
Substitution2: "Single Substitution lookup 58 subtable" larsenwork7
Position2: "Single Positioning lookup 24 subtable" dx=-128 dy=0 dh=0 dv=0
Position2: "Single Positioning lookup 18 subtable" dx=64 dy=0 dh=0 dv=0
Position2: "Single Positioning lookup 17 subtable" dx=64 dy=0 dh=0 dv=0
Position2: "Single Positioning lookup 15 subtable" dx=0 dy=0 dh=0 dv=0
Position2: "Single Positioning lookup 13 subtable" dx=0 dy=0 dh=0 dv=0
Position2: "Single Positioning lookup 10 subtable" dx=128 dy=0 dh=0 dv=0
Position2: "Single Positioning lookup 8 subtable" dx=64 dy=0 dh=0 dv=0
Position2: "Single Positioning lookup 4 subtable" dx=64 dy=0 dh=0 dv=0
Position2: "Single Positioning lookup 3 subtable" dx=64 dy=0 dh=0 dv=0
Position2: "Single Positioning lookup 1 subtable" dx=64 dy=0 dh=0 dv=0
EndChar
StartChar: semicolon
Encoding: 59 59 81
GlifName: semicolon
Width: 1024
VWidth: 0
Flags: W
HStem: -272 120<178 273.22> 768 256<407 613>
VStem: 155 508
LayerCount: 3
Back
Fore
SplineSet
407 1024 m 1
 663 1024 l 1
 613 768 l 1
 357 768 l 1
 407 1024 l 1
283 384 m 1
 539 384 l 1
 468 23 l 2
 456 -37 444 -107 378 -177 c 0
 325 -234 245 -272 155 -272 c 1
 178 -152 l 1
 225 -152 261 -135 287 -107 c 0
 322 -70 330 -27 340 23 c 2
 361 128 l 1
 233 128 l 1
 283 384 l 1
EndSplineSet
Validated: 1
Layer: 2
Position2: "Single Positioning lookup 24 subtable" dx=-128 dy=0 dh=0 dv=0
Position2: "Single Positioning lookup 18 subtable" dx=64 dy=0 dh=0 dv=0
Position2: "Single Positioning lookup 17 subtable" dx=64 dy=0 dh=0 dv=0
Position2: "Single Positioning lookup 15 subtable" dx=0 dy=0 dh=0 dv=0
Position2: "Single Positioning lookup 13 subtable" dx=0 dy=0 dh=0 dv=0
Position2: "Single Positioning lookup 10 subtable" dx=128 dy=0 dh=0 dv=0
Position2: "Single Positioning lookup 8 subtable" dx=64 dy=0 dh=0 dv=0
Position2: "Single Positioning lookup 4 subtable" dx=64 dy=0 dh=0 dv=0
Position2: "Single Positioning lookup 3 subtable" dx=64 dy=0 dh=0 dv=0
Position2: "Single Positioning lookup 1 subtable" dx=64 dy=0 dh=0 dv=0
EndChar
StartChar: less
Encoding: 60 60 82
GlifName: less
Width: 1024
VWidth: 0
Flags: W
LayerCount: 3
Back
Fore
SplineSet
831 200 m 1
 740 99 l 1
 219 528 l 1
 237 624 l 1
 926 1053 l 1
 977 952 l 1
 374 581 l 1
 372 571 l 1
 831 200 l 1
EndSplineSet
Validated: 1
Layer: 2
Substitution2: "Single Substitution lookup 69 subtable" less2
Substitution2: "Single Substitution lookup 68 subtable" less1
Substitution2: "Single Substitution lookup 63 subtable" rangeless
Substitution2: "Single Substitution lookup 41 subtable" larsenwork3
Substitution2: "Single Substitution lookup 32 subtable" larsenwork2
Substitution2: "Single Substitution lookup 27 subtable" larsenwork1
Substitution2: "Single Substitution lookup 26 subtable" larsenwork1
Substitution2: "Single Substitution lookup 20 subtable" larsenwork3
Substitution2: "Single Substitution lookup 16 subtable" larsenwork5
EndChar
StartChar: equal
Encoding: 61 61 83
GlifName: equal
Width: 1024
VWidth: 0
Flags: W
HStem: 260 120<190 807> 772 120<289 906>
LayerCount: 3
Back
Fore
SplineSet
190 380 m 5
 830 380 l 5
 807 260 l 5
 167 260 l 5
 190 380 l 5
289 892 m 5
 929 892 l 5
 906 772 l 5
 266 772 l 5
 289 892 l 5
EndSplineSet
Layer: 2
Substitution2: "Single Substitution lookup 46 subtable" larsenwork2
Substitution2: "Single Substitution lookup 45 subtable" equalmore
Substitution2: "Single Substitution lookup 44 subtable" equalmore
Substitution2: "Single Substitution lookup 43 subtable" greaterequalliga
Substitution2: "Single Substitution lookup 41 subtable" lessequalliga
Substitution2: "Single Substitution lookup 39 subtable" notequalliga
Substitution2: "Single Substitution lookup 37 subtable" notequaltypeliga
Substitution2: "Single Substitution lookup 36 subtable" larsenwork1
EndChar
StartChar: greater
Encoding: 62 62 84
GlifName: greater
Width: 1024
VWidth: 0
Flags: W
LayerCount: 3
Back
Fore
SplineSet
119 200 m 1
 722 571 l 1
 724 581 l 1
 265 952 l 1
 356 1053 l 1
 877 624 l 1
 859 528 l 1
 170 99 l 1
 119 200 l 1
EndSplineSet
Validated: 1
Layer: 2
Substitution2: "Single Substitution lookup 94 subtable" greater2
Substitution2: "Single Substitution lookup 93 subtable" greater1
Substitution2: "Single Substitution lookup 68 subtable" ligaequalarrow
Substitution2: "Single Substitution lookup 65 subtable" larsenwork4
Substitution2: "Single Substitution lookup 60 subtable" larsenwork8
Substitution2: "Single Substitution lookup 59 subtable" larsenwork8
Substitution2: "Single Substitution lookup 49 subtable" rightarrowequallong
Substitution2: "Single Substitution lookup 46 subtable" greater2
Substitution2: "Single Substitution lookup 38 subtable" arrowright.liga
Substitution2: "Single Substitution lookup 34 subtable" ligaarrowrighttwoheads
Substitution2: "Single Substitution lookup 33 subtable" larsenwork1
Substitution2: "Single Substitution lookup 28 subtable" ligaarrowrightlong
EndChar
StartChar: question
Encoding: 63 63 85
GlifName: question
Width: 1024
VWidth: 0
Flags: W
HStem: -16 288<385.954 536.185> 1304 120<424.717 795.728>
VStem: 314 295<59.9391 197.912> 472 128<512 616.104> 858 130<1009.08 1247.89>
LayerCount: 3
Back
Fore
SplineSet
489 272 m 0xe8
 563 272 609 227 609 160 c 0
 609 75 542 -16 433 -16 c 0
 359 -16 314 29 314 96 c 0
 314 181 380 272 489 272 c 0xe8
472 512 m 1xd8
 489 599 519 692 623 781 c 0
 749 889 858 987 858 1150 c 0
 858 1249 794 1304 647 1304 c 0
 563 1304 462 1284 384 1267 c 1
 408 1387 l 1
 489 1405 587 1424 671 1424 c 0
 881 1424 988 1330 988 1172 c 0
 988 960 851 827 703 701 c 0
 623 632 611 570 600 512 c 1
 472 512 l 1xd8
EndSplineSet
Validated: 1
Layer: 2
EndChar
StartChar: at
Encoding: 64 64 86
GlifName: at
Width: 1024
VWidth: 0
Flags: W
HStem: 0 120<298.878 809.104> 368 120<551.38 724.787> 896 110<620.374 930> 1288 120<515.327 907.003>
VStem: 63 130<219.478 560.312> 371 131<539.368 768.247> 968 130<1007.07 1229.04>
LayerCount: 3
Back
Fore
SplineSet
487 0 m 0
 427 0 361 0 296 17 c 0
 155 53 63 159 63 328 c 0
 63 387 74 442 84 495 c 2
 165 913 l 2
 176 972 189 1034 218 1101 c 0
 285 1256 414 1356 563 1391 c 0
 634 1408 701 1408 761 1408 c 0
 808 1408 860 1408 912 1394 c 0
 1029 1363 1098 1274 1098 1145 c 0
 1098 1100 1089 1056 1081 1016 c 2
 959 384 l 1
 831 384 l 1
 855 507 l 1
 845 507 l 1
 772 419 696 368 602 368 c 0
 476 368 371 457 371 618 c 0
 371 724 421 843 510 917 c 0
 617 1006 728 1006 790 1006 c 2
 952 1006 l 1
 960 1049 968 1090 968 1126 c 0
 968 1206 929 1258 856 1278 c 0
 824 1287 783 1288 737 1288 c 0
 678 1288 623 1287 574 1275 c 0
 465 1248 385 1180 338 1075 c 0
 315 1024 304 972 293 913 c 2
 212 495 l 2
 202 443 193 397 193 352 c 0
 193 234 248 161 352 133 c 0
 397 121 451 120 510 120 c 0
 609 120 719 128 834 141 c 1
 811 21 l 1
 698 8 594 0 487 0 c 0
912 805 m 2
 930 896 l 1
 766 896 l 2
 711 896 653 896 592 842 c 0
 541 797 502 719 502 642 c 0
 502 554 555 488 647 488 c 0
 817 488 882 649 912 805 c 2
EndSplineSet
Validated: 1
Layer: 2
EndChar
StartChar: A
Encoding: 65 65 29
GlifName: A_
Width: 1024
VWidth: 0
Flags: W
HStem: 0 21G<-37 116.5 774 915.5> 388 120<273 794> 1388 20G<480.5 831>
VStem: -37 135<0 92.7498> 794 135<47.8677 388 508 809.699>
AnchorPoint: "bottom" 830 0 basechar 0
AnchorPoint: "top" 704 1408 basechar 0
LayerCount: 3
Back
Fore
SplineSet
-37 0 m 1
 112 496 316 971 645 1408 c 1
 775 1408 l 1
 887 1100 929 773 929 433 c 0
 929 291 922 146 909 0 c 1
 774 0 l 1
 789 136 794 265 794 388 c 1
 228 388 l 1
 185 265 135 136 98 0 c 1
 -37 0 l 1
797 508 m 1
 785 796 762 1054 690 1279 c 1
 680 1279 l 1
 520 1054 397 796 273 508 c 1
 797 508 l 1
EndSplineSet
Validated: 1
Layer: 2
Position2: "Single Positioning lookup 23 subtable" dx=-128 dy=0 dh=0 dv=0
Position2: "Single Positioning lookup 22 subtable" dx=0 dy=0 dh=0 dv=0
EndChar
StartChar: B
Encoding: 66 66 30
GlifName: B_
Width: 1024
VWidth: 0
Flags: W
HStem: 0 120<203 658.815> 648 120<329 694.523> 1288 120<430 783.984>
VStem: 833 129<301.011 569.527> 870 130<946.115 1204.63>
LayerCount: 3
Back
Fore
SplineSet
478 768 m 2xe8
 554 768 594 769 632 778 c 0
 756 807 870 925 870 1089 c 0
 870 1189 816 1258 729 1278 c 0
 695 1286 655 1288 579 1288 c 2
 430 1288 l 1
 329 768 l 1
 478 768 l 2xe8
767 726 m 1
 887 691 962 592 962 459 c 0xf0
 962 234 789 56 619 16 c 0
 552 0 488 0 403 0 c 2
 52 0 l 1
 326 1408 l 1
 603 1408 l 2
 680 1408 732 1408 784 1395 c 0
 913 1363 1000 1260 1000 1111 c 0
 1000 928 895 797 769 736 c 1
 767 726 l 1
306 648 m 1
 203 120 l 1
 426 120 l 2
 507 120 563 120 610 132 c 0
 726 161 833 283 833 449 c 0
 833 546 787 616 708 636 c 0
 665 647 610 648 529 648 c 2
 306 648 l 1
EndSplineSet
Validated: 1
Layer: 2
Position2: "Single Positioning lookup 23 subtable" dx=-128 dy=0 dh=0 dv=0
Position2: "Single Positioning lookup 22 subtable" dx=0 dy=0 dh=0 dv=0
EndChar
StartChar: C
Encoding: 67 67 31
GlifName: C_
Width: 1024
VWidth: 0
Flags: W
HStem: -16 120<328.534 802.045> 1304 120<547.843 1039.74>
VStem: 72 131<245.126 686.265>
AnchorPoint: "top" 704 1408 basechar 0
LayerCount: 3
Back
Fore
SplineSet
203 432 m 0
 203 237 270 104 479 104 c 0
 595 104 728 121 847 141 c 1
 824 21 l 1
 709 1 583 -16 456 -16 c 0
 181 -16 72 160 72 410 c 0
 72 509 90 609 109 704 c 0
 130 814 155 930 206 1044 c 0
 305 1265 469 1424 726 1424 c 0
 845 1424 958 1412 1061 1395 c 1
 1038 1275 l 1
 932 1292 811 1304 702 1304 c 0
 511 1304 402 1187 325 1016 c 0
 281 919 258 813 237 704 c 0
 219 610 203 518 203 432 c 0
EndSplineSet
Validated: 1
Layer: 2
Position2: "Single Positioning lookup 23 subtable" dx=-128 dy=0 dh=0 dv=0
Position2: "Single Positioning lookup 22 subtable" dx=0 dy=0 dh=0 dv=0
EndChar
StartChar: D
Encoding: 68 68 32
GlifName: D_
Width: 1024
VWidth: 0
Flags: W
HStem: 0 120<190 513.596> 1288 120<417 728.147>
VStem: 885 120<695.652 1130.53>
AnchorPoint: "top" 704 1408 basechar 0
LayerCount: 3
Back
SplineSet
583 1408 m 6
 809 1408 921 1306 973 1171 c 4
 996.022227712 1111.86447392 1005.18764578 1046.20809624 1005.18764578 976.054604501 c 4
 1005.18764578 890.800543012 991.651848192 798.904992271 973 704 c 4
 939 531 894 368 792 237 c 4
 688 102 536 0 310 0 c 6
 47 0 l 5
 321 1408 l 5
 583 1408 l 6
854 704 m 4
 873.207716463 802.172773035 885.013931642 888.389274764 885.013931642 962.041958443 c 4
 885.013931642 1026.43257718 875.990354421 1081.22057724 855 1126 c 4
 816 1210 742 1288 560 1288 c 6
 417 1288 l 5
 190 120 l 5
 333 120 l 6
 515 120 620 198 691 282 c 4
 773 378 818 520 854 704 c 4
EndSplineSet
Fore
SplineSet
583 1408 m 2
 879 1408 1005 1225 1005 976 c 0
 1005 891 992 799 973 704 c 0
 939 531 894 368 792 237 c 0
 688 102 536 0 310 0 c 2
 47 0 l 1
 321 1408 l 1
 583 1408 l 2
854 704 m 0
 873 802 885 888 885 962 c 0
 885 1145 802 1288 560 1288 c 2
 417 1288 l 1
 190 120 l 1
 333 120 l 2
 515 120 620 198 691 282 c 0
 773 378 818 520 854 704 c 0
EndSplineSet
Validated: 1
Layer: 2
Position2: "Single Positioning lookup 23 subtable" dx=-128 dy=0 dh=0 dv=0
Position2: "Single Positioning lookup 22 subtable" dx=0 dy=0 dh=0 dv=0
EndChar
StartChar: E
Encoding: 69 69 33
GlifName: E_
Width: 1024
VWidth: 0
Flags: W
HStem: 0 120<203 820> 648 120<329 818> 1288 120<430 1070>
AnchorPoint: "top" 704 1408 basechar 0
LayerCount: 3
Back
Fore
SplineSet
326 1408 m 1
 1094 1408 l 1
 1070 1288 l 1
 430 1288 l 1
 329 768 l 1
 841 768 l 1
 818 648 l 1
 306 648 l 1
 203 120 l 1
 843 120 l 1
 820 0 l 1
 52 0 l 1
 326 1408 l 1
EndSplineSet
Validated: 1
Layer: 2
Position2: "Single Positioning lookup 23 subtable" dx=-128 dy=0 dh=0 dv=0
Position2: "Single Positioning lookup 22 subtable" dx=0 dy=0 dh=0 dv=0
EndChar
StartChar: G
Encoding: 71 71 35
GlifName: G_
Width: 1024
VWidth: 0
Flags: W
HStem: -16 120<326.973 714.074> 648 120<585 818> 1304 120<558.059 1020.29>
VStem: 72 131<241.328 686.265>
AnchorPoint: "top" 704 1408 basechar 0
LayerCount: 3
Back
Fore
SplineSet
436 -16 m 0
 180 -16 72 162 72 410 c 0
 72 509 90 609 109 704 c 0
 130 814 155 930 206 1044 c 0
 305 1266 488 1424 746 1424 c 0
 851 1424 953 1415 1043 1402 c 1
 1019 1282 l 1
 925 1295 818 1304 722 1304 c 0
 528 1304 403 1187 325 1016 c 0
 281 919 258 813 237 704 c 0
 219 610 203 518 203 432 c 0
 203 240 270 104 459 104 c 0
 540 104 629 113 717 128 c 1
 818 648 l 1
 562 648 l 1
 585 768 l 1
 969 768 l 1
 827 34 l 1
 705 6 570 -16 436 -16 c 0
EndSplineSet
Validated: 1
Layer: 2
Position2: "Single Positioning lookup 23 subtable" dx=-128 dy=0 dh=0 dv=0
Position2: "Single Positioning lookup 22 subtable" dx=0 dy=0 dh=0 dv=0
EndChar
StartChar: H
Encoding: 72 72 36
GlifName: H_
Width: 1024
VWidth: 0
Flags: W
HStem: 0 21G<52 183.875 692 823.892> 640 120<328 816> 1388 20G<322.108 454 962.111 1094>
AnchorPoint: "top" 704 1408 basechar 0
LayerCount: 3
Back
Fore
SplineSet
326 1408 m 1
 454 1408 l 1
 328 760 l 1
 840 760 l 1
 966 1408 l 1
 1094 1408 l 1
 820 0 l 1
 692 0 l 1
 816 640 l 1
 304 640 l 1
 180 0 l 1
 52 0 l 1
 326 1408 l 1
EndSplineSet
Validated: 1
Layer: 2
Position2: "Single Positioning lookup 23 subtable" dx=-128 dy=0 dh=0 dv=0
Position2: "Single Positioning lookup 22 subtable" dx=0 dy=0 dh=0 dv=0
EndChar
StartChar: J
Encoding: 74 74 38
GlifName: J_
Width: 1024
VWidth: 0
Flags: W
HStem: -12 120<269.657 573.099> 1288 120<454 942>
AnchorPoint: "top" 704 1408 basechar 0
LayerCount: 3
Back
Fore
SplineSet
942 1288 m 1
 430 1288 l 1
 454 1408 l 1
 1094 1408 l 1
 912 474 l 2
 894 381 869 253 758 139 c 0
 673 52 545 -12 400 -12 c 0
 241 -12 116 63 37 143 c 1
 129 239 l 1
 192 173 297 108 424 108 c 0
 525 108 610 150 669 210 c 0
 749 291 768 389 784 474 c 2
 942 1288 l 1
EndSplineSet
Validated: 1
Layer: 2
EndChar
StartChar: K
Encoding: 75 75 39
GlifName: K_
Width: 1024
VWidth: 0
Flags: W
HStem: 0 21G<-12 119.871 754.764 922> 1388 20G<258.108 390 943.448 1103>
AnchorPoint: "top" 704 1408 basechar 0
LayerCount: 3
Back
Fore
SplineSet
116 0 m 1
 -12 0 l 1
 262 1408 l 1
 390 1408 l 1
 256 719 l 1
 964 1408 l 1
 1103 1408 l 1
 499 813 l 1
 922 0 l 1
 765 0 l 1
 396 721 l 1
 224 558 l 1
 116 0 l 1
EndSplineSet
Validated: 1
Layer: 2
EndChar
StartChar: L
Encoding: 76 76 40
GlifName: L_
Width: 1024
VWidth: 0
Flags: W
HStem: 0 120<267 884> 1388 20G<386.108 518>
LayerCount: 3
Back
Fore
SplineSet
116 0 m 1
 390 1408 l 1
 518 1408 l 1
 267 120 l 1
 907 120 l 1
 884 0 l 1
 116 0 l 1
EndSplineSet
Validated: 1
Layer: 2
EndChar
StartChar: M
Encoding: 77 77 28
GlifName: M_
Width: 1024
VWidth: 0
Flags: W
HStem: 0 21G<-12 119.896 756 887.892> 1388 20G<258.108 396.146 1016.11 1158>
LayerCount: 3
Back
Fore
SplineSet
116 0 m 1
 -12 0 l 1
 262 1408 l 1
 390 1408 l 1
 583 780 l 1
 594 780 l 1
 1030 1408 l 1
 1158 1408 l 1
 884 0 l 1
 756 0 l 1
 980 1150 l 1
 970 1150 l 1
 615 640 l 1
 505 640 l 1
 350 1150 l 1
 340 1150 l 1
 116 0 l 1
EndSplineSet
Validated: 1
Layer: 2
Position2: "Single Positioning lookup 23 subtable" dx=-128 dy=0 dh=0 dv=0
Position2: "Single Positioning lookup 22 subtable" dx=0 dy=0 dh=0 dv=0
EndChar
StartChar: P
Encoding: 80 80 43
GlifName: P_
Width: 1024
VWidth: 0
Flags: W
HStem: 0 21G<52 183.885> 520 120<304 670.048> 1288 120<430 779.852>
VStem: 902 130<879.989 1172.93>
LayerCount: 3
Back
Fore
SplineSet
430 1288 m 1
 304 640 l 1
 453 640 l 2
 535 640 642 640 740 713 c 0
 825 776 902 895 902 1037 c 0
 902 1112 878 1174 837 1215 c 0
 767 1288 661 1288 579 1288 c 2
 430 1288 l 1
326 1408 m 1
 603 1408 l 2
 694 1408 841 1408 940 1303 c 0
 995 1244 1032 1160 1032 1057 c 0
 1032 867 924 712 808 625 c 0
 669 520 521 520 430 520 c 2
 281 520 l 1
 180 0 l 1
 52 0 l 1
 326 1408 l 1
EndSplineSet
Validated: 1
Layer: 2
Position2: "Single Positioning lookup 23 subtable" dx=-128 dy=0 dh=0 dv=0
Position2: "Single Positioning lookup 22 subtable" dx=0 dy=0 dh=0 dv=0
EndChar
StartChar: Q
Encoding: 81 81 44
GlifName: Q_
Width: 1024
VWidth: 0
Flags: W
HStem: -272 120<589.759 833> 1304 120<543.345 821.753>
VStem: 68 131<241.949 663.582> 947 131<744.418 1165.77>
LayerCount: 3
Back
Fore
SplineSet
713 1424 m 0
 969 1424 1078 1239 1078 1016 c 0
 1078 922 1059 816 1037 704 c 0
 1012 577 986 458 941 355 c 0
 864 181 721 29 525 -8 c 1
 541 -98 599 -152 701 -152 c 0
 758 -152 813 -147 856 -143 c 1
 833 -263 l 1
 788 -267 735 -272 671 -272 c 0
 490 -272 406 -155 392 -14 c 1
 165 5 68 181 68 392 c 0
 68 486 87 592 109 704 c 0
 134 831 160 950 205 1053 c 0
 293 1253 468 1424 713 1424 c 0
947 998 m 0
 947 1162 878 1304 689 1304 c 0
 509 1304 387 1174 324 1026 c 0
 283 930 260 820 237 704 c 0
 217 599 199 499 199 410 c 0
 199 264 255 138 397 109 c 1
 407 195 429 292 447 384 c 1
 575 384 l 1
 557 293 536 196 526 111 c 1
 667 139 764 255 821 382 c 0
 864 478 886 588 909 704 c 0
 929 809 947 909 947 998 c 0
EndSplineSet
Validated: 1
Layer: 2
Position2: "Single Positioning lookup 23 subtable" dx=-128 dy=0 dh=0 dv=0
Position2: "Single Positioning lookup 22 subtable" dx=0 dy=0 dh=0 dv=0
EndChar
StartChar: R
Encoding: 82 82 45
GlifName: R_
Width: 1024
VWidth: 0
Flags: W
HStem: 0 21G<52 183.885 719.953 861> 520 120<304 588.098> 1288 120<430 779.852>
VStem: 902 130<878.829 1172.93>
AnchorPoint: "top" 640 1408 basechar 0
AnchorPoint: "bottom" 436 0 basechar 0
LayerCount: 3
Back
SplineSet
430 1288 m 5
 304 640 l 5
 453 640 l 6
 535 640 642 641 740 713 c 4
 813 767 874 856 895 964 c 4
 916 1072 890 1161 837 1215 c 4
 767 1288 661 1288 579 1288 c 6
 430 1288 l 5
326 1408 m 5
 603 1408 l 6
 694 1408 841 1408 940 1303 c 4
 1011 1227 1052 1111 1023 964 c 4
 994 817 909 701 808 625 c 4
 779 603 750 586 720 572 c 5
 861 0 l 5
 725 0 l 5
 591 531 l 5
 529 520 473 520 430 520 c 6
 281 520 l 5
 180 0 l 5
 52 0 l 5
 326 1408 l 5
EndSplineSet
Fore
SplineSet
430 1288 m 1
 304 640 l 1
 453 640 l 2
 535 640 642 641 740 713 c 0
 825 776 902 895 902 1037 c 0
 902 1112 878 1174 837 1215 c 0
 767 1288 661 1288 579 1288 c 2
 430 1288 l 1
326 1408 m 1
 603 1408 l 2
 694 1408 841 1408 940 1303 c 0
 995 1244 1032 1160 1032 1057 c 0
 1032 836 884 648 720 572 c 1
 861 0 l 1
 725 0 l 1
 591 531 l 1
 529 520 473 520 430 520 c 2
 281 520 l 1
 180 0 l 1
 52 0 l 1
 326 1408 l 1
EndSplineSet
Validated: 1
Layer: 2
Position2: "Single Positioning lookup 23 subtable" dx=-128 dy=0 dh=0 dv=0
Position2: "Single Positioning lookup 22 subtable" dx=0 dy=0 dh=0 dv=0
EndChar
StartChar: U
Encoding: 85 85 48
GlifName: U_
Width: 1024
VWidth: 0
Flags: W
HStem: -16 120<329.872 597.812> 1388 20G<322.112 454 962.112 1094>
VStem: 121 129<183.055 525.406>
AnchorPoint: "top" 704 1408 basechar 0
AnchorPoint: "bottom" 448 0 basechar 0
LayerCount: 3
Back
Fore
SplineSet
433 -16 m 0
 232 -16 121 107 121 280 c 0
 121 355 134 418 146 482 c 2
 326 1408 l 1
 454 1408 l 1
 274 482 l 2
 264 428 250 362 250 305 c 0
 250 185 318 104 456 104 c 0
 593 104 691 183 738 300 c 0
 761 358 775 427 786 482 c 2
 966 1408 l 1
 1094 1408 l 1
 914 482 l 2
 901 416 888 351 857 273 c 0
 790 105 631 -16 433 -16 c 0
EndSplineSet
Validated: 1
Layer: 2
Position2: "Single Positioning lookup 23 subtable" dx=-128 dy=0 dh=0 dv=0
Position2: "Single Positioning lookup 22 subtable" dx=0 dy=0 dh=0 dv=0
EndChar
StartChar: W
Encoding: 87 87 50
GlifName: W_
Width: 1024
VWidth: 0
Flags: W
HStem: 0 21G<118 251.022 628.75 845.5> 1388 20G<207 381 998.5 1167>
VStem: 118 113<210 355.844> 1039 128<1252.94 1408>
LayerCount: 3
Back
Fore
SplineSet
548 896 m 1
 672 896 l 1
 713 210 l 1
 723 210 l 1
 860 579 958 991 1039 1408 c 1
 1167 1408 l 1
 1075 935 937 466 754 0 c 1
 630 0 l 1
 584 736 l 1
 574 736 l 1
 242 0 l 1
 118 0 l 1
 118 480 161 934 253 1408 c 1
 381 1408 l 1
 300 991 239 579 231 210 c 1
 241 210 l 1
 548 896 l 1
EndSplineSet
Validated: 1
Layer: 2
Substitution2: "'ss10' Style Set 10 lookup 9 subtable" W.straight
Position2: "Single Positioning lookup 23 subtable" dx=-128 dy=0 dh=0 dv=0
Position2: "Single Positioning lookup 22 subtable" dx=0 dy=0 dh=0 dv=0
EndChar
StartChar: Z
Encoding: 90 90 53
GlifName: Z_
Width: 1024
VWidth: 0
Flags: W
HStem: 0 120<176 884> 1288 120<282 949>
AnchorPoint: "top" 704 1408 basechar 0
LayerCount: 3
Back
Fore
SplineSet
258 1288 m 1
 282 1408 l 1
 1138 1408 l 1
 1120 1318 l 1
 178 130 l 1
 176 120 l 1
 907 120 l 1
 884 0 l 1
 -12 0 l 1
 6 92 l 1
 947 1278 l 1
 949 1288 l 1
 258 1288 l 1
EndSplineSet
Validated: 1
Layer: 2
Position2: "Single Positioning lookup 23 subtable" dx=-128 dy=0 dh=0 dv=0
Position2: "Single Positioning lookup 22 subtable" dx=0 dy=0 dh=0 dv=0
EndChar
StartChar: bracketleft
Encoding: 91 91 87
GlifName: bracketleft
Width: 1024
VWidth: 0
Flags: W
HStem: -128 120<370 731> 1416 120<647 1031>
LayerCount: 3
Back
Fore
SplineSet
543 1536 m 1
 1055 1536 l 1
 1031 1416 l 1
 647 1416 l 1
 370 -8 l 1
 754 -8 l 1
 731 -128 l 1
 219 -128 l 1
 543 1536 l 1
EndSplineSet
Validated: 1
Layer: 2
EndChar
StartChar: backslash
Encoding: 92 92 26
GlifName: backslash
Width: 1024
VWidth: 0
Flags: W
LayerCount: 3
Back
Fore
SplineSet
744 -155 m 1
 279 1510 l 1
 402 1563 l 1
 868 -102 l 1
 744 -155 l 1
EndSplineSet
Validated: 1
Layer: 2
Substitution2: "Single Substitution lookup 15 subtable" backslash.shrug
EndChar
StartChar: bracketright
Encoding: 93 93 88
GlifName: bracketright
Width: 1024
VWidth: 0
Flags: W
HStem: -128 120<114 498> 1416 120<415 775>
LayerCount: 3
Back
Fore
SplineSet
927 1536 m 1
 603 -128 l 1
 91 -128 l 1
 114 -8 l 1
 498 -8 l 1
 775 1416 l 1
 391 1416 l 1
 415 1536 l 1
 927 1536 l 1
EndSplineSet
Validated: 1
Layer: 2
EndChar
StartChar: asciicircum
Encoding: 94 94 89
GlifName: asciicircum
Width: 1024
VWidth: 0
Flags: W
HStem: 1299 109<631.109 734.766>
VStem: 850 135<896 1077.76>
LayerCount: 3
Back
Fore
SplineSet
235 896 m 1
 319 1076 435 1249 630 1408 c 1
 790 1408 l 1
 923 1249 971 1076 985 896 c 1
 850 896 l 1
 834 1055 791 1190 714 1299 c 1
 664 1299 l 1
 545 1190 448 1055 370 896 c 1
 235 896 l 1
EndSplineSet
Validated: 1
Layer: 2
EndChar
StartChar: underscore
Encoding: 95 95 90
GlifName: underscore
Width: 1024
VWidth: 0
Flags: W
HStem: -120 120<12 885>
LayerCount: 3
Back
Fore
SplineSet
12 0 m 1
 908 0 l 1
 885 -120 l 1
 -11 -120 l 1
 12 0 l 1
EndSplineSet
Validated: 1
Layer: 2
Substitution2: "Single Substitution lookup 76 subtable" underscore.2r
Substitution2: "Single Substitution lookup 75 subtable" underscore.2l
Substitution2: "Single Substitution lookup 74 subtable" underscore.more
Substitution2: "Single Substitution lookup 73 subtable" underscore.more
Substitution2: "Single Substitution lookup 72 subtable" underscore.more
EndChar
StartChar: b
Encoding: 98 98 0
GlifName: b
Width: 1024
VWidth: 0
Flags: W
HStem: -16 120<376.828 577.634> 0 21G<116 247.84> 920 120<556.133 726.842> 1388 20G<386.108 518>
VStem: 786 133<500.328 855.454>
LayerCount: 3
Back
Fore
SplineSet
674 1040 m 0x78
 822 1040 919 929 919 747 c 0
 919 675 905 601 888 512 c 0
 866 400 848 311 803 221 c 0
 727 71 600 -16 469 -16 c 0xb8
 386 -16 319 33 278 125 c 1
 268 125 l 1
 244 0 l 1
 116 0 l 1
 390 1408 l 1
 518 1408 l 1
 419 899 l 1
 429 899 l 1
 506 991 591 1040 674 1040 c 0x78
631 920 m 0
 535 920 460 847 419 768 c 0
 379 692 362 604 344 512 c 0
 330 440 317 370 317 307 c 0
 317 199 361 104 472 104 c 0
 568 104 643 177 684 256 c 0
 724 332 742 420 760 512 c 0
 774 584 786 654 786 717 c 0
 786 824 744 920 631 920 c 0
EndSplineSet
Validated: 1
Layer: 2
Position2: "Single Positioning lookup 21 subtable" dx=-128 dy=0 dh=0 dv=0
Position2: "Single Positioning lookup 20 subtable" dx=-64 dy=0 dh=0 dv=0
Position2: "Single Positioning lookup 19 subtable" dx=0 dy=0 dh=0 dv=0
Position2: "Single Positioning lookup 12 subtable" dx=-128 dy=0 dh=0 dv=0
Position2: "Single Positioning lookup 9 subtable" dx=0 dy=0 dh=0 dv=0
Position2: "Single Positioning lookup 7 subtable" dx=128 dy=0 dh=0 dv=0
Position2: "Single Positioning lookup 6 subtable" dx=64 dy=0 dh=0 dv=0
Position2: "Single Positioning lookup 5 subtable" dx=0 dy=0 dh=0 dv=0
Position2: "Single Positioning lookup 2 subtable" dx=128 dy=0 dh=0 dv=0
EndChar
StartChar: d
Encoding: 100 100 4
GlifName: d
Width: 1024
VWidth: 0
Flags: W
HStem: -16 120<344.158 526.004> 0 21G<628 759.892> 920 120<493.366 694.679> 1388 20G<898.11 1030>
VStem: 152 133<168.553 518.923>
LayerCount: 3
Back
Fore
SplineSet
602 1040 m 0xb8
 685 1040 764 1001 793 899 c 1
 803 899 l 1
 902 1408 l 1
 1030 1408 l 1
 756 0 l 1
 628 0 l 1x78
 652 125 l 1
 642 125 l 1
 573 23 480 -16 397 -16 c 0
 249 -16 152 96 152 277 c 0
 152 349 167 423 184 512 c 0
 206 624 223 713 268 803 c 0
 344 953 471 1040 602 1040 c 0xb8
599 920 m 0
 503 920 428 847 387 768 c 0
 347 692 330 604 312 512 c 0
 298 440 285 370 285 307 c 0
 285 199 327 104 440 104 c 0xb8
 536 104 611 177 652 256 c 0
 692 332 710 420 728 512 c 0
 742 584 754 654 754 717 c 0
 754 825 712 920 599 920 c 0
EndSplineSet
Validated: 1
Layer: 2
Position2: "Single Positioning lookup 21 subtable" dx=-128 dy=0 dh=0 dv=0
Position2: "Single Positioning lookup 20 subtable" dx=-64 dy=0 dh=0 dv=0
Position2: "Single Positioning lookup 19 subtable" dx=0 dy=0 dh=0 dv=0
Position2: "Single Positioning lookup 12 subtable" dx=-128 dy=0 dh=0 dv=0
Position2: "Single Positioning lookup 9 subtable" dx=0 dy=0 dh=0 dv=0
Position2: "Single Positioning lookup 7 subtable" dx=128 dy=0 dh=0 dv=0
Position2: "Single Positioning lookup 6 subtable" dx=64 dy=0 dh=0 dv=0
Position2: "Single Positioning lookup 5 subtable" dx=0 dy=0 dh=0 dv=0
Position2: "Single Positioning lookup 2 subtable" dx=128 dy=0 dh=0 dv=0
EndChar
StartChar: e
Encoding: 101 101 5
GlifName: e
Width: 1024
VWidth: 0
Flags: W
HStem: -16 120<350.972 753.509> 512 120<337 785.736> 920 120<484.729 730.6>
VStem: 153 130<173.845 510.253> 792 129<634.658 860.023>
LayerCount: 3
Back
Fore
SplineSet
792 745 m 0
 792 857 733 920 615 920 c 0
 518 920 439 874 396 799 c 0
 366 751 352 693 337 632 c 1
 781 632 l 1
 787 672 792 710 792 745 c 0
283 301 m 0
 283 173 347 104 476 104 c 0
 569 104 673 113 780 125 c 1
 757 5 l 1
 651 -7 553 -16 453 -16 c 0
 253 -16 153 103 153 280 c 0
 153 351 168 427 184 512 c 0
 208 637 230 747 284 839 c 0
 348 951 476 1040 638 1040 c 0
 811 1040 921 941 921 761 c 0
 921 687 906 604 888 512 c 1
 312 512 l 1
 298 438 283 364 283 301 c 0
EndSplineSet
Validated: 1
Layer: 2
Position2: "Single Positioning lookup 21 subtable" dx=-128 dy=0 dh=0 dv=0
Position2: "Single Positioning lookup 20 subtable" dx=-64 dy=0 dh=0 dv=0
Position2: "Single Positioning lookup 19 subtable" dx=0 dy=0 dh=0 dv=0
Position2: "Single Positioning lookup 12 subtable" dx=-128 dy=0 dh=0 dv=0
Position2: "Single Positioning lookup 9 subtable" dx=0 dy=0 dh=0 dv=0
Position2: "Single Positioning lookup 7 subtable" dx=128 dy=0 dh=0 dv=0
Position2: "Single Positioning lookup 6 subtable" dx=64 dy=0 dh=0 dv=0
Position2: "Single Positioning lookup 5 subtable" dx=0 dy=0 dh=0 dv=0
Position2: "Single Positioning lookup 2 subtable" dx=128 dy=0 dh=0 dv=0
EndChar
StartChar: f
Encoding: 102 102 6
GlifName: f
Width: 1024
VWidth: 0
Flags: W
HStem: 0 21G<244 375.892> 776 120<162 395 546 907> 1304 120<658.531 1009.14>
LayerCount: 3
Back
Fore
SplineSet
372 0 m 1
 244 0 l 1
 395 776 l 1
 139 776 l 1
 162 896 l 1
 418 896 l 1
 463 1129 l 2
 473 1181 488 1259 554 1329 c 0
 609 1388 698 1424 797 1424 c 0
 877 1424 969 1415 1030 1408 c 1
 1006 1288 l 1
 945 1295 850 1304 773 1304 c 0
 717 1304 674 1289 645 1259 c 0
 610 1222 600 1173 591 1129 c 2
 546 896 l 1
 930 896 l 1
 907 776 l 1
 523 776 l 1
 372 0 l 1
EndSplineSet
Validated: 1
Layer: 2
Position2: "Single Positioning lookup 21 subtable" dx=-128 dy=0 dh=0 dv=0
Position2: "Single Positioning lookup 20 subtable" dx=-64 dy=0 dh=0 dv=0
Position2: "Single Positioning lookup 19 subtable" dx=0 dy=0 dh=0 dv=0
Position2: "Single Positioning lookup 12 subtable" dx=-128 dy=0 dh=0 dv=0
Position2: "Single Positioning lookup 9 subtable" dx=0 dy=0 dh=0 dv=0
Position2: "Single Positioning lookup 7 subtable" dx=128 dy=0 dh=0 dv=0
Position2: "Single Positioning lookup 6 subtable" dx=64 dy=0 dh=0 dv=0
Position2: "Single Positioning lookup 5 subtable" dx=0 dy=0 dh=0 dv=0
Position2: "Single Positioning lookup 2 subtable" dx=128 dy=0 dh=0 dv=0
EndChar
StartChar: g
Encoding: 103 103 7
GlifName: g
Width: 1024
VWidth: 0
Flags: W
HStem: -272 120<131.398 500.821> 112 120<368.33 539.906> 920 120<489.013 697.541> 1004 20G<823.16 955>
VStem: 176 131<295.508 641.427>
LayerCount: 3
Back
Fore
SplineSet
757 725 m 0xe8
 757 836 711 920 599 920 c 0
 493 920 424 846 385 770 c 0
 344 690 307 545 307 427 c 0
 307 316 353 232 465 232 c 0
 584 232 658 326 696 420 c 0
 727 496 757 632 757 725 c 0xe8
422 112 m 0
 257 112 176 232 176 398 c 0
 176 552 225 731 281 831 c 0
 340 937 451 1040 602 1040 c 0xe8
 689 1040 754 984 793 899 c 1
 803 899 l 1
 827 1024 l 1
 955 1024 l 1xd8
 788 160 l 2
 776 100 755 -11 674 -113 c 0
 601 -205 492 -272 344 -272 c 0
 254 -272 173 -265 111 -257 c 1
 134 -137 l 1
 196 -144 279 -152 368 -152 c 0
 464 -152 527 -113 575 -54 c 0
 633 17 650 113 660 160 c 2
 677 253 l 1
 667 253 l 1
 595 168 509 112 422 112 c 0
EndSplineSet
Validated: 1
Layer: 2
Substitution2: "'ss11' Style Set 11 lookup 10 subtable" g.long
Position2: "Single Positioning lookup 21 subtable" dx=-128 dy=0 dh=0 dv=0
Position2: "Single Positioning lookup 20 subtable" dx=-64 dy=0 dh=0 dv=0
Position2: "Single Positioning lookup 19 subtable" dx=0 dy=0 dh=0 dv=0
Position2: "Single Positioning lookup 12 subtable" dx=-128 dy=0 dh=0 dv=0
Position2: "Single Positioning lookup 9 subtable" dx=0 dy=0 dh=0 dv=0
Position2: "Single Positioning lookup 7 subtable" dx=128 dy=0 dh=0 dv=0
Position2: "Single Positioning lookup 6 subtable" dx=64 dy=0 dh=0 dv=0
Position2: "Single Positioning lookup 5 subtable" dx=0 dy=0 dh=0 dv=0
Position2: "Single Positioning lookup 2 subtable" dx=128 dy=0 dh=0 dv=0
EndChar
StartChar: h
Encoding: 104 104 8
GlifName: h
Width: 1024
VWidth: 0
Flags: W
HStem: 0 21G<116 247.896 628 759.896> 920 120<543.941 723.793> 1388 20G<386.108 518>
VStem: 772 130<585.141 871.341>
LayerCount: 3
Back
Fore
SplineSet
772 776 m 0
 772 867 710 920 615 920 c 0
 551 920 495 895 456 858 c 0
 401 806 389 744 372 657 c 2
 244 0 l 1
 116 0 l 1
 390 1408 l 1
 518 1408 l 1
 421 912 l 1
 431 912 l 1
 495 989 582 1040 658 1040 c 0
 807 1040 902 944 902 801 c 0
 902 753 893 705 884 657 c 2
 756 0 l 1
 628 0 l 1
 756 657 l 2
 765 703 772 742 772 776 c 0
EndSplineSet
Validated: 1
Layer: 2
Position2: "Single Positioning lookup 21 subtable" dx=-128 dy=0 dh=0 dv=0
Position2: "Single Positioning lookup 20 subtable" dx=-64 dy=0 dh=0 dv=0
Position2: "Single Positioning lookup 19 subtable" dx=0 dy=0 dh=0 dv=0
Position2: "Single Positioning lookup 12 subtable" dx=-128 dy=0 dh=0 dv=0
Position2: "Single Positioning lookup 9 subtable" dx=0 dy=0 dh=0 dv=0
Position2: "Single Positioning lookup 7 subtable" dx=128 dy=0 dh=0 dv=0
Position2: "Single Positioning lookup 6 subtable" dx=64 dy=0 dh=0 dv=0
Position2: "Single Positioning lookup 5 subtable" dx=0 dy=0 dh=0 dv=0
Position2: "Single Positioning lookup 2 subtable" dx=128 dy=0 dh=0 dv=0
EndChar
StartChar: i
Encoding: 105 105 9
GlifName: i
Width: 1024
VWidth: 0
Flags: W
HStem: 0 21G<436 567.887> 904 120<379 612> 1200 224<656.179 789.821>
VStem: 608 230<1247.56 1376.44>
AnchorPoint: "bottom" 500 0 basechar 0
LayerCount: 3
Back
SplineSet
745 1424 m 4xf0
 811 1424 848 1378 835 1312 c 4
 822 1246 767 1200 701 1200 c 4
 635 1200 598 1246 611 1312 c 4
 624 1378 679 1424 745 1424 c 4xf0
436 0 m 5xe8
 612 904 l 5
 356 904 l 5
 379 1024 l 5
 763 1024 l 5
 564 0 l 5
 436 0 l 5xe8
EndSplineSet
Fore
SplineSet
608 1287 m 0
 608 1369 674 1424 745 1424 c 0
 802 1424 838 1389 838 1337 c 0
 838 1255 772 1200 701 1200 c 0
 644 1200 608 1235 608 1287 c 0
436 0 m 1
 612 904 l 1
 356 904 l 1
 379 1024 l 1
 763 1024 l 1
 564 0 l 1
 436 0 l 1
EndSplineSet
Validated: 1
Layer: 2
Substitution2: "'ss07' Style Set 7 lookup 6 subtable" i.flyingdot
Position2: "Single Positioning lookup 24 subtable" dx=-128 dy=0 dh=0 dv=0
Position2: "Single Positioning lookup 18 subtable" dx=64 dy=0 dh=0 dv=0
Position2: "Single Positioning lookup 17 subtable" dx=64 dy=0 dh=0 dv=0
Position2: "Single Positioning lookup 15 subtable" dx=0 dy=0 dh=0 dv=0
Position2: "Single Positioning lookup 13 subtable" dx=0 dy=0 dh=0 dv=0
Position2: "Single Positioning lookup 10 subtable" dx=128 dy=0 dh=0 dv=0
Position2: "Single Positioning lookup 8 subtable" dx=64 dy=0 dh=0 dv=0
Position2: "Single Positioning lookup 4 subtable" dx=64 dy=0 dh=0 dv=0
Position2: "Single Positioning lookup 3 subtable" dx=64 dy=0 dh=0 dv=0
Position2: "Single Positioning lookup 1 subtable" dx=64 dy=0 dh=0 dv=0
EndChar
StartChar: j
Encoding: 106 106 10
GlifName: j
Width: 1024
VWidth: 0
Flags: W
HStem: -272 120<2.39762 371.618> 904 120<443 676> 1200 224<720.179 853.821>
VStem: 672 230<1247.56 1376.44>
LayerCount: 3
Back
SplineSet
531 160 m 6xe8
 676 904 l 5
 420 904 l 5
 443 1024 l 5
 827 1024 l 5
 659 160 l 6
 647 100 626 -11 545 -113 c 4
 472 -205 363 -272 215 -272 c 4
 125 -272 44 -265 -18 -257 c 5
 5 -137 l 5
 67 -144 149 -152 238 -152 c 4
 334 -152 398 -113 446 -54 c 4
 504 17 522 113 531 160 c 6xe8
809 1424 m 4
 875 1424 912 1378 899 1312 c 4
 886 1246 831 1200 765 1200 c 4
 699 1200 662 1246 675 1312 c 4xf0
 688 1378 743 1424 809 1424 c 4
EndSplineSet
Fore
SplineSet
531 160 m 2
 676 904 l 1
 420 904 l 1
 443 1024 l 1
 827 1024 l 1
 659 160 l 2
 647 100 626 -11 545 -113 c 0
 472 -205 363 -272 215 -272 c 0
 125 -272 44 -265 -18 -257 c 1
 5 -137 l 1
 67 -144 149 -152 238 -152 c 0
 334 -152 398 -113 446 -54 c 0
 504 17 522 113 531 160 c 2
672 1287 m 0
 672 1369 738 1424 809 1424 c 0
 866 1424 902 1389 902 1337 c 0
 902 1255 836 1200 765 1200 c 0
 708 1200 672 1235 672 1287 c 0
EndSplineSet
Validated: 1
Layer: 2
Substitution2: "'ss11' Style Set 11 lookup 10 subtable" j.long
Substitution2: "'ss07' Style Set 7 lookup 6 subtable" j.flyingdot
Position2: "Single Positioning lookup 21 subtable" dx=-128 dy=0 dh=0 dv=0
Position2: "Single Positioning lookup 20 subtable" dx=-64 dy=0 dh=0 dv=0
Position2: "Single Positioning lookup 19 subtable" dx=0 dy=0 dh=0 dv=0
Position2: "Single Positioning lookup 12 subtable" dx=-128 dy=0 dh=0 dv=0
Position2: "Single Positioning lookup 9 subtable" dx=0 dy=0 dh=0 dv=0
Position2: "Single Positioning lookup 7 subtable" dx=128 dy=0 dh=0 dv=0
Position2: "Single Positioning lookup 6 subtable" dx=64 dy=0 dh=0 dv=0
Position2: "Single Positioning lookup 5 subtable" dx=0 dy=0 dh=0 dv=0
Position2: "Single Positioning lookup 2 subtable" dx=128 dy=0 dh=0 dv=0
EndChar
StartChar: k
Encoding: 107 107 11
GlifName: k
Width: 1024
VWidth: 0
Flags: W
HStem: 0 21G<116 247.908 697.857 862> 1004 20G<829.682 1014> 1388 20G<386.108 518>
DStem2: 116 0 244 0 0.190809 0.981627<24.4236 467.65 637.688 1434.41> 361 602 478 560 0.75824 0.651976<0 61.3311 191.815 648.188>
LayerCount: 3
Back
Fore
SplineSet
244 0 m 1
 116 0 l 1
 390 1408 l 1
 518 1408 l 1
 361 602 l 1
 853 1024 l 1
 1014 1024 l 1
 577 645 l 1
 862 0 l 1
 706 0 l 1
 478 560 l 1
 329 435 l 1
 244 0 l 1
EndSplineSet
Validated: 1
Layer: 2
Position2: "Single Positioning lookup 21 subtable" dx=-128 dy=0 dh=0 dv=0
Position2: "Single Positioning lookup 20 subtable" dx=-64 dy=0 dh=0 dv=0
Position2: "Single Positioning lookup 19 subtable" dx=0 dy=0 dh=0 dv=0
Position2: "Single Positioning lookup 12 subtable" dx=-128 dy=0 dh=0 dv=0
Position2: "Single Positioning lookup 9 subtable" dx=0 dy=0 dh=0 dv=0
Position2: "Single Positioning lookup 7 subtable" dx=128 dy=0 dh=0 dv=0
Position2: "Single Positioning lookup 6 subtable" dx=64 dy=0 dh=0 dv=0
Position2: "Single Positioning lookup 5 subtable" dx=0 dy=0 dh=0 dv=0
Position2: "Single Positioning lookup 2 subtable" dx=128 dy=0 dh=0 dv=0
EndChar
StartChar: l
Encoding: 108 108 12
GlifName: l
Width: 1024
VWidth: 0
Flags: W
HStem: -16 120<565.791 754> 1388 20G<642.103 774>
VStem: 414 130<125.443 384.844> 646 128<1352.82 1408>
LayerCount: 3
Back
Fore
SplineSet
544 203 m 0
 544 141 578 104 648 104 c 0
 690 104 740 106 777 109 c 1
 754 -11 l 1
 716 -13 670 -16 615 -16 c 0
 481 -16 414 71 414 181 c 0
 414 217 421 251 426 279 c 2
 646 1408 l 1
 774 1408 l 1
 554 279 l 2
 549 253 544 227 544 203 c 0
EndSplineSet
Validated: 1
Layer: 2
Substitution2: "'ss09' Style Set 9 lookup 8 subtable" l.base
Substitution2: "'ss08' Style Set 8 lookup 7 subtable" l.zstyle
Position2: "Single Positioning lookup 24 subtable" dx=-128 dy=0 dh=0 dv=0
Position2: "Single Positioning lookup 16 subtable" dx=-64 dy=0 dh=0 dv=0
Position2: "Single Positioning lookup 14 subtable" dx=-128 dy=0 dh=0 dv=0
Position2: "Single Positioning lookup 11 subtable" dx=-128 dy=0 dh=0 dv=0
Position2: "Single Positioning lookup 10 subtable" dx=128 dy=0 dh=0 dv=0
Position2: "Single Positioning lookup 8 subtable" dx=64 dy=0 dh=0 dv=0
Position2: "Single Positioning lookup 3 subtable" dx=64 dy=0 dh=0 dv=0
Position2: "Single Positioning lookup 1 subtable" dx=64 dy=0 dh=0 dv=0
EndChar
StartChar: m
Encoding: 109 109 13
GlifName: m
Width: 1024
VWidth: 0
Flags: W
HStem: 0 21G<-12 119.89 372 503.89 756 887.89> 920 120<374.052 506.335 735.952 890.722> 1004 20G<183.113 315>
VStem: -12 128<0 55.2744> 372 128<0 55.2744> 911 131<638.75 897.72>
LayerCount: 3
Back
Fore
SplineSet
527 825 m 0xdc
 527 886 486 920 423 920 c 0xdc
 380 920 343 903 317 879 c 0
 280 845 271 797 258 730 c 2
 116 0 l 1
 -12 0 l 1
 187 1024 l 1
 315 1024 l 1xbc
 300 949 l 1
 310 949 l 1
 361 1008 416 1040 476 1040 c 0
 560 1040 615 992 638 929 c 1
 707 1001 778 1040 860 1040 c 0
 973 1040 1042 961 1042 852 c 0
 1042 814 1035 774 1026 730 c 2
 884 0 l 1
 756 0 l 1
 898 730 l 2
 905 767 911 799 911 825 c 0
 911 885 871 920 807 920 c 0
 764 920 727 903 701 879 c 0
 664 845 655 797 642 730 c 2
 500 0 l 1
 372 0 l 1
 514 730 l 2
 521 767 527 799 527 825 c 0xdc
EndSplineSet
Validated: 1
Layer: 2
Substitution2: "Single Substitution lookup 82 subtable" mm
Substitution2: "Single Substitution lookup 81 subtable" larsenwork
Position2: "Single Positioning lookup 23 subtable" dx=-128 dy=0 dh=0 dv=0
Position2: "Single Positioning lookup 22 subtable" dx=0 dy=0 dh=0 dv=0
EndChar
StartChar: n
Encoding: 110 110 14
GlifName: n
Width: 1024
VWidth: 0
Flags: W
HStem: 0 21G<116 247.896 628 759.896> 920 120<543.941 723.793> 1004 20G<311.113 443>
VStem: 772 130<585.141 871.341>
LayerCount: 3
Back
Fore
SplineSet
772 776 m 0xd0
 772 867 710 920 615 920 c 0xd0
 551 920 495 895 456 858 c 0
 401 806 389 744 372 657 c 2
 244 0 l 1
 116 0 l 1
 315 1024 l 1
 443 1024 l 1xb0
 421 912 l 1
 431 912 l 1
 495 989 582 1040 658 1040 c 0
 807 1040 902 944 902 801 c 0
 902 753 893 705 884 657 c 2
 756 0 l 1
 628 0 l 1
 756 657 l 2
 765 703 772 742 772 776 c 0xd0
EndSplineSet
Validated: 1
Layer: 2
Position2: "Single Positioning lookup 21 subtable" dx=-128 dy=0 dh=0 dv=0
Position2: "Single Positioning lookup 20 subtable" dx=-64 dy=0 dh=0 dv=0
Position2: "Single Positioning lookup 19 subtable" dx=0 dy=0 dh=0 dv=0
Position2: "Single Positioning lookup 12 subtable" dx=-128 dy=0 dh=0 dv=0
Position2: "Single Positioning lookup 9 subtable" dx=0 dy=0 dh=0 dv=0
Position2: "Single Positioning lookup 7 subtable" dx=128 dy=0 dh=0 dv=0
Position2: "Single Positioning lookup 6 subtable" dx=64 dy=0 dh=0 dv=0
Position2: "Single Positioning lookup 5 subtable" dx=0 dy=0 dh=0 dv=0
Position2: "Single Positioning lookup 2 subtable" dx=128 dy=0 dh=0 dv=0
EndChar
StartChar: o
Encoding: 111 111 15
GlifName: o
Width: 1024
VWidth: 0
Flags: W
HStem: -16 120<347.354 579.284> 920 120<491.716 723.437>
VStem: 154 129<168.206 527.214> 787 129<484.395 855.594>
AnchorPoint: "top" 635 1024 basechar 0
LayerCount: 3
Back
Fore
SplineSet
433 -16 m 0
 260 -16 154 96 154 278 c 0
 154 347 167 425 184 512 c 0
 213 662 246 788 320 880 c 0
 400 978 511 1040 638 1040 c 0
 811 1040 916 927 916 746 c 0
 916 677 905 599 888 512 c 0
 859 362 825 236 751 144 c 0
 671 46 560 -16 433 -16 c 0
787 724 m 0
 787 843 736 920 615 920 c 0
 531 920 466 881 420 822 c 0
 359 744 335 629 312 512 c 0
 298 438 283 364 283 300 c 0
 283 181 335 104 456 104 c 0
 540 104 605 143 651 202 c 0
 712 280 737 395 760 512 c 0
 774 586 787 660 787 724 c 0
EndSplineSet
Validated: 1
Layer: 2
Position2: "Single Positioning lookup 21 subtable" dx=-128 dy=0 dh=0 dv=0
Position2: "Single Positioning lookup 20 subtable" dx=-64 dy=0 dh=0 dv=0
Position2: "Single Positioning lookup 19 subtable" dx=0 dy=0 dh=0 dv=0
Position2: "Single Positioning lookup 12 subtable" dx=-128 dy=0 dh=0 dv=0
Position2: "Single Positioning lookup 9 subtable" dx=0 dy=0 dh=0 dv=0
Position2: "Single Positioning lookup 7 subtable" dx=128 dy=0 dh=0 dv=0
Position2: "Single Positioning lookup 6 subtable" dx=64 dy=0 dh=0 dv=0
Position2: "Single Positioning lookup 5 subtable" dx=0 dy=0 dh=0 dv=0
Position2: "Single Positioning lookup 2 subtable" dx=128 dy=0 dh=0 dv=0
EndChar
StartChar: p
Encoding: 112 112 16
GlifName: p
Width: 1024
VWidth: 0
Flags: W
HStem: -16 120<376.386 577.634> 920 120<556.133 726.842> 1004 20G<311.108 443>
VStem: 786 133<500.328 855.447>
LayerCount: 3
Back
Fore
SplineSet
674 1040 m 0xd0
 822 1040 919 928 919 747 c 0
 919 675 905 601 888 512 c 0
 866 400 848 311 803 221 c 0
 727 71 600 -16 469 -16 c 0
 386 -16 319 33 278 125 c 1
 268 125 l 1
 169 -384 l 1
 41 -384 l 1
 315 1024 l 1
 443 1024 l 1xb0
 419 899 l 1
 429 899 l 1
 506 991 591 1040 674 1040 c 0xd0
317 307 m 0
 317 199 359 104 472 104 c 0
 568 104 643 177 684 256 c 0
 724 332 742 420 760 512 c 0
 774 584 786 654 786 717 c 0
 786 825 744 920 631 920 c 0xd0
 535 920 460 847 419 768 c 0
 379 692 362 604 344 512 c 0
 330 440 317 370 317 307 c 0
EndSplineSet
Validated: 1
Layer: 2
Position2: "Single Positioning lookup 21 subtable" dx=-128 dy=0 dh=0 dv=0
Position2: "Single Positioning lookup 20 subtable" dx=-64 dy=0 dh=0 dv=0
Position2: "Single Positioning lookup 19 subtable" dx=0 dy=0 dh=0 dv=0
Position2: "Single Positioning lookup 12 subtable" dx=-128 dy=0 dh=0 dv=0
Position2: "Single Positioning lookup 9 subtable" dx=0 dy=0 dh=0 dv=0
Position2: "Single Positioning lookup 7 subtable" dx=128 dy=0 dh=0 dv=0
Position2: "Single Positioning lookup 6 subtable" dx=64 dy=0 dh=0 dv=0
Position2: "Single Positioning lookup 5 subtable" dx=0 dy=0 dh=0 dv=0
Position2: "Single Positioning lookup 2 subtable" dx=128 dy=0 dh=0 dv=0
EndChar
StartChar: q
Encoding: 113 113 17
GlifName: q
Width: 1024
VWidth: 0
Flags: W
HStem: -16 120<344.158 514.867> 920 120<493.366 694.614> 1004 20G<823.16 955>
VStem: 152 133<168.553 518.923>
LayerCount: 3
Back
Fore
SplineSet
397 -16 m 0xb0
 249 -16 152 96 152 277 c 0
 152 349 167 423 184 512 c 0
 206 624 223 713 268 803 c 0
 344 953 471 1040 602 1040 c 0xd0
 685 1040 752 991 793 899 c 1
 803 899 l 1
 827 1024 l 1
 955 1024 l 1
 681 -384 l 1
 553 -384 l 1
 652 125 l 1
 642 125 l 1
 565 33 480 -16 397 -16 c 0xb0
285 307 m 0
 285 199 327 104 440 104 c 0
 536 104 611 177 652 256 c 0
 692 332 710 420 728 512 c 0
 742 584 754 654 754 717 c 0
 754 825 712 920 599 920 c 0
 503 920 428 847 387 768 c 0
 347 692 330 604 312 512 c 0
 298 440 285 370 285 307 c 0
EndSplineSet
Validated: 1
Layer: 2
Position2: "Single Positioning lookup 21 subtable" dx=-128 dy=0 dh=0 dv=0
Position2: "Single Positioning lookup 20 subtable" dx=-64 dy=0 dh=0 dv=0
Position2: "Single Positioning lookup 19 subtable" dx=0 dy=0 dh=0 dv=0
Position2: "Single Positioning lookup 12 subtable" dx=-128 dy=0 dh=0 dv=0
Position2: "Single Positioning lookup 9 subtable" dx=0 dy=0 dh=0 dv=0
Position2: "Single Positioning lookup 7 subtable" dx=128 dy=0 dh=0 dv=0
Position2: "Single Positioning lookup 6 subtable" dx=64 dy=0 dh=0 dv=0
Position2: "Single Positioning lookup 5 subtable" dx=0 dy=0 dh=0 dv=0
Position2: "Single Positioning lookup 2 subtable" dx=128 dy=0 dh=0 dv=0
EndChar
StartChar: r
Encoding: 114 114 18
GlifName: r
Width: 1024
VWidth: 0
Flags: W
HStem: 0 21G<116 247.874> 920 120<610.835 934.808> 1004 20G<311.113 443>
LayerCount: 3
Back
Fore
SplineSet
755 920 m 0xc0
 663 920 586 894 526 847 c 0
 388 740 358 589 336 475 c 2
 244 0 l 1
 116 0 l 1
 315 1024 l 1
 443 1024 l 1xa0
 412 865 l 1
 422 865 l 1
 517 967 623 1040 778 1040 c 0
 844 1040 900 1034 956 1027 c 1
 932 907 l 1
 876 914 820 920 755 920 c 0xc0
EndSplineSet
Validated: 1
Layer: 2
Substitution2: "'ss09' Style Set 9 lookup 8 subtable" r.base
Position2: "Single Positioning lookup 21 subtable" dx=-128 dy=0 dh=0 dv=0
Position2: "Single Positioning lookup 20 subtable" dx=-64 dy=0 dh=0 dv=0
Position2: "Single Positioning lookup 19 subtable" dx=0 dy=0 dh=0 dv=0
Position2: "Single Positioning lookup 12 subtable" dx=-128 dy=0 dh=0 dv=0
Position2: "Single Positioning lookup 9 subtable" dx=0 dy=0 dh=0 dv=0
Position2: "Single Positioning lookup 7 subtable" dx=128 dy=0 dh=0 dv=0
Position2: "Single Positioning lookup 6 subtable" dx=64 dy=0 dh=0 dv=0
Position2: "Single Positioning lookup 5 subtable" dx=0 dy=0 dh=0 dv=0
Position2: "Single Positioning lookup 2 subtable" dx=128 dy=0 dh=0 dv=0
EndChar
StartChar: s
Encoding: 115 115 19
GlifName: s
Width: 1024
VWidth: 0
Flags: W
HStem: -16 120<136.765 609.144> 920 120<444.972 922.253>
VStem: 245 128<672.931 856.805> 720 128<203.552 429.718>
LayerCount: 3
Back
Fore
SplineSet
424 -16 m 0
 322 -16 205 -4 117 6 c 1
 140 126 l 1
 224 116 351 104 447 104 c 0
 667 104 720 228 720 308 c 0
 720 385 699 435 643 468 c 0
 561 516 464 491 367 540 c 0
 293 571 245 655 245 776 c 0
 245 913 370 1040 634 1040 c 0
 749 1040 858 1028 944 1019 c 1
 921 899 l 1
 834 908 713 920 611 920 c 0
 427 920 373 842 373 776 c 0
 373 713 392 671 437 652 c 0
 522 609 623 634 726 574 c 0
 808 526 848 433 848 308 c 0
 848 145 709 -16 424 -16 c 0
EndSplineSet
Validated: 1
Layer: 2
Position2: "Single Positioning lookup 21 subtable" dx=-128 dy=0 dh=0 dv=0
Position2: "Single Positioning lookup 20 subtable" dx=-64 dy=0 dh=0 dv=0
Position2: "Single Positioning lookup 19 subtable" dx=0 dy=0 dh=0 dv=0
Position2: "Single Positioning lookup 12 subtable" dx=-128 dy=0 dh=0 dv=0
Position2: "Single Positioning lookup 9 subtable" dx=0 dy=0 dh=0 dv=0
Position2: "Single Positioning lookup 7 subtable" dx=128 dy=0 dh=0 dv=0
Position2: "Single Positioning lookup 6 subtable" dx=64 dy=0 dh=0 dv=0
Position2: "Single Positioning lookup 5 subtable" dx=0 dy=0 dh=0 dv=0
Position2: "Single Positioning lookup 2 subtable" dx=128 dy=0 dh=0 dv=0
EndChar
StartChar: t
Encoding: 116 116 20
GlifName: t
Width: 1024
VWidth: 0
Flags: W
HStem: -16 120<476.061 755.844> 898 126<187 419 571 931>
VStem: 296 131<152.466 435.828>
LayerCount: 3
Back
Fore
SplineSet
427 246 m 0
 427 149 491 104 594 104 c 0
 658 104 726 112 779 119 c 1
 756 -1 l 1
 697 -9 632 -16 561 -16 c 0
 402 -16 296 70 296 220 c 0
 296 267 305 315 314 360 c 2
 419 898 l 1
 163 898 l 1
 187 1024 l 1
 443 1024 l 1
 493 1280 l 1
 621 1280 l 1
 571 1024 l 1
 955 1024 l 1
 931 898 l 1
 547 898 l 1
 444 370 l 2
 435 323 427 282 427 246 c 0
EndSplineSet
Validated: 1
Layer: 2
Position2: "Single Positioning lookup 21 subtable" dx=-128 dy=0 dh=0 dv=0
Position2: "Single Positioning lookup 20 subtable" dx=-64 dy=0 dh=0 dv=0
Position2: "Single Positioning lookup 19 subtable" dx=0 dy=0 dh=0 dv=0
Position2: "Single Positioning lookup 12 subtable" dx=-128 dy=0 dh=0 dv=0
Position2: "Single Positioning lookup 9 subtable" dx=0 dy=0 dh=0 dv=0
Position2: "Single Positioning lookup 7 subtable" dx=128 dy=0 dh=0 dv=0
Position2: "Single Positioning lookup 6 subtable" dx=64 dy=0 dh=0 dv=0
Position2: "Single Positioning lookup 5 subtable" dx=0 dy=0 dh=0 dv=0
Position2: "Single Positioning lookup 2 subtable" dx=128 dy=0 dh=0 dv=0
EndChar
StartChar: u
Encoding: 117 117 21
GlifName: u
Width: 1024
VWidth: 0
Flags: W
HStem: -16 120<347.207 527.059> 0 21G<628 759.887> 1004 20G<311.104 443 823.104 955>
VStem: 169 130<152.659 438.859>
AnchorPoint: "top" 635 1024 basechar 0
LayerCount: 3
Back
Fore
SplineSet
299 248 m 0xb0
 299 157 361 104 456 104 c 0xb0
 520 104 576 129 615 166 c 0
 670 218 682 280 699 367 c 2
 827 1024 l 1
 955 1024 l 1
 756 0 l 1
 628 0 l 1x70
 650 112 l 1
 640 112 l 1
 576 35 489 -16 413 -16 c 0
 264 -16 169 80 169 223 c 0
 169 271 178 319 187 367 c 2
 315 1024 l 1
 443 1024 l 1
 315 367 l 2
 306 321 299 282 299 248 c 0xb0
EndSplineSet
Validated: 1
Layer: 2
Position2: "Single Positioning lookup 21 subtable" dx=-128 dy=0 dh=0 dv=0
Position2: "Single Positioning lookup 20 subtable" dx=-64 dy=0 dh=0 dv=0
Position2: "Single Positioning lookup 19 subtable" dx=0 dy=0 dh=0 dv=0
Position2: "Single Positioning lookup 12 subtable" dx=-128 dy=0 dh=0 dv=0
Position2: "Single Positioning lookup 9 subtable" dx=0 dy=0 dh=0 dv=0
Position2: "Single Positioning lookup 7 subtable" dx=128 dy=0 dh=0 dv=0
Position2: "Single Positioning lookup 6 subtable" dx=64 dy=0 dh=0 dv=0
Position2: "Single Positioning lookup 5 subtable" dx=0 dy=0 dh=0 dv=0
Position2: "Single Positioning lookup 2 subtable" dx=128 dy=0 dh=0 dv=0
EndChar
StartChar: v
Encoding: 118 118 1
GlifName: v
Width: 1024
VWidth: 0
Flags: W
HStem: 0 21G<330 605> 1004 20G<263 394 819.5 1007>
VStem: 263 131<647.226 1024>
LayerCount: 3
Back
Fore
SplineSet
474 168 m 1
 639 441 763 730 876 1024 c 1
 1007 1024 l 1
 872 675 716 325 494 0 c 1
 378 0 l 1
 282 325 263 672 263 1024 c 1
 394 1024 l 1
 394 727 406 440 464 168 c 1
 474 168 l 1
EndSplineSet
Validated: 1
Layer: 2
Position2: "Single Positioning lookup 21 subtable" dx=-128 dy=0 dh=0 dv=0
Position2: "Single Positioning lookup 20 subtable" dx=-64 dy=0 dh=0 dv=0
Position2: "Single Positioning lookup 19 subtable" dx=0 dy=0 dh=0 dv=0
Position2: "Single Positioning lookup 12 subtable" dx=-128 dy=0 dh=0 dv=0
Position2: "Single Positioning lookup 9 subtable" dx=0 dy=0 dh=0 dv=0
Position2: "Single Positioning lookup 7 subtable" dx=128 dy=0 dh=0 dv=0
Position2: "Single Positioning lookup 6 subtable" dx=64 dy=0 dh=0 dv=0
Position2: "Single Positioning lookup 5 subtable" dx=0 dy=0 dh=0 dv=0
Position2: "Single Positioning lookup 2 subtable" dx=128 dy=0 dh=0 dv=0
EndChar
StartChar: w
Encoding: 119 119 22
GlifName: w
Width: 1024
VWidth: 0
Flags: W
HStem: 0 21G<112.5 281.302 598.467 836.5> 1004 20G<145.5 296 944 1102>
VStem: 101 120<142.859 698.477> 974 128<880.42 1024>
LayerCount: 3
Back
Fore
SplineSet
523 767 m 1
 647 767 l 1
 689 140 l 1
 699 140 l 1
 823 413 914 717 974 1024 c 1
 1102 1024 l 1
 1035 680 919 339 754 0 c 1
 600 0 l 1
 555 587 l 1
 545 587 l 1
 272 0 l 1
 118 0 l 1
 107 113 101 226 101 340 c 0
 101 567 123 795 168 1024 c 1
 296 1024 l 1
 249 780 221 538 221 312 c 0
 221 254 223 196 227 140 c 1
 237 140 l 1
 523 767 l 1
EndSplineSet
Validated: 1
Layer: 2
Substitution2: "'ss10' Style Set 10 lookup 9 subtable" w.straight
Position2: "Single Positioning lookup 23 subtable" dx=-128 dy=0 dh=0 dv=0
Position2: "Single Positioning lookup 22 subtable" dx=0 dy=0 dh=0 dv=0
EndChar
StartChar: y
Encoding: 121 121 24
GlifName: y
Width: 1024
VWidth: 0
Flags: W
HStem: -272 120<86 272.184> 1004 20G<263 407.5 823.5 1008>
VStem: 263 131<753.111 1024>
AnchorPoint: "top" 635 1024 basechar 0
LayerCount: 3
Back
Fore
SplineSet
522 240 m 1
 652 498 770 757 877 1024 c 1
 1008 1024 l 1
 874 698 754 442 552 55 c 0
 499 -47 445 -130 368 -193 c 0
 310 -239 225 -272 63 -272 c 1
 86 -152 l 1
 171 -152 250 -132 290 -111 c 0
 361 -75 391 -12 464 128 c 1
 412 128 l 1
 337 413 296 720 263 1024 c 1
 394 1024 l 1
 421 754 455 486 512 240 c 1
 522 240 l 1
EndSplineSet
Validated: 1
Layer: 2
Substitution2: "'ss11' Style Set 11 lookup 10 subtable" y.long
Position2: "Single Positioning lookup 21 subtable" dx=-128 dy=0 dh=0 dv=0
Position2: "Single Positioning lookup 20 subtable" dx=-64 dy=0 dh=0 dv=0
Position2: "Single Positioning lookup 19 subtable" dx=0 dy=0 dh=0 dv=0
Position2: "Single Positioning lookup 12 subtable" dx=-128 dy=0 dh=0 dv=0
Position2: "Single Positioning lookup 9 subtable" dx=0 dy=0 dh=0 dv=0
Position2: "Single Positioning lookup 7 subtable" dx=128 dy=0 dh=0 dv=0
Position2: "Single Positioning lookup 6 subtable" dx=64 dy=0 dh=0 dv=0
Position2: "Single Positioning lookup 5 subtable" dx=0 dy=0 dh=0 dv=0
Position2: "Single Positioning lookup 2 subtable" dx=128 dy=0 dh=0 dv=0
EndChar
StartChar: z
Encoding: 122 122 25
GlifName: z
Width: 1024
VWidth: 0
Flags: W
HStem: 0 120<284 756> 904 120<335 767>
LayerCount: 3
Back
Fore
SplineSet
312 904 m 1
 335 1024 l 1
 935 1024 l 1
 918 934 l 1
 286 130 l 1
 284 120 l 1
 779 120 l 1
 756 0 l 1
 116 0 l 1
 134 92 l 1
 765 894 l 1
 767 904 l 1
 312 904 l 1
EndSplineSet
Validated: 1
Layer: 2
Position2: "Single Positioning lookup 21 subtable" dx=-128 dy=0 dh=0 dv=0
Position2: "Single Positioning lookup 20 subtable" dx=-64 dy=0 dh=0 dv=0
Position2: "Single Positioning lookup 19 subtable" dx=0 dy=0 dh=0 dv=0
Position2: "Single Positioning lookup 12 subtable" dx=-128 dy=0 dh=0 dv=0
Position2: "Single Positioning lookup 9 subtable" dx=0 dy=0 dh=0 dv=0
Position2: "Single Positioning lookup 7 subtable" dx=128 dy=0 dh=0 dv=0
Position2: "Single Positioning lookup 6 subtable" dx=64 dy=0 dh=0 dv=0
Position2: "Single Positioning lookup 5 subtable" dx=0 dy=0 dh=0 dv=0
Position2: "Single Positioning lookup 2 subtable" dx=128 dy=0 dh=0 dv=0
EndChar
StartChar: braceleft
Encoding: 123 123 91
GlifName: braceleft
Width: 1024
VWidth: 0
Flags: W
HStem: -144 120<598.83 728> 643 120<264 395.843> 1430 120<866.667 1034>
VStem: 396 130<38.1908 296.188> 466 130<322.812 582.037>
CounterMasks: 1 e0
LayerCount: 3
Back
Fore
SplineSet
466 507 m 0xe8
 466 605 346 643 241 643 c 1
 264 763 l 1
 362 763 478 797 527 870 c 0
 547 899 553 932 564 990 c 2
 606 1203 l 2
 619 1271 629 1318 664 1372 c 0
 742 1490 905 1550 1057 1550 c 1
 1034 1430 l 1
 936 1430 820 1396 771 1323 c 0
 751 1294 745 1261 734 1203 c 2
 692 990 l 2
 679 922 670 875 635 821 c 0
 601 769 543 732 479 708 c 1
 477 698 l 1
 548 666 596 620 596 528 c 0xe8
 596 494 589 459 581 416 c 2
 539 203 l 2
 531 163 526 135 526 112 c 0
 526 12 650 -24 751 -24 c 1
 728 -144 l 1
 562 -144 396 -74 396 91 c 0xf0
 396 125 403 160 411 203 c 2
 453 416 l 2
 461 456 466 484 466 507 c 0xe8
EndSplineSet
Validated: 1
Layer: 2
EndChar
StartChar: bar
Encoding: 124 124 92
GlifName: bar
Width: 1024
VWidth: 0
Flags: W
VStem: 347 451
LayerCount: 3
Back
Fore
SplineSet
798 1536 m 1
 475 -128 l 1
 347 -128 l 1
 671 1536 l 1
 798 1536 l 1
EndSplineSet
Validated: 1
Layer: 2
Substitution2: "Single Substitution lookup 88 subtable" bar2
Substitution2: "Single Substitution lookup 87 subtable" bar1
EndChar
StartChar: braceright
Encoding: 125 125 93
GlifName: braceright
Width: 1024
VWidth: 0
Flags: W
HStem: -144 120<111 278.333> 643 120<749.157 881> 1430 120<417 547.459>
VStem: 549 130<824.184 1083.19> 619 130<1109.81 1366.62>
CounterMasks: 1 e0
LayerCount: 3
Back
Fore
SplineSet
679 899 m 0xf0
 679 802 799 763 904 763 c 1
 881 643 l 1
 783 643 667 609 618 536 c 0
 598 507 592 474 581 416 c 2
 539 203 l 2
 526 135 517 88 482 34 c 0
 404 -84 240 -144 88 -144 c 1
 111 -24 l 1
 209 -24 325 10 374 83 c 0
 394 112 400 145 411 203 c 2
 453 416 l 2
 466 484 476 531 511 585 c 0
 545 637 603 674 667 698 c 1
 669 708 l 1
 599 740 549 786 549 878 c 0xf0
 549 912 556 947 564 990 c 2
 606 1203 l 2
 614 1243 619 1271 619 1294 c 0
 619 1391 499 1430 394 1430 c 1
 417 1550 l 1
 586 1550 749 1476 749 1315 c 0xe8
 749 1281 742 1246 734 1203 c 2
 692 990 l 2
 684 950 679 922 679 899 c 0xf0
EndSplineSet
Validated: 1
Layer: 2
EndChar
StartChar: tilde
Encoding: 126 126 94
GlifName: tilde
Width: 1024
VWidth: 0
Flags: W
HStem: 508 120<689.148 850.858> 780 120<301.142 462.852>
VStem: 91 128<512 644.569> 933 128<763.431 896>
LayerCount: 3
Back
Fore
SplineSet
219 512 m 1
 91 512 l 1
 134 731 203 900 413 900 c 0
 640 900 621 628 762 628 c 0
 875 628 900 724 933 896 c 1
 1061 896 l 1
 1018 677 949 508 739 508 c 0
 512 508 531 780 390 780 c 0
 277 780 252 684 219 512 c 1
EndSplineSet
Validated: 1
Layer: 2
EndChar
StartChar: exclamdown
Encoding: 161 161 100
GlifName: exclamdown
Width: 1024
VWidth: 0
Flags: W
HStem: 880 288<559.954 710.185>
VStem: 488 295<954.088 1093.91>
LayerCount: 3
Back
Fore
SplineSet
488 992 m 0
 488 1077 553 1168 663 1168 c 0
 737 1168 783 1123 783 1056 c 0
 783 971 717 880 607 880 c 0
 533 880 488 925 488 992 c 0
624 640 m 1
 460 -256 l 1
 312 -256 l 1
 496 640 l 1
 624 640 l 1
EndSplineSet
Validated: 1
Layer: 2
EndChar
StartChar: cent
Encoding: 162 162 526
GlifName: cent
Width: 1024
VWidth: 0
Flags: W
HStem: -16 120<497 753.37>
VStem: 154 130<179.623 529.52>
LayerCount: 3
Back
Fore
SplineSet
284 308 m 0
 284 180 348 104 476 104 c 0
 564 104 669 113 781 130 c 1
 758 9 l 1
 659 -5 575 -13 497 -16 c 1
 450 -256 l 1
 322 -256 l 1
 371 -7 l 1
 225 23 154 132 154 287 c 0
 154 355 168 430 184 512 c 0
 207 630 229 733 284 824 c 0
 343 923 442 1008 572 1031 c 1
 621 1280 l 1
 749 1280 l 1
 702 1040 l 1
 783 1038 849 1032 935 1022 c 1
 912 902 l 1
 802 916 715 920 631 920 c 0
 524 920 449 865 395 781 c 0
 349 709 331 611 312 512 c 0
 298 441 284 369 284 308 c 0
EndSplineSet
Validated: 1
Layer: 2
EndChar
StartChar: sterling
Encoding: 163 163 433
GlifName: sterling
Width: 1024
VWidth: 0
Flags: W
HStem: 0 120<11 139 267 756> 648 120<137 242 393 754> 1304 120<602.973 978.001>
LayerCount: 3
Back
Fore
SplineSet
139 120 m 1
 242 648 l 1
 114 648 l 1
 137 768 l 1
 265 768 l 1
 290 896 l 2
 314 1017 336 1122 392 1215 c 0
 461 1330 586 1424 755 1424 c 0
 832 1424 910 1418 1000 1409 c 1
 977 1289 l 1
 886 1298 802 1304 731 1304 c 0
 630 1304 556 1256 504 1173 c 0
 458 1100 438 998 418 896 c 2
 393 768 l 1
 777 768 l 1
 754 648 l 1
 370 648 l 1
 267 120 l 1
 779 120 l 1
 756 0 l 1
 -12 0 l 1
 11 120 l 1
 139 120 l 1
EndSplineSet
Validated: 1
Layer: 2
EndChar
StartChar: currency
Encoding: 164 164 529
GlifName: currency
Width: 1024
VWidth: 0
Flags: W
HStem: 244 120<392.229 635.328> 788 120<460.805 703.486>
VStem: 205 130<420.319 655.363> 761 130<496.819 731.681>
LayerCount: 3
Back
Fore
SplineSet
507 364 m 0
 676 364 761 505 761 628 c 0
 761 729 695 788 589 788 c 0
 421 788 335 647 335 524 c 0
 335 423 401 364 507 364 c 0
205 505 m 0
 205 609 247 701 306 768 c 1
 189 912 l 1
 299 994 l 1
 411 854 l 1
 471 888 539 908 612 908 c 0
 685 908 747 888 793 854 c 1
 959 994 l 1
 1037 912 l 1
 864 768 l 1
 882 732 891 692 891 647 c 0
 891 544 849 451 790 384 c 1
 907 240 l 1
 797 158 l 1
 685 298 l 1
 625 264 556 244 483 244 c 0
 410 244 349 264 303 298 c 1
 137 158 l 1
 59 240 l 1
 232 384 l 1
 214 420 205 460 205 505 c 0
EndSplineSet
Validated: 1
Layer: 2
EndChar
StartChar: yen
Encoding: 165 165 430
GlifName: yen
Width: 1024
VWidth: 0
Flags: W
HStem: 0 21G<372 503.906> 384 120<214 447 598 831> 648 120<265 405 765 882> 1388 20G<247 379 990 1173>
VStem: 247 125<1130.41 1408>
LayerCount: 3
Back
Fore
SplineSet
247 1408 m 1
 372 1408 l 1
 386 1145 437 921 565 740 c 1
 595 740 l 1
 793 921 932 1145 1048 1408 c 1
 1173 1408 l 1
 1080 1185 955 970 765 768 c 1
 905 768 l 1
 882 648 l 1
 643 648 l 1
 622 630 l 1
 598 504 l 1
 854 504 l 1
 831 384 l 1
 575 384 l 1
 500 0 l 1
 372 0 l 1
 447 384 l 1
 191 384 l 1
 214 504 l 1
 470 504 l 1
 494 630 l 1
 481 648 l 1
 242 648 l 1
 265 768 l 1
 405 768 l 1
 293 970 254 1185 247 1408 c 1
EndSplineSet
Validated: 1
Layer: 2
EndChar
StartChar: brokenbar
Encoding: 166 166 314
GlifName: brokenbar
Width: 1024
VWidth: 0
Flags: W
HStem: 1024 21G<571 702.867>
VStem: 347 451
LayerCount: 3
Back
Fore
SplineSet
575 384 m 1
 475 -128 l 1
 347 -128 l 1
 447 384 l 1
 575 384 l 1
798 1536 m 1
 699 1024 l 1
 571 1024 l 1
 671 1536 l 1
 798 1536 l 1
EndSplineSet
Validated: 1
Layer: 2
EndChar
StartChar: section
Encoding: 167 167 432
GlifName: section
Width: 1024
VWidth: 0
Flags: W
HStem: -272 120<133.958 532.513> 1302 120<561.697 966.688>
VStem: 179 130<430.645 650.657> 301 129<961.719 1173.63> 665 129<-26.7732 191.12> 786 130<498.335 720.421>
LayerCount: 3
Back
Fore
SplineSet
516 368 m 0xe4
 702 368 786 510 786 626 c 0
 786 735 699 780 577 780 c 0
 395 780 309 641 309 525 c 0
 309 411 407 368 516 368 c 0xe4
299 289 m 0
 224 333 179 410 179 506 c 0xe8
 179 646 267 773 406 843 c 1
 340 890 301 960 301 1044 c 0
 301 1208 446 1422 730 1422 c 0
 818 1422 917 1407 987 1394 c 1
 963 1271 l 1
 896 1285 790 1302 707 1302 c 0
 506 1302 430 1160 430 1058 c 0
 430 1003 455 964 487 936 c 0
 561 873 695 920 798 859 c 0
 867 818 916 743 916 643 c 0xd4
 916 501 828 375 689 306 c 1
 752 261 794 192 794 105 c 0
 794 -89 619 -272 365 -272 c 0
 265 -272 154 -251 71 -233 c 1
 95 -110 l 1
 173 -129 294 -152 388 -152 c 0
 590 -152 665 -12 665 91 c 0xc8
 665 153 636 199 594 223 c 0
 514 268 394 234 299 289 c 0
EndSplineSet
Validated: 1
Layer: 2
EndChar
StartChar: dieresis
Encoding: 168 168 315
GlifName: dieresis
Width: 1024
VWidth: 0
Flags: W
HStem: 1136 224<388.179 520.821 836.179 968.821>
VStem: 340 229<1183.76 1312.24> 788 229<1183.76 1312.24>
LayerCount: 3
Back
Fore
SplineSet
788 1223 m 0
 788 1285 836 1360 924 1360 c 0
 981 1360 1017 1325 1017 1273 c 0
 1017 1211 969 1136 881 1136 c 0
 824 1136 788 1171 788 1223 c 0
340 1223 m 0
 340 1285 388 1360 476 1360 c 0
 533 1360 569 1325 569 1273 c 0
 569 1211 521 1136 433 1136 c 0
 376 1136 340 1171 340 1223 c 0
EndSplineSet
Validated: 1
Layer: 2
EndChar
StartChar: copyright
Encoding: 169 169 512
GlifName: copyright
Width: 1024
VWidth: 0
Flags: W
HStem: 113 82<320.527 638.332> 374 120<461.252 684.632> 914 120<531.816 778.342> 1213 82<507.532 826.494>
VStem: 86 90<343.542 750.812> 327 129<500.188 758.131> 970 90<657.188 1062.95>
LayerCount: 3
Back
Fore
SplineSet
456 559 m 0
 456 507 481 494 531 494 c 0
 583 494 655 508 710 526 c 1
 686 400 l 1
 630 386 572 374 508 374 c 0
 391 374 327 428 327 540 c 0
 327 590 338 647 350 708 c 0
 361 763 378 853 412 912 c 0
 454 985 528 1034 637 1034 c 0
 690 1034 756 1021 803 1005 c 1
 778 875 l 1
 733 896 676 913 612 914 c 0
 568 914 544 904 524 871 c 0
 502 837 488 758 478 708 c 0
 465 642 456 593 456 559 c 0
970 891 m 0
 970 1080 882 1213 672 1213 c 0
 495 1213 365 1114 290 980 c 0
 220 854 176 652 176 517 c 0
 176 325 266 195 474 195 c 0
 651 195 780 294 855 428 c 0
 925 554 970 756 970 891 c 0
688 1295 m 0
 940 1295 1060 1133 1060 907 c 0
 1060 772 1016 547 934 402 c 0
 842 238 675 113 458 113 c 0
 209 113 86 271 86 501 c 0
 86 636 130 861 212 1006 c 0
 304 1170 471 1295 688 1295 c 0
EndSplineSet
Validated: 1
Layer: 2
EndChar
StartChar: ordfeminine
Encoding: 170 170 525
GlifName: ordfeminine
Width: 1024
VWidth: 0
Flags: W
HStem: 752 120<412.929 553.253> 1152 120<454.734 689> 1419 21G<385.802 419> 1432 120<405.689 709.876>
VStem: 260 130<893.555 1083.73> 724 130<1273.52 1416.58>
LayerCount: 3
Back
Fore
SplineSet
680 1106 m 2xcc
 689 1152 l 1
 573 1152 l 2
 541 1152 514 1150 495 1143 c 0
 439 1124 390 1058 390 977 c 0
 390 918 423 872 484 872 c 0
 615 872 657 989 680 1106 c 2xcc
632 1552 m 0xdc
 780 1552 854 1486 854 1370 c 0
 854 1341 849 1314 844 1290 c 2
 742 768 l 1
 614 768 l 1
 627 835 l 1
 617 835 l 1
 562 783 512 752 438 752 c 0
 329 752 260 840 260 954 c 0
 260 1102 361 1216 470 1254 c 0
 518 1271 561 1272 596 1272 c 2
 712 1272 l 1
 718 1301 724 1331 724 1353 c 0
 724 1410 689 1432 608 1432 c 0xdc
 532 1432 456 1424 382 1419 c 1xec
 405 1540 l 1
 480 1545 552 1552 632 1552 c 0xdc
EndSplineSet
Validated: 1
Layer: 2
EndChar
StartChar: guillemotleft
Encoding: 171 171 313
GlifName: guillemotleft
Width: 1024
VWidth: 0
Flags: W
HStem: 1019 20G<492.166 537.765 876.166 921.765>
LayerCount: 3
Back
Fore
SplineSet
226 581 m 1
 224 571 l 1
 448 181 l 1
 331 113 l 1
 93 542 l 1
 107 610 l 1
 511 1039 l 1
 602 971 l 1
 226 581 l 1
610 581 m 1
 608 571 l 1
 832 181 l 1
 715 113 l 1
 477 542 l 1
 491 610 l 1
 895 1039 l 1
 986 971 l 1
 610 581 l 1
EndSplineSet
Validated: 1
Layer: 2
EndChar
StartChar: uni00AD
Encoding: 173 173 96
GlifName: uni00A_D_
Width: 1024
VWidth: 0
Flags: W
HStem: 516 120<140 1012>
LayerCount: 3
Back
Fore
SplineSet
140 636 m 1
 1036 636 l 1
 1012 516 l 1
 116 516 l 1
 140 636 l 1
EndSplineSet
Validated: 1
Layer: 2
EndChar
StartChar: registered
Encoding: 174 174 513
GlifName: registered
Width: 1024
VWidth: 0
Flags: W
HStem: 113 82<320.527 638.332> 640 120<520 582> 904 120<548 681.442> 1213 82<507.532 826.494>
VStem: 86 90<343.542 750.812> 682 129<773.839 902.517> 970 90<657.188 1062.95>
LayerCount: 3
Back
Fore
SplineSet
970 891 m 0
 970 1080 882 1213 672 1213 c 0
 495 1213 365 1114 290 980 c 0
 220 854 176 652 176 517 c 0
 176 325 266 195 474 195 c 0
 651 195 780 294 855 428 c 0
 925 554 970 756 970 891 c 0
688 1295 m 0
 940 1295 1060 1133 1060 907 c 0
 1060 772 1016 547 934 402 c 0
 842 238 675 113 458 113 c 0
 209 113 86 271 86 501 c 0
 86 636 130 861 212 1006 c 0
 304 1170 471 1295 688 1295 c 0
603 760 m 2
 660 760 682 802 682 864 c 0
 682 891 669 904 631 904 c 2
 548 904 l 1
 520 760 l 1
 603 760 l 2
811 882 m 0
 811 784 763 709 702 671 c 1
 744 384 l 1
 609 384 l 1
 582 640 l 1
 496 640 l 1
 447 384 l 1
 319 384 l 1
 443 1024 l 1
 654 1024 l 2
 756 1024 811 971 811 882 c 0
EndSplineSet
Validated: 1
Layer: 2
EndChar
StartChar: macron
Encoding: 175 175 318
GlifName: macron
Width: 1024
VWidth: 0
Flags: W
HStem: 1284 120<389 1006>
LayerCount: 3
Back
Fore
SplineSet
389 1404 m 1
 1029 1404 l 1
 1006 1284 l 1
 366 1284 l 1
 389 1404 l 1
EndSplineSet
Validated: 1
Layer: 2
EndChar
StartChar: degree
Encoding: 176 176 316
GlifName: degree
Width: 1024
VWidth: 0
Flags: W
HStem: 1068 100<598.106 769.782> 1424 100<635.927 807.54>
VStem: 470 109<1188.18 1365.65> 826 109<1226.35 1404.49>
LayerCount: 3
Back
Fore
SplineSet
747 1524 m 0
 865 1524 935 1448 935 1344 c 0
 935 1186 804 1068 659 1068 c 0
 541 1068 470 1144 470 1248 c 0
 470 1406 602 1524 747 1524 c 0
678 1168 m 0
 755 1168 826 1228 826 1330 c 0
 826 1391 788 1424 728 1424 c 0
 651 1424 579 1364 579 1262 c 0
 579 1201 618 1168 678 1168 c 0
EndSplineSet
Validated: 1
Layer: 2
EndChar
StartChar: uni00B2
Encoding: 178 178 508
GlifName: uni00B_2
Width: 1024
VWidth: 0
Flags: W
HStem: 768 120<421 777> 1432 120<414.583 747.142>
VStem: 771 130<1251.31 1406.78>
LayerCount: 3
Back
Fore
SplineSet
412 1525 m 1
 488 1540 571 1552 661 1552 c 0
 827 1552 901 1467 901 1363 c 0
 901 1187 737 1091 624 1039 c 0
 541 1001 461 967 423 898 c 1
 421 888 l 1
 801 888 l 1
 777 768 l 1
 259 768 l 1
 271 828 l 2
 303 991 443 1085 572 1141 c 0
 655 1177 771 1233 771 1342 c 0
 771 1381 749 1432 637 1432 c 0
 554 1432 462 1419 389 1405 c 1
 412 1525 l 1
EndSplineSet
Validated: 1
Layer: 2
EndChar
StartChar: uni00B3
Encoding: 179 179 509
GlifName: uni00B_3
Width: 1024
VWidth: 0
Flags: W
HStem: 752 120<286.689 653.16> 1092 120<480 681.875> 1415 21G<404.833 435> 1432 120<425.748 741.717>
VStem: 705 130<922.431 1066.89> 762 130<1262.07 1409.7>
LayerCount: 3
Back
Fore
SplineSet
758 1150 m 1xd4
 813 1118 835 1071 835 1020 c 0
 835 876 696 752 504 752 c 0
 415 752 337 759 265 767 c 1
 288 887 l 1
 360 880 454 872 528 872 c 0
 660 872 705 941 705 1003 c 0xd8
 705 1049 670 1078 625 1087 c 0
 600 1092 569 1092 534 1092 c 2
 456 1092 l 1
 480 1212 l 1
 558 1212 l 2
 592 1212 621 1213 647 1218 c 0
 706 1230 762 1272 762 1346 c 0
 762 1403 716 1432 634 1432 c 0xd4
 561 1432 469 1422 401 1415 c 1xe4
 424 1535 l 1
 496 1544 573 1552 658 1552 c 0
 806 1552 892 1481 892 1369 c 0
 892 1282 850 1208 759 1160 c 1
 758 1150 l 1xd4
EndSplineSet
Validated: 1
Layer: 2
EndChar
StartChar: paragraph
Encoding: 182 182 311
GlifName: paragraph
Width: 1024
VWidth: 0
Flags: W
HStem: 0 21G<372 503.882 628 759.892> 1288 120<750 878>
LayerCount: 3
Back
Fore
SplineSet
750 1288 m 1
 500 0 l 1
 372 0 l 1
 499 655 l 1
 374 689 291 791 291 939 c 0
 291 1178 468 1353 650 1395 c 0
 708 1408 760 1408 837 1408 c 2
 1030 1408 l 1
 756 0 l 1
 628 0 l 1
 878 1288 l 1
 750 1288 l 1
EndSplineSet
Validated: 1
Layer: 2
EndChar
StartChar: periodcentered
Encoding: 183 183 95
GlifName: periodcentered
Width: 1024
VWidth: 0
Flags: W
HStem: 560 288<434.168 584.185>
VStem: 362 295<635.939 772.92>
LayerCount: 3
Back
Fore
SplineSet
362 672 m 0
 362 759 429 848 537 848 c 0
 611 848 657 803 657 736 c 0
 657 651 590 560 481 560 c 0
 407 560 362 605 362 672 c 0
EndSplineSet
Validated: 1
Layer: 2
EndChar
StartChar: cedilla
Encoding: 184 184 309
GlifName: cedilla
Width: 1024
VWidth: 0
Flags: W
HStem: -400 120<88.9374 311.681> -20 20G<395.19 527>
VStem: 69 458
LayerCount: 3
Back
Fore
SplineSet
507 -105 m 2
 495 -165 482 -235 416 -305 c 0
 363 -362 283 -400 193 -400 c 0
 158 -400 114 -393 69 -383 c 1
 92 -260 l 1
 138 -271 183 -280 217 -280 c 0
 264 -280 299 -263 325 -235 c 0
 360 -198 369 -155 379 -105 c 2
 399 0 l 1
 527 0 l 1
 507 -105 l 2
EndSplineSet
Validated: 1
Layer: 2
EndChar
StartChar: uni00B9
Encoding: 185 185 507
GlifName: uni00B_9
Width: 1024
VWidth: 0
Flags: W
VStem: 358 440
LayerCount: 3
Back
Fore
SplineSet
691 1536 m 1
 798 1536 l 1
 649 768 l 1
 521 768 l 1
 640 1378 l 1
 630 1378 l 1
 358 1246 l 1
 384 1380 l 1
 691 1536 l 1
EndSplineSet
Validated: 1
Layer: 2
EndChar
StartChar: ordmasculine
Encoding: 186 186 524
GlifName: ordmasculine
Width: 1024
VWidth: 0
Flags: W
HStem: 752 120<436.741 613.113> 1432 120<536.484 709.533>
VStem: 280 129<899.137 1219.52> 741 129<1084.48 1403.88>
LayerCount: 3
Back
Fore
SplineSet
653 1552 m 0
 831 1552 870 1429 870 1313 c 0
 870 1250 858 1189 851 1152 c 0
 831 1048 772 752 497 752 c 0
 319 752 280 875 280 991 c 0
 280 1054 292 1115 299 1152 c 0
 319 1256 378 1552 653 1552 c 0
427 1152 m 0
 418 1105 409 1053 409 1008 c 0
 409 932 433 872 520 872 c 0
 659 872 698 1025 723 1152 c 0
 732 1199 741 1251 741 1296 c 0
 741 1372 716 1432 629 1432 c 0
 490 1432 452 1279 427 1152 c 0
EndSplineSet
Validated: 1
Layer: 2
EndChar
StartChar: guillemotright
Encoding: 187 187 312
GlifName: guillemotright
Width: 1024
VWidth: 0
Flags: W
HStem: 1019 20G<346.588 392.096 730.588 776.096>
LayerCount: 3
Back
Fore
SplineSet
872 581 m 1
 648 971 l 1
 765 1039 l 1
 1003 610 l 1
 989 542 l 1
 585 113 l 1
 494 181 l 1
 870 571 l 1
 872 581 l 1
488 581 m 1
 264 971 l 1
 381 1039 l 1
 619 610 l 1
 605 542 l 1
 201 113 l 1
 110 181 l 1
 486 571 l 1
 488 581 l 1
EndSplineSet
Validated: 1
Layer: 2
EndChar
StartChar: onehalf
Encoding: 189 189 498
GlifName: onehalf
Width: 1024
VWidth: 0
Flags: W
HStem: -128 120<503 860> 536 120<497.583 829.369>
VStem: 853 130<355.313 510.777>
LayerCount: 3
Back
Fore
SplineSet
495 629 m 1
 571 644 653 656 743 656 c 0
 909 656 983 571 983 467 c 0
 983 291 820 195 707 143 c 0
 624 105 543 71 505 2 c 1
 503 -8 l 1
 883 -8 l 1
 860 -128 l 1
 342 -128 l 1
 354 -68 l 2
 386 95 526 189 655 245 c 0
 738 281 853 337 853 446 c 0
 853 485 832 536 720 536 c 0
 637 536 545 523 472 509 c 1
 495 629 l 1
563 1536 m 1
 671 1536 l 1
 521 768 l 1
 393 768 l 1
 512 1378 l 1
 502 1378 l 1
 230 1246 l 1
 256 1380 l 1
 563 1536 l 1
EndSplineSet
Validated: 1
Layer: 2
EndChar
StartChar: threequarters
Encoding: 190 190 506
GlifName: threequarters
Width: 1024
VWidth: 0
Flags: W
HStem: 128 120<551 781> 752 120<156.689 523.16> 1092 120<350 551.875> 1415 21G<274.833 305> 1432 120<295.748 611.717>
VStem: 575 130<922.431 1066.89> 632 130<1262.07 1409.7>
LayerCount: 3
Back
Fore
SplineSet
628 1150 m 1xea
 683 1118 705 1071 705 1020 c 0
 705 876 566 752 374 752 c 0
 285 752 207 759 135 767 c 1
 158 887 l 1
 230 880 324 872 398 872 c 0
 530 872 575 941 575 1003 c 0xec
 575 1049 540 1078 495 1087 c 0
 470 1092 439 1092 404 1092 c 2
 326 1092 l 1
 350 1212 l 1
 428 1212 l 2
 462 1212 491 1213 517 1218 c 0
 576 1230 632 1272 632 1346 c 0
 632 1403 586 1432 504 1432 c 0xea
 431 1432 339 1422 271 1415 c 1xf2
 294 1535 l 1
 366 1544 443 1552 528 1552 c 0
 676 1552 762 1481 762 1369 c 0
 762 1282 720 1208 629 1160 c 1
 628 1150 l 1xea
859 -128 m 1
 731 -128 l 1
 781 128 l 1
 397 128 l 1
 411 200 l 1
 574 640 l 1
 695 640 l 1
 551 248 l 1
 804 248 l 1
 880 640 l 1
 1008 640 l 1
 859 -128 l 1
EndSplineSet
Validated: 1
Layer: 2
EndChar
StartChar: questiondown
Encoding: 191 191 101
GlifName: questiondown
Width: 1024
VWidth: 0
Flags: W
HStem: -272 120<299.711 671.244> 880 288<559.954 710.185>
VStem: 107 130<-95.8891 144.461> 488 295<952.501 1093.91> 496 128<535.896 640>
LayerCount: 3
Back
Fore
SplineSet
783 1056 m 0xf0
 783 971 719 880 607 880 c 0
 533 880 488 925 488 992 c 0
 488 1077 553 1168 663 1168 c 0
 737 1168 783 1123 783 1056 c 0xf0
624 640 m 1xe8
 607 553 577 460 473 371 c 0
 347 263 237 169 237 2 c 0
 237 -97 301 -152 448 -152 c 0
 532 -152 634 -132 712 -115 c 1
 688 -235 l 1
 607 -253 509 -272 425 -272 c 0
 215 -272 107 -178 107 -20 c 0
 107 195 245 325 393 451 c 0
 473 520 485 582 496 640 c 1
 624 640 l 1xe8
EndSplineSet
Validated: 1
Layer: 2
EndChar
StartChar: Aring
Encoding: 197 197 104
GlifName: A_ring
Width: 1024
VWidth: 0
Flags: W
HStem: 0 21G<-37 116.5 774 915.5> 388 120<273 794> 1279 129<657.74 699.806> 1664 100<655.034 838.98>
VStem: -37 135<0 130.576> 496 109<1422.25 1616> 794 135<6.84301 388 508 879.517> 852 109<1456.54 1649.03>
LayerCount: 3
Back
Fore
SplineSet
773 1764 m 0xfe
 891 1764 961 1688 961 1584 c 0xfd
 961 1469 893 1377 801 1334 c 1
 894 1048 929 746 929 433 c 0
 929 291 922 146 909 0 c 1
 774 0 l 1
 789 136 794 265 794 388 c 1
 228 388 l 1
 185 265 135 136 98 0 c 1
 -37 0 l 1
 103 466 292 914 588 1329 c 1
 530 1359 496 1417 496 1488 c 0
 496 1646 629 1764 773 1764 c 0xfe
797 508 m 1
 785 796 762 1054 690 1279 c 1
 680 1279 l 1
 520 1054 397 796 273 508 c 1
 797 508 l 1
704 1408 m 0
 781 1408 852 1468 852 1570 c 0
 852 1631 814 1664 754 1664 c 0
 677 1664 605 1604 605 1502 c 0
 605 1441 644 1408 704 1408 c 0
EndSplineSet
Validated: 1
Layer: 2
Substitution2: "'ss14' Style Set 14 lookup 13 subtable" Aring.sq
EndChar
StartChar: AE
Encoding: 198 198 105
GlifName: A_E_
Width: 1024
VWidth: 0
Flags: W
HStem: 0 120<651 884> 388 120<222 575> 644 120<777 1009> 1288 120<561.006 750 878 1134>
VStem: -37 135<0 138.932>
LayerCount: 3
Back
Fore
SplineSet
575 388 m 1
 186 388 l 1
 154 278 123 155 98 0 c 1
 -37 0 l 1
 67 496 257 971 531 1408 c 1
 1158 1408 l 1
 1134 1288 l 1
 878 1288 l 1
 777 764 l 1
 1033 764 l 1
 1009 644 l 1
 753 644 l 1
 651 120 l 1
 907 120 l 1
 884 0 l 1
 500 0 l 1
 575 388 l 1
599 508 m 1
 750 1288 l 1
 580 1288 l 1
 444 1060 328 800 222 508 c 1
 599 508 l 1
EndSplineSet
Validated: 1
Layer: 2
EndChar
StartChar: Ccedilla
Encoding: 199 199 106
GlifName: C_cedilla
Width: 1024
VWidth: 0
Flags: W
HStem: -403 120<189.454 412.421> -16 120<357.921 497> 1304 120<572.338 1103.43>
VStem: 72 131<255.265 686.265>
LayerCount: 3
Back
Fore
SplineSet
203 432 m 0
 203 233 285 104 523 104 c 0
 645 104 786 121 911 141 c 1
 888 21 l 1
 805 7 717 -5 626 -11 c 1
 607 -108 l 2
 595 -168 582 -238 516 -308 c 0
 463 -365 384 -403 294 -403 c 0
 259 -403 214 -396 169 -386 c 1
 193 -263 l 1
 239 -274 283 -283 317 -283 c 0
 364 -283 400 -266 426 -238 c 0
 461 -201 469 -158 479 -108 c 2
 497 -16 l 1
 198 -15 72 157 72 410 c 0
 72 509 90 609 109 704 c 0
 130 814 155 930 206 1044 c 0
 307 1266 492 1424 780 1424 c 0
 903 1424 1019 1412 1125 1395 c 1
 1102 1275 l 1
 992 1292 868 1304 756 1304 c 0
 533 1304 402 1188 325 1016 c 0
 281 919 258 813 237 704 c 0
 219 610 203 518 203 432 c 0
EndSplineSet
Validated: 1
Layer: 2
EndChar
StartChar: Eth
Encoding: 208 208 115
GlifName: E_th
Width: 1024
VWidth: 0
Flags: W
HStem: 0 120<267 560.593> 644 120<137 241 393 625> 1288 120<494 778.467>
VStem: 938 131<697.497 1121.24>
CounterMasks: 1 e0
LayerCount: 3
Back
Fore
SplineSet
938 947 m 0
 938 1144 848 1288 614 1288 c 0
 561 1288 541 1288 494 1288 c 1
 393 764 l 1
 649 764 l 1
 625 644 l 1
 369 644 l 1
 267 120 l 1
 387 120 l 2
 548 120 661 189 743 278 c 1
 835 384 874 525 909 704 c 0
 925 787 938 869 938 947 c 0
638 1408 m 2
 742 1408 844 1378 923 1317 c 0
 1022 1240 1069 1117 1069 961 c 0
 1069 874 1053 788 1037 704 c 0
 1018 605 995 503 949 400 c 0
 854 190 649 0 364 0 c 0
 285 0 213 0 116 0 c 1
 241 644 l 1
 113 644 l 1
 137 764 l 1
 265 764 l 1
 390 1408 l 1
 638 1408 l 2
EndSplineSet
Validated: 1
Layer: 2
EndChar
StartChar: Oslash
Encoding: 216 216 123
GlifName: O_slash
Width: 1024
VWidth: 0
Flags: W
HStem: -16 120<325.695 598.709> 1304 120<546.791 820.067>
VStem: 68 130<315.261 666.058> 947 130<737.174 1092.74>
LayerCount: 3
Back
Fore
SplineSet
246 215 m 1
 287 148 355 104 456 104 c 0
 628 104 755 230 821 382 c 0
 865 485 887 592 909 704 c 0
 928 804 947 909 947 1000 c 0
 947 1033 945 1065 939 1094 c 1
 246 215 l 1
1040 1222 m 1
 1066 1161 1077 1099 1077 1020 c 0
 1077 913 1057 805 1037 704 c 0
 1015 592 992 473 941 355 c 0
 854 152 671 -16 433 -16 c 0
 309 -16 217 30 157 103 c 1
 56 -26 l 1
 -20 26 l 1
 106 186 l 1
 80 247 68 309 68 388 c 0
 68 495 89 603 109 704 c 0
 131 816 154 935 205 1053 c 0
 292 1256 475 1424 713 1424 c 0
 837 1424 929 1378 989 1305 c 1
 1090 1434 l 1
 1166 1382 l 1
 1040 1222 l 1
689 1304 m 0
 517 1304 390 1178 324 1026 c 0
 280 923 259 816 237 704 c 0
 218 604 198 499 198 408 c 0
 198 375 201 343 207 314 c 1
 900 1193 l 1
 859 1260 790 1304 689 1304 c 0
EndSplineSet
Validated: 1
Layer: 2
EndChar
StartChar: Thorn
Encoding: 222 222 129
GlifName: T_horn
Width: 1024
VWidth: 0
Flags: W
HStem: 0 21G<116 247.906> 384 120<342 748.939> 1032 120<468 841.984> 1388 20G<386.108 518>
VStem: 928 130<685.773 950.597>
LayerCount: 3
Back
Fore
SplineSet
535 504 m 2
 611 504 651 506 689 514 c 0
 813 541 928 668 928 831 c 0
 928 932 874 1002 788 1022 c 0
 754 1030 714 1032 638 1032 c 2
 445 1032 l 1
 342 504 l 1
 535 504 l 2
244 0 m 1
 116 0 l 1
 390 1408 l 1
 518 1408 l 1
 468 1152 l 1
 661 1152 l 2
 738 1152 790 1152 842 1139 c 0
 971 1107 1058 1003 1058 853 c 0
 1058 615 880 438 698 397 c 0
 640 384 589 384 512 384 c 2
 319 384 l 1
 244 0 l 1
EndSplineSet
Validated: 1
Layer: 2
EndChar
StartChar: germandbls
Encoding: 223 223 130
GlifName: germandbls
Width: 1024
VWidth: 0
Flags: W
HStem: -16 120<395.911 593.721> 0 21G<116 247.896> 772 120<595 693.008> 1304 120<555.896 765.97>
VStem: 760 132<376.012 706.665> 804 129<1011.24 1267.05>
LayerCount: 3
Back
Fore
SplineSet
752 833 m 1x74
 855 795 892 720 892 607 c 0
 892 558 885 501 873 438 c 0
 822 178 698 -16 469 -16 c 0
 428 -16 391 -10 363 -5 c 1
 402 113 l 1
 427 108 454 104 472 104 c 0
 652 104 711 264 745 438 c 0
 755 487 760 532 760 573 c 0xb8
 760 693 712 772 572 772 c 1
 595 892 l 1
 753 892 804 1055 804 1164 c 0
 804 1253 760 1304 675 1304 c 0
 533 1304 481 1218 454 1078 c 2
 244 0 l 1
 116 0 l 1
 326 1078 l 2
 365 1278 490 1424 699 1424 c 0
 850 1424 933 1323 933 1179 c 0
 933 1059 881 894 754 843 c 1
 752 833 l 1x74
EndSplineSet
Validated: 1
Layer: 2
EndChar
StartChar: atilde
Encoding: 227 227 134
GlifName: atilde
Width: 1024
VWidth: 0
Flags: W
HStem: -16 120<314.202 506.422> 0 21G<628 759.899> 512 110<385.44 728> 920 120<379.349 762.114> 1156 120<751.291 867.541> 1284 120<502.515 618.709>
VStem: 135 131<151.579 381.918> 342 127<1177 1251.7> 784 130<640.461 897.451>
LayerCount: 3
Back
Fore
SplineSet
728 512 m 1xbf80
 532 512 l 2
 477 512 418 512 357 458 c 0
 305 412 266 334 266 254 c 0
 266 168 315 104 412 104 c 0
 642 104 695 341 720 471 c 2
 728 512 l 1xbf80
670 1040 m 0
 734 1040 805 1032 854 987 c 0
 888 955 914 913 914 848 c 0
 914 810 906 772 902 749 c 2
 756 0 l 1
 628 0 l 1x7f80
 652 123 l 1
 642 123 l 1
 561 35 474 -16 365 -16 c 0
 229 -16 135 82 135 228 c 0
 135 335 186 457 276 533 c 0
 383 622 493 622 555 622 c 2
 749 622 l 1
 773 744 l 2
 778 772 784 800 784 825 c 0
 784 887 748 920 647 920 c 0
 559 920 445 910 355 899 c 1
 378 1021 l 1
 467 1031 578 1040 670 1040 c 0
558 1284 m 0
 507 1284 482 1225 469 1171 c 1
 342 1177 l 1
 369 1295 452 1404 581 1404 c 0
 727 1404 735 1276 812 1276 c 0
 863 1276 888 1335 901 1389 c 1
 1028 1383 l 1
 1002 1267 918 1156 789 1156 c 0
 643 1156 635 1284 558 1284 c 0
EndSplineSet
Validated: 1
Layer: 2
EndChar
StartChar: aring
Encoding: 229 229 136
GlifName: aring
Width: 1024
VWidth: 0
Flags: W
HStem: -16 120<314.202 506.422> 0 21G<628 759.899> 512 110<385.44 728> 899 122<378 449.579> 920 120<559.088 730.174> 1296 100<596.131 767.54>
VStem: 135 131<151.579 382.762> 430 110<1058.7 1237.65> 784 130<640.461 895.76> 786 109<1096.4 1276.49>
LayerCount: 3
Back
Fore
SplineSet
808 1017 m 1x3740
 863 993 914 937 914 848 c 0
 914 810 906 772 902 749 c 2
 756 0 l 1
 628 0 l 1x7780
 652 123 l 1
 642 123 l 1
 561 35 474 -16 365 -16 c 0
 229 -16 135 82 135 228 c 0
 135 336 186 457 276 533 c 0
 383 622 493 622 555 622 c 2
 749 622 l 1
 773 744 l 2
 778 772 784 800 784 825 c 0
 784 894 738 920 647 920 c 0xaf80
 559 920 445 910 355 899 c 1
 378 1021 l 1
 401 1024 426 1027 452 1029 c 1
 438 1055 430 1086 430 1120 c 0
 430 1278 562 1396 707 1396 c 0
 825 1396 895 1320 895 1216 c 0
 895 1130 859 1065 808 1017 c 1x3740
638 1040 m 0x2f40
 715 1040 786 1100 786 1202 c 0
 786 1263 748 1296 688 1296 c 0
 611 1296 540 1236 540 1134 c 0
 540 1073 578 1040 638 1040 c 0x2f40
728 512 m 1
 532 512 l 2
 477 512 418 512 357 458 c 0
 305 412 266 338 266 254 c 0
 266 168 315 104 412 104 c 0xa7
 642 104 695 341 720 471 c 2
 728 512 l 1
EndSplineSet
Validated: 1
Layer: 2
EndChar
StartChar: ae
Encoding: 230 230 137
GlifName: ae
Width: 1024
VWidth: 0
Flags: W
HStem: -16 120<161.937 324.65 612.085 883.203> 512 120<232.014 472 624 915.105> 920 120<188.591 509.302 748.55 892.588>
VStem: 7 130<127.584 390.47> 923 128<634.494 890.666>
LayerCount: 3
Back
Fore
SplineSet
218 466 m 0
 169 410 137 334 137 239 c 0
 137 167 161 104 228 104 c 0
 378 104 428 286 454 421 c 2
 472 512 l 1
 337 512 l 2
 274 512 251 503 218 466 c 0
852 1040 m 0
 999 1040 1051 906 1051 776 c 0
 1051 708 1038 641 1026 577 c 2
 1014 512 l 1
 600 512 l 1
 591 469 l 2
 578 403 567 335 567 277 c 0
 567 177 600 104 712 104 c 0
 768 104 845 119 909 129 c 1
 885 7 l 1
 820 -3 748 -16 686 -16 c 0
 581 -16 503 34 473 148 c 1
 463 148 l 1
 397 49 306 -16 205 -16 c 0
 66 -16 7 90 7 218 c 0
 7 391 103 557 232 611 c 0
 278 630 320 632 353 632 c 2
 495 632 l 1
 517 748 l 2
 523 777 527 803 527 825 c 0
 527 889 496 924 392 924 c 0
 346 924 242 914 164 904 c 1
 187 1026 l 1
 264 1035 366 1044 415 1044 c 0
 503 1044 594 1034 629 907 c 1
 639 907 l 1
 696 990 767 1040 852 1040 c 0
923 766 m 0
 923 845 902 920 829 920 c 0
 756 920 699 842 668 773 c 0
 647 729 635 682 624 632 c 1
 910 632 l 1
 918 680 923 725 923 766 c 0
EndSplineSet
Validated: 1
Layer: 2
EndChar
StartChar: ccedilla
Encoding: 231 231 138
GlifName: ccedilla
Width: 1024
VWidth: 0
Flags: W
HStem: -400 120<189.937 412.681> -16 120<358.43 497> 920 120<503.325 913.232>
VStem: 154 130<177.063 527.626>
LayerCount: 3
Back
Fore
SplineSet
608 -105 m 2
 596 -165 583 -235 517 -305 c 0
 464 -362 384 -400 294 -400 c 0
 259 -400 215 -393 170 -383 c 1
 193 -260 l 1
 239 -271 284 -280 318 -280 c 0
 365 -280 400 -263 426 -235 c 0
 461 -198 470 -155 480 -105 c 2
 497 -16 l 1
 486 -16 474 -16 463 -16 c 0
 251 -16 154 106 154 287 c 0
 154 355 168 430 184 512 c 0
 208 633 230 738 289 831 c 0
 361 946 480 1040 668 1040 c 0
 771 1040 847 1032 935 1023 c 1
 912 903 l 1
 823 912 741 920 645 920 c 0
 525 920 456 872 400 789 c 0
 351 716 332 614 312 512 c 0
 298 441 284 369 284 308 c 0
 284 174 350 104 486 104 c 0
 581 104 678 115 781 130 c 1
 758 10 l 1
 713 3 670 -3 627 -7 c 1
 608 -105 l 2
EndSplineSet
Validated: 1
Layer: 2
EndChar
StartChar: egrave
Encoding: 232 232 139
GlifName: egrave
Width: 1024
VWidth: 0
Flags: W
HStem: -16 120<350.972 753.509> 512 120<337 785.736> 920 120<484.729 730.6> 1388 20G<494 641.062>
VStem: 153 130<173.845 510.253> 792 129<634.658 860.023>
LayerCount: 3
Back
Fore
SplineSet
792 745 m 0
 792 857 733 920 615 920 c 0
 518 920 439 874 396 799 c 0
 366 751 352 693 337 632 c 1
 781 632 l 1
 787 672 792 710 792 745 c 0
283 301 m 0
 283 173 347 104 476 104 c 0
 569 104 673 113 780 125 c 1
 757 5 l 1
 651 -7 553 -16 453 -16 c 0
 253 -16 153 103 153 280 c 0
 153 351 168 427 184 512 c 0
 208 637 230 747 284 839 c 0
 348 951 476 1040 638 1040 c 0
 811 1040 921 941 921 761 c 0
 921 687 906 604 888 512 c 1
 312 512 l 1
 298 438 283 364 283 301 c 0
748 1152 m 1
 610 1152 l 1
 494 1408 l 1
 632 1408 l 1
 748 1152 l 1
EndSplineSet
Validated: 1
Layer: 2
EndChar
StartChar: edieresis
Encoding: 235 235 142
GlifName: edieresis
Width: 1024
VWidth: 0
Flags: W
HStem: -16 120<350.972 753.509> 512 120<337 785.736> 920 120<484.729 730.6> 1200 224<400.391 533.821 848.391 981.821>
VStem: 153 130<173.845 510.253> 353 229<1247.56 1376.78> 792 129<634.658 860.023> 801 229<1247.56 1376.78>
LayerCount: 3
Back
Fore
SplineSet
792 745 m 0xfe
 792 857 733 920 615 920 c 0
 518 920 439 874 396 799 c 0
 366 751 352 693 337 632 c 1
 781 632 l 1
 787 672 792 710 792 745 c 0xfe
283 301 m 0
 283 173 347 104 476 104 c 0
 569 104 673 113 780 125 c 1
 757 5 l 1
 651 -7 553 -16 453 -16 c 0
 253 -16 153 103 153 280 c 0
 153 351 168 427 184 512 c 0
 208 637 230 747 284 839 c 0
 348 951 476 1040 638 1040 c 0
 811 1040 921 941 921 761 c 0
 921 687 906 604 888 512 c 1
 312 512 l 1
 298 438 283 364 283 301 c 0
801 1287 m 0xfd
 801 1369 866 1424 937 1424 c 0
 994 1424 1030 1389 1030 1337 c 0
 1030 1255 964 1200 893 1200 c 0
 836 1200 801 1235 801 1287 c 0xfd
353 1287 m 0
 353 1369 418 1424 489 1424 c 0
 546 1424 582 1389 582 1337 c 0
 582 1255 516 1200 445 1200 c 0
 388 1200 353 1235 353 1287 c 0
EndSplineSet
Validated: 1
Layer: 2
EndChar
StartChar: igrave
Encoding: 236 236 143
GlifName: igrave
Width: 1024
VWidth: 0
Flags: W
HStem: 0 120<139 395 523 756> 904 120<315 548> 1388 20G<494 641.062>
LayerCount: 3
Back
Fore
SplineSet
748 1152 m 1
 610 1152 l 1
 494 1408 l 1
 632 1408 l 1
 748 1152 l 1
116 0 m 1
 139 120 l 1
 395 120 l 1
 548 904 l 1
 292 904 l 1
 315 1024 l 1
 699 1024 l 1
 523 120 l 1
 779 120 l 1
 756 0 l 1
 116 0 l 1
EndSplineSet
Validated: 1
Layer: 2
EndChar
StartChar: idieresis
Encoding: 239 239 146
GlifName: idieresis
Width: 1024
VWidth: 0
Flags: W
HStem: 0 120<139 395 523 756> 904 120<315 548> 1200 224<400.391 533.821 848.391 981.821>
VStem: 353 229<1247.56 1376.78> 801 229<1247.56 1376.78>
LayerCount: 3
Back
Fore
SplineSet
353 1287 m 0
 353 1369 418 1424 489 1424 c 0
 546 1424 582 1389 582 1337 c 0
 582 1255 516 1200 445 1200 c 0
 388 1200 353 1235 353 1287 c 0
801 1287 m 0
 801 1369 866 1424 937 1424 c 0
 994 1424 1030 1389 1030 1337 c 0
 1030 1255 964 1200 893 1200 c 0
 836 1200 801 1235 801 1287 c 0
116 0 m 1
 139 120 l 1
 395 120 l 1
 548 904 l 1
 292 904 l 1
 315 1024 l 1
 699 1024 l 1
 523 120 l 1
 779 120 l 1
 756 0 l 1
 116 0 l 1
EndSplineSet
Validated: 1
Layer: 2
EndChar
StartChar: eth
Encoding: 240 240 147
GlifName: eth
Width: 1024
VWidth: 0
Flags: W
HStem: -16 120<343.666 581.193> 792 120<461.426 705.564> 1035 21G<457.606 500.543> 1397 20G<929.767 972.697>
VStem: 148 131<172.008 497.715> 781 132<810 1021>
LayerCount: 3
Back
Fore
SplineSet
467 1035 m 1
 436 1101 l 1
 638 1222 l 1
 597 1274 548 1317 493 1350 c 1
 551 1428 l 1
 627 1390 691 1342 742 1284 c 1
 963 1417 l 1
 995 1351 l 1
 786 1226 l 1
 875 1112 913 965 913 791 c 0
 913 687 899 572 875 448 c 0
 856 351 838 274 792 195 c 0
 724 80 593 -16 453 -16 c 0
 237 -16 148 99 148 272 c 0
 148 326 158 382 171 448 c 0
 190 545 209 625 250 701 c 0
 312 817 436 912 593 912 c 0
 680 912 728 873 771 810 c 1
 781 810 l 1
 781 944 746 1063 680 1162 c 1
 467 1035 l 1
770 617 m 0
 770 727 706 792 590 792 c 0
 489 792 410 740 366 661 c 0
 335 603 314 526 299 448 c 0
 288 392 279 338 279 289 c 0
 279 175 341 104 456 104 c 0
 552 104 632 156 680 235 c 0
 715 295 732 370 747 448 c 0
 759 507 770 567 770 617 c 0
EndSplineSet
Validated: 1
Layer: 2
EndChar
StartChar: ntilde
Encoding: 241 241 148
GlifName: ntilde
Width: 1024
VWidth: 0
Flags: W
HStem: 0 21G<116 247.896 628 759.896> 920 120<543.941 723.793> 1004 20G<311.113 443> 1156 120<751.291 867.541> 1284 120<502.515 618.709>
VStem: 116 128<0 55.188> 628 128<0 55.188> 772 130<585.141 871.341>
LayerCount: 3
Back
Fore
SplineSet
558 1284 m 0x9f
 507 1284 482 1225 469 1171 c 1
 342 1177 l 1
 369 1295 452 1404 581 1404 c 0
 727 1404 735 1276 812 1276 c 0
 863 1276 888 1335 901 1389 c 1
 1028 1383 l 1
 1002 1267 918 1156 789 1156 c 0
 643 1156 635 1284 558 1284 c 0x9f
772 776 m 0
 772 867 710 920 615 920 c 0xdf
 551 920 495 895 456 858 c 0
 401 806 389 744 372 657 c 2
 244 0 l 1
 116 0 l 1
 315 1024 l 1
 443 1024 l 1xbf
 421 912 l 1
 431 912 l 1
 495 989 582 1040 658 1040 c 0xdf
 807 1040 902 944 902 801 c 0
 902 753 893 705 884 657 c 2
 756 0 l 1
 628 0 l 1
 756 657 l 2
 765 703 772 742 772 776 c 0
EndSplineSet
Validated: 1
Layer: 2
EndChar
StartChar: ocircumflex
Encoding: 244 244 151
GlifName: ocircumflex
Width: 1024
VWidth: 0
Flags: W
HStem: -16 120<347.354 579.284> 920 120<491.716 723.437> 1388 20G<603.891 808.297>
VStem: 154 129<168.206 527.214> 787 129<484.395 855.594>
LayerCount: 3
Back
Fore
SplineSet
433 -16 m 0
 260 -16 154 96 154 278 c 0
 154 347 167 425 184 512 c 0
 213 662 246 788 320 880 c 0
 400 978 511 1040 638 1040 c 0
 811 1040 916 927 916 746 c 0
 916 677 905 599 888 512 c 0
 859 362 825 236 751 144 c 0
 671 46 560 -16 433 -16 c 0
787 724 m 0
 787 843 736 920 615 920 c 0
 531 920 466 881 420 822 c 0
 359 744 335 629 312 512 c 0
 298 438 283 364 283 300 c 0
 283 181 335 104 456 104 c 0
 540 104 605 143 651 202 c 0
 712 280 737 395 760 512 c 0
 774 586 787 660 787 724 c 0
631 1408 m 1
 789 1408 l 1
 1036 1152 l 1
 878 1152 l 1
 692 1316 l 1
 442 1152 l 1
 284 1152 l 1
 631 1408 l 1
EndSplineSet
Validated: 1
Layer: 2
EndChar
StartChar: otilde
Encoding: 245 245 152
GlifName: otilde
Width: 1024
VWidth: 0
Flags: W
HStem: -16 120<347.354 579.284> 920 120<491.716 723.437> 1156 120<751.291 867.541> 1284 120<502.515 618.709>
VStem: 154 129<168.206 527.214> 342 127<1177 1251.7> 787 129<484.395 855.594> 901 127<1308.7 1383>
LayerCount: 3
Back
Fore
SplineSet
433 -16 m 0xfe
 260 -16 154 96 154 278 c 0
 154 347 167 425 184 512 c 0
 213 662 246 788 320 880 c 0
 400 978 511 1040 638 1040 c 0
 811 1040 916 927 916 746 c 0
 916 677 905 599 888 512 c 0
 859 362 825 236 751 144 c 0
 671 46 560 -16 433 -16 c 0xfe
787 724 m 0
 787 843 736 920 615 920 c 0
 531 920 466 881 420 822 c 0
 359 744 335 629 312 512 c 0
 298 438 283 364 283 300 c 0
 283 181 335 104 456 104 c 0
 540 104 605 143 651 202 c 0
 712 280 737 395 760 512 c 0
 774 586 787 660 787 724 c 0
558 1284 m 0
 507 1284 482 1225 469 1171 c 1
 342 1177 l 1
 369 1295 452 1404 581 1404 c 0
 727 1404 735 1276 812 1276 c 0
 863 1276 888 1335 901 1389 c 1
 1028 1383 l 1xfd
 1002 1267 918 1156 789 1156 c 0
 643 1156 635 1284 558 1284 c 0
EndSplineSet
Validated: 1
Layer: 2
EndChar
StartChar: odieresis
Encoding: 246 246 153
GlifName: odieresis
Width: 1024
VWidth: 0
Flags: W
HStem: -16 120<335.792 590.239> 920 120<480.761 734.952> 1200 224<392.046 542.478 840.046 990.478>
VStem: 154 129<159.741 569.539> 353 229<1238.36 1385.64> 787 129<445.056 867.461> 801 229<1238.36 1385.64>
LayerCount: 3
Back
Fore
SplineSet
433 -16 m 0xfc
 260 -16 154 96 154 278 c 0
 154 347 167 425 184 512 c 0
 213 662 246 788 320 880 c 0
 400 978 511 1040 638 1040 c 0
 811 1040 916 927 916 746 c 0
 916 677 905 599 888 512 c 0
 859 362 825 236 751 144 c 0
 671 46 560 -16 433 -16 c 0xfc
787 724 m 0
 787 843 736 920 615 920 c 0
 531 920 466 881 420 822 c 0
 359 744 335 629 312 512 c 0
 298 438 283 364 283 300 c 0
 283 181 335 104 456 104 c 0
 540 104 605 143 651 202 c 0
 712 280 737 395 760 512 c 0
 774 586 787 660 787 724 c 0
353 1287 m 0
 353 1369 418 1424 489 1424 c 0
 546 1424 582 1389 582 1337 c 0
 582 1255 516 1200 445 1200 c 0
 388 1200 353 1235 353 1287 c 0
801 1287 m 0xfa
 801 1369 866 1424 937 1424 c 0
 994 1424 1030 1389 1030 1337 c 0
 1030 1255 964 1200 893 1200 c 0
 836 1200 801 1235 801 1287 c 0xfa
EndSplineSet
Validated: 1
Layer: 2
EndChar
StartChar: divide
Encoding: 247 247 154
GlifName: divide
Width: 1024
VWidth: 0
Flags: W
HStem: 176 224<428.179 561.609> 644 120<140 1012> 1008 224<588.188 724.812>
VStem: 380 229<223.224 352.44> 542 229<1055.22 1184.78>
CounterMasks: 1 e0
LayerCount: 3
Back
Fore
SplineSet
1036 764 m 1xe0
 1012 644 l 1
 116 644 l 1
 140 764 l 1
 1036 764 l 1xe0
380 263 m 0xf0
 380 345 446 400 517 400 c 0
 574 400 609 365 609 313 c 0
 609 231 544 176 473 176 c 0
 416 176 380 211 380 263 c 0xf0
542 1095 m 0xe8
 542 1177 607 1232 678 1232 c 0
 735 1232 771 1197 771 1145 c 0
 771 1063 706 1008 635 1008 c 0
 578 1008 542 1043 542 1095 c 0xe8
EndSplineSet
Validated: 1
Layer: 2
EndChar
StartChar: oslash
Encoding: 248 248 155
GlifName: oslash
Width: 1024
VWidth: 0
Flags: W
HStem: -16 120<347.556 579.384> 920 120<491.686 723.444>
VStem: 153 130<291 520.926> 788 130<495.115 732>
LayerCount: 3
Back
Fore
SplineSet
309 183 m 1
 335 134 383 104 456 104 c 0
 667 104 723 322 760 512 c 0
 775 590 788 665 788 732 c 1
 309 183 l 1
901 861 m 1
 913 826 918 787 918 746 c 0
 918 675 904 597 888 512 c 0
 864 391 842 290 786 195 c 0
 717 79 593 -16 433 -16 c 0
 333 -16 261 21 216 77 c 1
 124 -28 l 1
 52 28 l 1
 170 163 l 1
 158 198 153 237 153 278 c 0
 153 349 168 427 184 512 c 0
 208 633 229 734 285 829 c 0
 354 945 478 1040 638 1040 c 0
 738 1040 810 1003 855 947 c 1
 947 1052 l 1
 1019 996 l 1
 901 861 l 1
615 920 m 0
 404 920 349 702 312 512 c 0
 296 434 284 367 283 291 c 1
 762 841 l 1
 736 890 688 920 615 920 c 0
EndSplineSet
Validated: 1
Layer: 2
EndChar
StartChar: ugrave
Encoding: 249 249 156
GlifName: ugrave
Width: 1024
VWidth: 0
Flags: W
HStem: -16 120<347.207 527.059> 0 21G<628 759.887> 1004 20G<311.104 443 823.104 955> 1388 20G<494 641.062>
VStem: 169 130<152.659 438.859>
LayerCount: 3
Back
Fore
SplineSet
748 1152 m 1x38
 610 1152 l 1
 494 1408 l 1
 632 1408 l 1
 748 1152 l 1x38
299 248 m 0
 299 157 361 104 456 104 c 0xb8
 520 104 576 129 615 166 c 0
 670 218 682 280 699 367 c 2
 827 1024 l 1
 955 1024 l 1
 756 0 l 1
 628 0 l 1x78
 650 112 l 1
 640 112 l 1
 576 35 489 -16 413 -16 c 0xb8
 264 -16 169 80 169 223 c 0
 169 271 178 319 187 367 c 2
 315 1024 l 1
 443 1024 l 1
 315 367 l 2
 306 321 299 282 299 248 c 0
EndSplineSet
Validated: 1
Layer: 2
EndChar
StartChar: udieresis
Encoding: 252 252 159
GlifName: udieresis
Width: 1024
VWidth: 0
Flags: W
HStem: -16 120<347.207 527.059> 0 21G<628 759.887> 1004 20G<311.104 443 823.104 955> 1200 224<400.391 533.821 848.391 981.821>
VStem: 169 130<152.659 438.859> 353 229<1247.56 1376.78> 801 229<1247.56 1376.78>
LayerCount: 3
Back
Fore
SplineSet
353 1287 m 0x3e
 353 1369 418 1424 489 1424 c 0
 546 1424 582 1389 582 1337 c 0
 582 1255 516 1200 445 1200 c 0
 388 1200 353 1235 353 1287 c 0x3e
801 1287 m 0
 801 1369 866 1424 937 1424 c 0
 994 1424 1030 1389 1030 1337 c 0
 1030 1255 964 1200 893 1200 c 0
 836 1200 801 1235 801 1287 c 0
299 248 m 0
 299 157 361 104 456 104 c 0xbe
 520 104 576 129 615 166 c 0
 670 218 682 280 699 367 c 2
 827 1024 l 1
 955 1024 l 1
 756 0 l 1
 628 0 l 1x7e
 650 112 l 1
 640 112 l 1
 576 35 489 -16 413 -16 c 0xbe
 264 -16 169 80 169 223 c 0
 169 271 178 319 187 367 c 2
 315 1024 l 1
 443 1024 l 1
 315 367 l 2
 306 321 299 282 299 248 c 0
EndSplineSet
Validated: 1
Layer: 2
EndChar
StartChar: thorn
Encoding: 254 254 161
GlifName: thorn
Width: 1024
VWidth: 0
Flags: W
HStem: -16 120<376.386 577.634> 920 120<556.133 726.842> 1388 20G<386.105 518>
VStem: 786 133<500.328 855.447>
LayerCount: 3
Back
Fore
SplineSet
317 307 m 0
 317 199 359 104 472 104 c 0
 568 104 643 177 684 256 c 0
 724 332 742 420 760 512 c 0
 774 584 786 654 786 717 c 0
 786 825 744 920 631 920 c 0
 535 920 460 847 419 768 c 0
 379 692 362 604 344 512 c 0
 330 440 317 370 317 307 c 0
674 1040 m 0
 822 1040 919 928 919 747 c 0
 919 675 905 601 888 512 c 0
 866 400 848 311 803 221 c 0
 727 71 600 -16 469 -16 c 0
 386 -16 319 33 278 125 c 1
 268 125 l 1
 169 -384 l 1
 41 -384 l 1
 390 1408 l 1
 518 1408 l 1
 419 899 l 1
 429 899 l 1
 506 991 591 1040 674 1040 c 0
EndSplineSet
Validated: 1
Layer: 2
EndChar
StartChar: ydieresis
Encoding: 255 255 162
GlifName: ydieresis
Width: 1024
VWidth: 0
Flags: W
HStem: -400 120<62 252.234> 1004 20G<263 394 817 1007> 1162 224<391.188 527.812 839.188 975.812>
VStem: 263 131<649.244 1024> 345 229<1209.22 1338.78> 793 229<1209.22 1338.78>
LayerCount: 3
Back
Fore
SplineSet
490 115 m 1xf4
 636 414 758 717 876 1024 c 1
 1007 1024 l 1
 865 655 740 351 523 -73 c 0
 470 -177 416 -271 345 -321 c 0xec
 281 -367 193 -400 38 -400 c 1
 62 -280 l 1
 144 -280 227 -266 267 -239 c 0
 321 -203 353 -140 428 0 c 1
 377 0 l 1
 283 326 264 676 263 1024 c 1
 394 1024 l 1
 394 709 409 400 480 115 c 1
 490 115 l 1xf4
793 1249 m 0
 793 1331 858 1386 929 1386 c 0
 986 1386 1022 1351 1022 1299 c 0
 1022 1217 957 1162 886 1162 c 0
 829 1162 793 1197 793 1249 c 0
345 1249 m 0
 345 1331 410 1386 481 1386 c 0
 538 1386 574 1351 574 1299 c 0
 574 1217 509 1162 438 1162 c 0
 381 1162 345 1197 345 1249 c 0
EndSplineSet
Validated: 1
Layer: 2
EndChar
StartChar: Aogonek
Encoding: 260 260 165
GlifName: A_ogonek
Width: 1024
VWidth: 0
Flags: W
HStem: -400 120<719.905 809.552> 0 21G<-37 116.5> 388 120<273 794> 1388 20G<480.5 831>
VStem: -37 135<0 92.7498> 584 131<-275.551 -132.533> 794 135<47.8677 388 508 809.699>
LayerCount: 3
Back
Fore
SplineSet
909 0 m 1
 792 -60 715 -118 715 -221 c 0
 715 -264 744 -280 771 -280 c 0
 792 -280 812 -277 832 -268 c 1
 808 -389 l 1
 783 -398 755 -400 727 -400 c 0
 657 -400 584 -341 584 -245 c 0
 584 -118 688 -47 774 0 c 1
 789 137 794 248 794 388 c 1
 228 388 l 1
 186 265 135 136 98 0 c 1
 -37 0 l 1
 112 496 316 971 645 1408 c 1
 775 1408 l 1
 887 1100 929 773 929 433 c 0
 929 291 922 146 909 0 c 1
797 508 m 1
 785 796 762 1054 690 1279 c 1
 680 1279 l 1
 520 1054 397 796 273 508 c 1
 797 508 l 1
EndSplineSet
Validated: 1
Layer: 2
EndChar
StartChar: aogonek
Encoding: 261 261 166
GlifName: aogonek
Width: 1024
VWidth: 0
Flags: W
HStem: -400 120<591.905 681.529> -16 120<314.202 506.422> 512 110<385.44 728> 920 120<379.349 762.888>
VStem: 135 131<151.579 382.439> 456 131<-275.551 -129.403> 784 130<640.461 897.286>
LayerCount: 3
Back
Fore
SplineSet
456 -245 m 0
 456 -120 553 -47 628 0 c 1
 652 123 l 1
 642 123 l 1
 561 35 474 -16 365 -16 c 0
 229 -16 135 82 135 228 c 0
 135 336 186 457 276 533 c 0
 383 622 493 622 555 622 c 2
 749 622 l 1
 773 744 l 2
 778 772 784 800 784 825 c 0
 784 894 738 920 647 920 c 0
 559 920 445 910 355 899 c 1
 378 1021 l 1
 467 1031 578 1040 670 1040 c 0
 766 1040 863 1021 903 913 c 0
 910 893 914 871 914 848 c 0
 914 810 906 772 902 749 c 2
 756 0 l 1
 656 -60 587 -128 587 -221 c 0
 587 -264 616 -280 643 -280 c 0
 664 -280 684 -277 704 -268 c 1
 680 -389 l 1
 654 -398 627 -400 599 -400 c 0
 529 -400 456 -341 456 -245 c 0
728 512 m 1
 532 512 l 2
 477 512 418 512 357 458 c 0
 305 412 266 336 266 254 c 0
 266 168 315 104 412 104 c 0
 642 104 695 341 720 471 c 2
 728 512 l 1
EndSplineSet
Validated: 1
Layer: 2
EndChar
StartChar: cacute
Encoding: 263 263 172
GlifName: cacute
Width: 1024
VWidth: 0
Flags: W
HStem: -16 120<357.724 755.097> 920 120<503.325 913.232> 1388 20G<771.125 926>
VStem: 154 130<176.861 527.626>
LayerCount: 3
Back
Fore
SplineSet
184 512 m 0
 208 633 230 738 289 831 c 0
 361 946 480 1040 668 1040 c 0
 771 1040 847 1032 935 1023 c 1
 912 903 l 1
 823 912 741 920 645 920 c 0
 525 920 456 872 400 789 c 0
 351 716 332 614 312 512 c 0
 298 441 284 369 284 308 c 0
 284 229 305 104 486 104 c 0
 581 104 678 115 781 130 c 1
 758 10 l 1
 656 -5 565 -16 463 -16 c 0
 253 -16 154 106 154 287 c 0
 154 355 168 430 184 512 c 0
572 1152 m 1
 788 1408 l 1
 926 1408 l 1
 710 1152 l 1
 572 1152 l 1
EndSplineSet
Validated: 1
Layer: 2
EndChar
StartChar: ccircumflex
Encoding: 265 265 174
GlifName: ccircumflex
Width: 1024
VWidth: 0
Flags: W
HStem: -16 120<357.724 755.097> 920 120<503.325 913.232> 1388 20G<603.891 808.297>
VStem: 154 130<176.861 527.626>
LayerCount: 3
Back
Fore
SplineSet
184 512 m 0
 208 633 230 738 289 831 c 0
 361 946 480 1040 668 1040 c 0
 771 1040 847 1032 935 1023 c 1
 912 903 l 1
 823 912 741 920 645 920 c 0
 525 920 456 872 400 789 c 0
 351 716 332 614 312 512 c 0
 298 441 284 369 284 308 c 0
 284 229 305 104 486 104 c 0
 581 104 678 115 781 130 c 1
 758 10 l 1
 656 -5 565 -16 463 -16 c 0
 253 -16 154 106 154 287 c 0
 154 355 168 430 184 512 c 0
631 1408 m 1
 789 1408 l 1
 1036 1152 l 1
 878 1152 l 1
 692 1316 l 1
 442 1152 l 1
 284 1152 l 1
 631 1408 l 1
EndSplineSet
Validated: 1
Layer: 2
EndChar
StartChar: cdotaccent
Encoding: 267 267 176
GlifName: cdotaccent
Width: 1024
VWidth: 0
Flags: W
HStem: -16 120<357.724 755.097> 920 120<503.325 913.232> 1201 224<624.391 757.821>
VStem: 154 130<176.861 527.626> 577 229<1248.56 1377.78>
LayerCount: 3
Back
Fore
SplineSet
184 512 m 0
 208 633 230 738 289 831 c 0
 361 946 480 1040 668 1040 c 0
 771 1040 847 1032 935 1023 c 1
 912 903 l 1
 823 912 741 920 645 920 c 0
 525 920 456 872 400 789 c 0
 351 716 332 614 312 512 c 0
 298 441 284 369 284 308 c 0
 284 229 305 104 486 104 c 0
 581 104 678 115 781 130 c 1
 758 10 l 1
 656 -5 565 -16 463 -16 c 0
 253 -16 154 106 154 287 c 0
 154 355 168 430 184 512 c 0
577 1288 m 0
 577 1370 642 1425 713 1425 c 0
 770 1425 806 1390 806 1338 c 0
 806 1256 740 1201 669 1201 c 0
 612 1201 577 1236 577 1288 c 0
EndSplineSet
Validated: 1
Layer: 2
EndChar
StartChar: ccaron
Encoding: 269 269 178
GlifName: ccaron
Width: 1024
VWidth: 0
Flags: W
HStem: -16 120<357.724 755.097> 920 120<503.325 913.232> 1388 20G<334 514.683 897.512 1086>
VStem: 154 130<176.861 527.626>
LayerCount: 3
Back
Fore
SplineSet
184 512 m 0
 208 633 230 738 289 831 c 0
 361 946 480 1040 668 1040 c 0
 771 1040 847 1032 935 1023 c 1
 912 903 l 1
 823 912 741 920 645 920 c 0
 525 920 456 872 400 789 c 0
 351 716 332 614 312 512 c 0
 298 441 284 369 284 308 c 0
 284 229 305 104 486 104 c 0
 581 104 678 115 781 130 c 1
 758 10 l 1
 656 -5 565 -16 463 -16 c 0
 253 -16 154 106 154 287 c 0
 154 355 168 430 184 512 c 0
581 1152 m 1
 334 1408 l 1
 492 1408 l 1
 678 1244 l 1
 928 1408 l 1
 1086 1408 l 1
 739 1152 l 1
 581 1152 l 1
EndSplineSet
Validated: 1
Layer: 2
EndChar
StartChar: dcaron
Encoding: 271 271 180
GlifName: dcaron
Width: 1024
VWidth: 0
Flags: W
HStem: -16 120<344.158 514.867> 0 21G<628 759.892> 920 120<493.366 694.614> 1024 21G<1083 1214.91> 1388 20G<898.11 1030 1154.09 1286>
VStem: 152 133<168.553 518.923>
LayerCount: 3
Back
Fore
SplineSet
1158 1408 m 1x1c
 1286 1408 l 1
 1211 1024 l 1
 1083 1024 l 1
 1158 1408 l 1x1c
397 -16 m 0x8c
 249 -16 152 96 152 277 c 0
 152 349 167 423 184 512 c 0
 206 624 223 713 268 803 c 0
 344 953 471 1040 602 1040 c 0
 685 1040 752 991 793 899 c 1
 803 899 l 1
 902 1408 l 1
 1030 1408 l 1
 756 0 l 1
 628 0 l 1x6c
 652 125 l 1
 642 125 l 1
 565 33 480 -16 397 -16 c 0x8c
754 717 m 0
 754 825 712 920 599 920 c 0
 503 920 428 847 387 768 c 0
 347 692 330 604 312 512 c 0
 298 440 285 370 285 307 c 0
 285 199 327 104 440 104 c 0xac
 536 104 611 177 652 256 c 0
 692 332 710 420 728 512 c 0
 742 584 754 654 754 717 c 0
EndSplineSet
Validated: 1
Layer: 2
EndChar
StartChar: dcroat
Encoding: 273 273 182
GlifName: dcroat
Width: 1024
VWidth: 0
Flags: W
HStem: -16 120<344.552 515.349> 0 21G<628 759.893> 792 120<466.982 671.282> 1156 120<492 853 1004 1109> 1388 20G<898.061 1030>
VStem: 147 133<170.97 495.388>
LayerCount: 3
Back
Fore
SplineSet
397 -16 m 0xbc
 253 -16 147 91 147 269 c 0
 147 324 158 380 171 448 c 0
 188 535 201 603 238 675 c 0
 314 825 446 912 577 912 c 0
 660 912 727 863 768 771 c 1
 778 771 l 1
 853 1156 l 1
 469 1156 l 1
 492 1276 l 1
 876 1276 l 1
 902 1408 l 1
 1030 1408 l 1
 1004 1276 l 1
 1132 1276 l 1
 1109 1156 l 1
 981 1156 l 1
 756 0 l 1
 628 0 l 1x7c
 652 125 l 1
 642 125 l 1
 565 33 480 -16 397 -16 c 0xbc
734 598 m 0
 734 702 684 792 574 792 c 0
 478 792 398 719 357 640 c 0
 327 581 312 517 299 448 c 0
 289 395 280 345 280 298 c 0
 280 194 330 104 440 104 c 0xbc
 536 104 616 177 657 256 c 0
 687 315 702 379 715 448 c 0
 725 501 734 551 734 598 c 0
EndSplineSet
Validated: 1
Layer: 2
EndChar
StartChar: ebreve
Encoding: 277 277 186
GlifName: ebreve
Width: 1024
VWidth: 0
Flags: W
HStem: -16 120<350.972 753.509> 512 120<337 785.736> 920 120<484.729 730.6> 1136 120<544.756 826.461> 1388 20G<368.5 498 913.5 1050>
VStem: 153 130<173.845 510.253> 365 130<1302.05 1408> 792 129<634.658 860.023> 922 128<1341.03 1408>
LayerCount: 3
Back
Fore
SplineSet
792 745 m 0
 792 857 733 920 615 920 c 0
 518 920 439 874 396 799 c 0
 366 751 352 693 337 632 c 1
 781 632 l 1
 787 672 792 710 792 745 c 0
283 301 m 0
 283 173 347 104 476 104 c 0
 569 104 673 113 780 125 c 1
 757 5 l 1
 651 -7 553 -16 453 -16 c 0
 253 -16 153 103 153 280 c 0
 153 351 168 427 184 512 c 0
 208 637 230 747 284 839 c 0
 348 951 476 1040 638 1040 c 0
 811 1040 921 941 921 761 c 0
 921 687 906 604 888 512 c 1
 312 512 l 1
 298 438 283 364 283 301 c 0
922 1408 m 1
 1050 1408 l 1
 1017 1240 845 1136 657 1136 c 0
 488 1136 365 1219 365 1358 c 0
 365 1374 367 1391 370 1408 c 1
 498 1408 l 1
 496 1398 495 1388 495 1379 c 0
 495 1307 553 1256 680 1256 c 0
 823 1256 905 1322 922 1408 c 1
EndSplineSet
Validated: 1
Layer: 2
EndChar
StartChar: edotaccent
Encoding: 279 279 188
GlifName: edotaccent
Width: 1024
VWidth: 0
Flags: W
HStem: -16 120<350.972 753.509> 512 120<337 785.736> 920 120<484.729 730.6> 1200 224<624.391 757.821>
VStem: 153 130<173.845 510.253> 577 229<1247.56 1376.78> 792 129<634.658 860.023>
LayerCount: 3
Back
Fore
SplineSet
792 745 m 0xfa
 792 857 733 920 615 920 c 0
 518 920 439 874 396 799 c 0
 366 751 352 693 337 632 c 1
 781 632 l 1
 787 672 792 710 792 745 c 0xfa
283 301 m 0
 283 173 347 104 476 104 c 0
 569 104 673 113 780 125 c 1
 757 5 l 1
 651 -7 553 -16 453 -16 c 0
 253 -16 153 103 153 280 c 0
 153 351 168 427 184 512 c 0
 208 637 230 747 284 839 c 0
 348 951 476 1040 638 1040 c 0
 811 1040 921 941 921 761 c 0
 921 687 906 604 888 512 c 1
 312 512 l 1
 298 438 283 364 283 301 c 0
577 1287 m 0xfc
 577 1369 642 1424 713 1424 c 0
 770 1424 806 1389 806 1337 c 0
 806 1255 740 1200 669 1200 c 0
 612 1200 577 1235 577 1287 c 0xfc
EndSplineSet
Validated: 1
Layer: 2
EndChar
StartChar: Eogonek
Encoding: 280 280 163
GlifName: E_ogonek
Width: 1024
VWidth: 0
Flags: W
HStem: -400 120<719.905 809.529> 0 120<267 756> 644 120<393 881> 1288 120<494 1134>
VStem: 584 131<-275.551 -129.915>
LayerCount: 3
Back
Fore
SplineSet
756 0 m 1
 116 0 l 1
 390 1408 l 1
 1158 1408 l 1
 1134 1288 l 1
 494 1288 l 1
 393 764 l 1
 905 764 l 1
 881 644 l 1
 369 644 l 1
 267 120 l 1
 907 120 l 1
 884 0 l 1
 784 -60 735 -113 718 -198 c 0
 716 -206 715 -214 715 -221 c 0
 715 -264 744 -280 771 -280 c 0
 792 -280 812 -277 832 -268 c 1
 808 -389 l 1
 782 -398 755 -400 727 -400 c 0
 657 -400 584 -341 584 -245 c 0
 584 -232 585 -219 588 -205 c 0
 607 -107 687 -43 756 0 c 1
EndSplineSet
Validated: 1
Layer: 2
EndChar
StartChar: eogonek
Encoding: 281 281 164
GlifName: eogonek
Width: 1024
VWidth: 0
Flags: W
HStem: -395 120<592.905 682.529> -16 120<354.287 603.636> 512 120<337 785.736> 920 120<484.917 730.648>
VStem: 153 130<173.845 510.253> 457 131<-270.551 -123.471> 792 129<634.635 859.417>
LayerCount: 3
Back
Fore
SplineSet
283 301 m 0
 283 173 347 104 476 104 c 0
 569 104 673 113 780 125 c 1
 757 5 l 1
 657 -55 588 -115 588 -216 c 0
 588 -259 617 -275 644 -275 c 0
 665 -275 685 -272 705 -263 c 1
 681 -384 l 1
 655 -393 628 -395 600 -395 c 0
 530 -395 457 -336 457 -240 c 0
 457 -127 536 -57 606 -10 c 1
 554 -14 504 -16 453 -16 c 0
 250 -16 153 103 153 280 c 0
 153 351 168 427 184 512 c 0
 208 637 230 747 284 839 c 0
 348 951 476 1040 638 1040 c 0
 831 1040 921 921 921 761 c 0
 921 687 906 604 888 512 c 1
 312 512 l 1
 298 438 283 364 283 301 c 0
792 745 m 0
 792 857 733 920 615 920 c 0
 518 920 440 874 396 799 c 0
 366 751 352 693 337 632 c 1
 781 632 l 1
 787 671 792 710 792 745 c 0
EndSplineSet
Validated: 1
Layer: 2
EndChar
StartChar: gcircumflex
Encoding: 285 285 192
GlifName: gcircumflex
Width: 1024
VWidth: 0
Flags: W
HStem: -400 120<105.398 474.821> -16 120<344.158 514.867> 920 120<493.366 694.614> 1004 20G<823.16 955> 1388 20G<603.891 808.297>
VStem: 152 133<168.553 518.923>
LayerCount: 3
Back
Fore
SplineSet
754 717 m 0xec
 754 825 712 920 599 920 c 0
 503 920 428 847 387 768 c 0
 347 692 330 604 312 512 c 0
 298 440 285 370 285 307 c 0
 285 199 327 104 440 104 c 0
 536 104 611 177 652 256 c 0
 692 332 710 420 728 512 c 0
 742 584 754 654 754 717 c 0xec
397 -16 m 0
 249 -16 152 96 152 277 c 0
 152 349 167 423 184 512 c 0
 206 624 223 713 268 803 c 0
 344 953 471 1040 602 1040 c 0xec
 685 1040 752 991 793 899 c 1
 803 899 l 1
 827 1024 l 1
 955 1024 l 1xdc
 762 32 l 2
 750 -28 729 -139 648 -241 c 0
 575 -333 466 -400 318 -400 c 0
 228 -400 147 -393 85 -385 c 1
 108 -265 l 1
 170 -272 253 -280 342 -280 c 0
 438 -280 501 -241 549 -182 c 0
 607 -111 625 -15 634 32 c 2
 652 125 l 1
 642 125 l 1
 565 33 480 -16 397 -16 c 0
631 1408 m 1
 789 1408 l 1
 1036 1152 l 1
 878 1152 l 1
 692 1316 l 1
 442 1152 l 1
 284 1152 l 1
 631 1408 l 1
EndSplineSet
Validated: 1
Layer: 2
EndChar
StartChar: gbreve
Encoding: 287 287 194
GlifName: gbreve
Width: 1024
VWidth: 0
Flags: W
HStem: -400 120<105.398 474.821> -16 120<344.158 514.867> 920 120<493.366 694.614> 1004 20G<823.16 955> 1136 120<544.756 826.461> 1388 20G<368.5 498 913.5 1050>
VStem: 152 133<168.553 518.923> 365 130<1302.36 1408>
LayerCount: 3
Back
Fore
SplineSet
754 717 m 0xef
 754 825 712 920 599 920 c 0
 503 920 428 847 387 768 c 0
 347 692 330 604 312 512 c 0
 298 440 285 370 285 307 c 0
 285 199 327 104 440 104 c 0
 536 104 611 177 652 256 c 0
 692 332 710 420 728 512 c 0
 742 584 754 654 754 717 c 0xef
397 -16 m 0
 249 -16 152 96 152 277 c 0
 152 349 167 423 184 512 c 0
 206 624 223 713 268 803 c 0
 344 953 471 1040 602 1040 c 0xef
 685 1040 752 991 793 899 c 1
 803 899 l 1
 827 1024 l 1
 955 1024 l 1xdf
 762 32 l 2
 750 -28 729 -139 648 -241 c 0
 575 -333 466 -400 318 -400 c 0
 228 -400 147 -393 85 -385 c 1
 108 -265 l 1
 170 -272 253 -280 342 -280 c 0
 438 -280 501 -241 549 -182 c 0
 607 -111 625 -15 634 32 c 2
 652 125 l 1
 642 125 l 1
 565 33 480 -16 397 -16 c 0
922 1408 m 1
 1050 1408 l 1
 1017 1240 845 1136 657 1136 c 0
 488 1136 365 1219 365 1358 c 0
 365 1374 367 1391 370 1408 c 1
 498 1408 l 1
 496 1398 495 1389 495 1380 c 0
 495 1308 553 1256 680 1256 c 0
 823 1256 905 1322 922 1408 c 1
EndSplineSet
Validated: 1
Layer: 2
EndChar
StartChar: uni0122
Encoding: 290 290 271
GlifName: uni0122
Width: 1024
VWidth: 0
Flags: W
HStem: -528 120<293 387.22> -16 120<358.6 778.074> 648 120<649 882> 1304 120<593.53 1084.29>
VStem: 72 131<258.415 686.265>
LayerCount: 3
Back
Fore
SplineSet
500 -16 m 0
 206 -16 72 156 72 410 c 0
 72 509 90 609 109 704 c 0
 130 814 155 930 206 1044 c 0
 306 1267 516 1424 810 1424 c 0
 915 1424 1017 1415 1107 1402 c 1
 1083 1282 l 1
 989 1295 882 1304 786 1304 c 0
 556 1304 404 1189 325 1016 c 0
 281 919 258 813 237 704 c 0
 219 610 203 518 203 432 c 0
 203 233 295 104 523 104 c 0
 604 104 693 113 781 128 c 1
 882 648 l 1
 626 648 l 1
 649 768 l 1
 1033 768 l 1
 891 34 l 1
 769 6 634 -16 500 -16 c 0
583 -233 m 2
 571 -293 558 -363 492 -433 c 0
 439 -490 359 -528 269 -528 c 1
 293 -408 l 1
 340 -408 375 -391 401 -363 c 0
 436 -326 445 -283 455 -233 c 2
 475 -128 l 1
 603 -128 l 1
 583 -233 l 2
EndSplineSet
Validated: 1
Layer: 2
EndChar
StartChar: uni0123
Encoding: 291 291 272
GlifName: uni0123
Width: 1024
VWidth: 0
Flags: W
HStem: -400 120<105.398 474.821> -16 120<344.158 514.867> 920 120<493.366 694.614> 1004 20G<823.16 955> 1432 120<683.78 778>
VStem: 152 133<168.553 518.923>
LayerCount: 3
Back
Fore
SplineSet
754 717 m 0xec
 754 825 712 920 599 920 c 0
 503 920 428 847 387 768 c 0
 347 692 330 604 312 512 c 0
 298 440 285 370 285 307 c 0
 285 199 327 104 440 104 c 0
 536 104 611 177 652 256 c 0
 692 332 710 420 728 512 c 0
 742 584 754 654 754 717 c 0xec
397 -16 m 0
 249 -16 152 96 152 277 c 0
 152 349 167 423 184 512 c 0
 206 624 223 713 268 803 c 0
 344 953 471 1040 602 1040 c 0xec
 685 1040 752 991 793 899 c 1
 803 899 l 1
 827 1024 l 1
 955 1024 l 1xdc
 762 32 l 2
 750 -28 729 -139 648 -241 c 0
 575 -333 466 -400 318 -400 c 0
 228 -400 147 -393 85 -385 c 1
 108 -265 l 1
 170 -272 253 -280 342 -280 c 0
 438 -280 501 -241 549 -182 c 0
 607 -111 625 -15 634 32 c 2
 652 125 l 1
 642 125 l 1
 565 33 480 -16 397 -16 c 0
488 1257 m 2
 500 1317 513 1387 579 1457 c 0
 632 1514 712 1552 802 1552 c 1
 778 1432 l 1
 731 1432 696 1415 670 1387 c 0
 635 1350 626 1307 616 1257 c 2
 596 1152 l 1
 468 1152 l 1
 488 1257 l 2
EndSplineSet
Validated: 1
Layer: 2
EndChar
StartChar: hcircumflex
Encoding: 293 293 221
GlifName: hcircumflex
Width: 1024
VWidth: 0
Flags: W
HStem: 0 21G<116 247.894 628 759.894> 792 120<518.941 698.793>
VStem: 747 130<454.609 743.341>
LayerCount: 3
Back
Fore
SplineSet
747 648 m 0
 747 739 685 792 590 792 c 0
 526 792 470 767 431 730 c 0
 376 678 364 616 347 529 c 2
 244 0 l 1
 116 0 l 1
 340 1152 l 1
 468 1152 l 1
 396 784 l 1
 406 784 l 1
 470 861 557 912 633 912 c 0
 782 912 877 816 877 673 c 0
 877 625 868 577 859 529 c 2
 756 0 l 1
 628 0 l 1
 731 529 l 2
 740 575 747 614 747 648 c 0
656 1536 m 1
 814 1536 l 1
 1061 1280 l 1
 903 1280 l 1
 717 1444 l 1
 467 1280 l 1
 309 1280 l 1
 656 1536 l 1
EndSplineSet
Validated: 1
Layer: 2
EndChar
StartChar: hbar
Encoding: 295 295 223
GlifName: hbar
Width: 1024
VWidth: 0
Flags: W
HStem: 0 21G<116 247.894 628 759.894> 792 120<518.941 698.793> 1156 120<236 341 492 853> 1388 20G<386.061 518>
VStem: 747 130<454.609 743.341>
LayerCount: 3
Back
Fore
SplineSet
747 648 m 0
 747 739 685 792 590 792 c 0
 526 792 470 767 431 730 c 0
 376 678 364 616 347 529 c 2
 244 0 l 1
 116 0 l 1
 341 1156 l 1
 213 1156 l 1
 236 1276 l 1
 364 1276 l 1
 390 1408 l 1
 518 1408 l 1
 492 1276 l 1
 876 1276 l 1
 853 1156 l 1
 469 1156 l 1
 396 784 l 1
 406 784 l 1
 470 861 557 912 633 912 c 0
 782 912 877 816 877 673 c 0
 877 625 868 577 859 529 c 2
 756 0 l 1
 628 0 l 1
 731 529 l 2
 740 575 747 614 747 648 c 0
EndSplineSet
Validated: 1
Layer: 2
EndChar
StartChar: itilde
Encoding: 297 297 225
GlifName: itilde
Width: 1024
VWidth: 0
Flags: W
HStem: 0 120<139 395 523 756> 904 120<315 548> 1156 120<751.291 867.541> 1284 120<502.515 618.709>
VStem: 342 127<1177 1251.7> 901 127<1308.7 1383>
LayerCount: 3
Back
Fore
SplineSet
558 1284 m 0
 507 1284 482 1225 469 1171 c 1
 342 1177 l 1
 369 1295 452 1404 581 1404 c 0
 727 1404 735 1276 812 1276 c 0
 863 1276 888 1335 901 1389 c 1
 1028 1383 l 1
 1002 1267 918 1156 789 1156 c 0
 643 1156 635 1284 558 1284 c 0
116 0 m 1
 139 120 l 1
 395 120 l 1
 548 904 l 1
 292 904 l 1
 315 1024 l 1
 699 1024 l 1
 523 120 l 1
 779 120 l 1
 756 0 l 1
 116 0 l 1
EndSplineSet
Validated: 1
Layer: 2
EndChar
StartChar: ibreve
Encoding: 301 301 229
GlifName: ibreve
Width: 1024
VWidth: 0
Flags: W
HStem: 0 120<139 395 523 756> 904 120<315 548> 1136 120<544.756 826.461> 1388 20G<368.5 498 913.5 1050>
VStem: 365 130<1302.36 1408> 922 128<1341.03 1408>
LayerCount: 3
Back
Fore
SplineSet
922 1408 m 1
 1050 1408 l 1
 1017 1240 845 1136 657 1136 c 0
 488 1136 365 1219 365 1358 c 0
 365 1374 367 1391 370 1408 c 1
 498 1408 l 1
 496 1398 495 1389 495 1380 c 0
 495 1308 553 1256 680 1256 c 0
 823 1256 905 1322 922 1408 c 1
116 0 m 1
 139 120 l 1
 395 120 l 1
 548 904 l 1
 292 904 l 1
 315 1024 l 1
 699 1024 l 1
 523 120 l 1
 779 120 l 1
 756 0 l 1
 116 0 l 1
EndSplineSet
Validated: 1
Layer: 2
EndChar
StartChar: Iogonek
Encoding: 302 302 230
GlifName: I_ogonek
Width: 1024
VWidth: 0
Flags: W
HStem: -400 120<474.622 681.775> 0 120<139 395 523 628> 1288 120<390 622 750 1006>
VStem: 329 131<-261.517 -150.108>
LayerCount: 3
Back
Fore
SplineSet
329 -233 m 0
 329 -59 554 -63 628 0 c 1
 116 0 l 1
 139 120 l 1
 395 120 l 1
 622 1288 l 1
 366 1288 l 1
 390 1408 l 1
 1030 1408 l 1
 1006 1288 l 1
 750 1288 l 1
 523 120 l 1
 779 120 l 1
 756 0 l 1
 697 -92 460 -101 460 -211 c 0
 460 -261 520 -280 573 -280 c 0
 619 -280 664 -270 705 -260 c 1
 682 -383 l 1
 640 -391 595 -400 549 -400 c 0
 444 -400 329 -336 329 -233 c 0
EndSplineSet
Validated: 1
Layer: 2
EndChar
StartChar: iogonek
Encoding: 303 303 231
GlifName: iogonek
Width: 1024
VWidth: 0
Flags: W
HStem: -400 120<474.622 681.775> 0 120<139 395 523 628> 904 120<315 548> 1200 224<592.391 725.821>
VStem: 329 131<-261.517 -150.108> 545 229<1247.56 1376.78>
LayerCount: 3
Back
Fore
SplineSet
545 1287 m 0
 545 1369 610 1424 681 1424 c 0
 738 1424 774 1389 774 1337 c 0
 774 1255 708 1200 637 1200 c 0
 580 1200 545 1235 545 1287 c 0
573 -280 m 0
 619 -280 664 -270 705 -260 c 1
 682 -383 l 1
 640 -391 595 -400 549 -400 c 0
 444 -400 329 -336 329 -233 c 0
 329 -59 554 -63 628 0 c 1
 116 0 l 1
 139 120 l 1
 395 120 l 1
 548 904 l 1
 292 904 l 1
 315 1024 l 1
 699 1024 l 1
 523 120 l 1
 779 120 l 1
 756 0 l 1
 697 -92 460 -101 460 -211 c 0
 460 -261 520 -280 573 -280 c 0
EndSplineSet
Validated: 1
Layer: 2
EndChar
StartChar: dotlessi
Encoding: 305 305 233
GlifName: dotlessi
Width: 1024
VWidth: 0
Flags: W
HStem: 0 21G<436 567.887> 904 120<379 612>
VStem: 356 407
AnchorPoint: "top" 699 1024 basechar 0
LayerCount: 3
Back
Fore
SplineSet
436 0 m 1
 612 904 l 1
 356 904 l 1
 379 1024 l 1
 763 1024 l 1
 564 0 l 1
 436 0 l 1
EndSplineSet
Validated: 1
Layer: 2
EndChar
StartChar: IJ
Encoding: 306 306 234
GlifName: I_J_
Width: 1024
VWidth: 0
Flags: W
HStem: -399 120<192.062 595.343> 0 120<11 139 267 372> 1160 120<237 341 469 597>
VStem: 1005 128<1224.75 1280>
LayerCount: 3
Back
Fore
SplineSet
781 129 m 2
 1005 1280 l 1
 1133 1280 l 1
 909 129 l 2
 886 12 864 -97 807 -190 c 0
 737 -304 616 -399 454 -399 c 0
 338 -399 248 -385 171 -375 c 1
 195 -254 l 1
 270 -265 367 -279 471 -279 c 0
 570 -279 643 -230 695 -148 c 0
 741 -75 761 27 781 129 c 2
621 1280 m 1
 597 1160 l 1
 469 1160 l 1
 267 120 l 1
 395 120 l 1
 372 0 l 1
 -12 0 l 1
 11 120 l 1
 139 120 l 1
 341 1160 l 1
 213 1160 l 1
 237 1280 l 1
 621 1280 l 1
EndSplineSet
Validated: 1
Layer: 2
EndChar
StartChar: ij
Encoding: 307 307 235
GlifName: ij
Width: 1024
VWidth: 0
Flags: W
HStem: -400 120<188.618 506.616> 0 120<11 139 267 372> 904 120<187 292 699 804> 1200 224<336.391 469.821 848.391 981.821>
VStem: 289 229<1247.56 1376.78> 801 229<1247.56 1376.78>
LayerCount: 3
Back
Fore
SplineSet
192 -265 m 1
 245 -273 314 -280 382 -280 c 0
 449 -280 504 -256 543 -218 c 0
 596 -166 608 -102 625 -14 c 2
 804 904 l 1
 676 904 l 1
 699 1024 l 1
 955 1024 l 1
 751 -24 l 2
 733 -115 715 -210 631 -292 c 0
 567 -355 474 -400 368 -400 c 0
 293 -400 227 -394 169 -385 c 1
 192 -265 l 1
801 1287 m 0
 801 1369 866 1424 937 1424 c 0
 994 1424 1030 1389 1030 1337 c 0
 1030 1255 964 1200 893 1200 c 0
 836 1200 801 1235 801 1287 c 0
289 1287 m 0
 289 1369 354 1424 425 1424 c 0
 482 1424 518 1389 518 1337 c 0
 518 1255 452 1200 381 1200 c 0
 324 1200 289 1235 289 1287 c 0
-12 0 m 1
 11 120 l 1
 139 120 l 1
 292 904 l 1
 164 904 l 1
 187 1024 l 1
 443 1024 l 1
 267 120 l 1
 395 120 l 1
 372 0 l 1
 -12 0 l 1
EndSplineSet
Validated: 1
Layer: 2
EndChar
StartChar: uni0136
Encoding: 310 310 273
GlifName: uni0136
Width: 1024
VWidth: 0
Flags: W
HStem: -528 120<165 259.22> 0 21G<-12 119.875 744.877 922> 1388 20G<258.108 390 932.569 1103>
LayerCount: 3
Back
Fore
SplineSet
116 0 m 1
 -12 0 l 1
 262 1408 l 1
 390 1408 l 1
 265 765 l 1
 954 1408 l 1
 1103 1408 l 1
 507 827 l 1
 922 0 l 1
 755 0 l 1
 386 729 l 1
 228 578 l 1
 116 0 l 1
455 -233 m 2
 443 -293 430 -363 364 -433 c 0
 311 -490 231 -528 141 -528 c 1
 165 -408 l 1
 212 -408 247 -391 273 -363 c 0
 308 -326 317 -283 327 -233 c 2
 347 -128 l 1
 475 -128 l 1
 455 -233 l 2
EndSplineSet
Validated: 1
Layer: 2
EndChar
StartChar: uni0137
Encoding: 311 311 274
GlifName: uni0137
Width: 1024
VWidth: 0
Flags: W
HStem: -528 120<165 259.22> 0 21G<116 247.908 697.857 862> 1004 20G<829.682 1014> 1388 20G<386.108 518>
LayerCount: 3
Back
Fore
SplineSet
244 0 m 1
 116 0 l 1
 390 1408 l 1
 518 1408 l 1
 361 602 l 1
 853 1024 l 1
 1014 1024 l 1
 577 645 l 1
 862 0 l 1
 706 0 l 1
 478 560 l 1
 329 435 l 1
 244 0 l 1
455 -233 m 2
 443 -293 430 -363 364 -433 c 0
 311 -490 231 -528 141 -528 c 1
 165 -408 l 1
 212 -408 247 -391 273 -363 c 0
 308 -326 317 -283 327 -233 c 2
 347 -128 l 1
 475 -128 l 1
 455 -233 l 2
EndSplineSet
Validated: 1
Layer: 2
EndChar
StartChar: Lacute
Encoding: 313 313 278
GlifName: L_acute
Width: 1024
VWidth: 0
Flags: W
HStem: 0 120<267 884>
LayerCount: 3
Back
Fore
SplineSet
341 1280 m 1
 557 1536 l 1
 695 1536 l 1
 479 1280 l 1
 341 1280 l 1
116 0 m 1
 340 1152 l 1
 468 1152 l 1
 267 120 l 1
 907 120 l 1
 884 0 l 1
 116 0 l 1
EndSplineSet
Validated: 1
Layer: 2
Substitution2: "'ss14' Style Set 14 lookup 13 subtable" Lacute.sq
EndChar
StartChar: lacute
Encoding: 314 314 279
GlifName: lacute
Width: 1024
VWidth: 0
Flags: W
HStem: -16 120<564.049 754>
VStem: 414 130<123.756 388.125>
LayerCount: 3
Back
Fore
SplineSet
544 203 m 0
 544 139 578 104 648 104 c 0
 690 104 740 106 777 109 c 1
 754 -11 l 1
 716 -13 670 -16 615 -16 c 0
 543 -16 489 9 455 52 c 0
 423 93 414 138 414 181 c 0
 414 217 421 251 426 279 c 2
 596 1152 l 1
 724 1152 l 1
 554 279 l 2
 549 253 544 227 544 203 c 0
597 1280 m 1
 813 1536 l 1
 951 1536 l 1
 735 1280 l 1
 597 1280 l 1
EndSplineSet
Validated: 1
Layer: 2
EndChar
StartChar: uni013B
Encoding: 315 315 280
GlifName: uni013B_
Width: 1024
VWidth: 0
Flags: W
HStem: -528 120<165 259.22> 0 120<267 884> 1388 20G<386.108 518>
LayerCount: 3
Back
Fore
SplineSet
116 0 m 1
 390 1408 l 1
 518 1408 l 1
 267 120 l 1
 907 120 l 1
 884 0 l 1
 116 0 l 1
455 -233 m 2
 443 -293 430 -363 364 -433 c 0
 311 -490 231 -528 141 -528 c 1
 165 -408 l 1
 212 -408 247 -391 273 -363 c 0
 308 -326 317 -283 327 -233 c 2
 347 -128 l 1
 475 -128 l 1
 455 -233 l 2
EndSplineSet
Validated: 1
Layer: 2
EndChar
StartChar: uni013C
Encoding: 316 316 281
GlifName: uni013C_
Width: 1024
VWidth: 0
Flags: W
HStem: -528 120<293 387.22> -16 120<564.049 754> 1388 20G<642.103 774>
VStem: 414 130<123.756 384.844> 646 128<1352.82 1408>
LayerCount: 3
Back
Fore
SplineSet
544 203 m 0
 544 139 578 104 648 104 c 0
 690 104 740 106 777 109 c 1
 754 -11 l 1
 716 -13 670 -16 615 -16 c 0
 543 -16 489 9 455 52 c 0
 423 93 414 138 414 181 c 0
 414 217 421 251 426 279 c 2
 646 1408 l 1
 774 1408 l 1
 554 279 l 2
 549 253 544 227 544 203 c 0
583 -233 m 2
 571 -293 558 -363 492 -433 c 0
 439 -490 359 -528 269 -528 c 1
 293 -408 l 1
 340 -408 375 -391 401 -363 c 0
 436 -326 445 -283 455 -233 c 2
 475 -128 l 1
 603 -128 l 1
 583 -233 l 2
EndSplineSet
Validated: 1
Layer: 2
EndChar
StartChar: lcaron
Encoding: 318 318 277
GlifName: lcaron
Width: 1024
VWidth: 0
Flags: W
HStem: -16 120<308.049 498> 1024 21G<827 958.906> 1388 20G<386.103 518 898.094 1030>
VStem: 158 130<123.756 384.844> 390 128<1352.82 1408>
LayerCount: 3
Back
Fore
SplineSet
288 203 m 0
 288 139 322 104 392 104 c 0
 434 104 484 106 521 109 c 1
 498 -11 l 1
 460 -13 414 -16 359 -16 c 0
 287 -16 233 9 199 52 c 0
 167 93 158 138 158 181 c 0
 158 217 165 251 170 279 c 2
 390 1408 l 1
 518 1408 l 1
 298 279 l 2
 293 253 288 227 288 203 c 0
902 1408 m 1
 1030 1408 l 1
 955 1024 l 1
 827 1024 l 1
 902 1408 l 1
EndSplineSet
Validated: 1
Layer: 2
EndChar
StartChar: Ldot
Encoding: 319 319 282
GlifName: L_dot
Width: 1024
VWidth: 0
Flags: W
HStem: 0 120<267 884> 720 224<657.188 793.812> 1388 20G<386.108 518>
VStem: 611 229<767.224 896.776>
LayerCount: 3
Back
Fore
SplineSet
611 807 m 0
 611 889 676 944 747 944 c 0
 804 944 840 909 840 857 c 0
 840 775 775 720 704 720 c 0
 647 720 611 755 611 807 c 0
116 0 m 1
 390 1408 l 1
 518 1408 l 1
 267 120 l 1
 907 120 l 1
 884 0 l 1
 116 0 l 1
EndSplineSet
Validated: 1
Layer: 2
EndChar
StartChar: ldot
Encoding: 320 320 283
GlifName: ldot
Width: 1024
VWidth: 0
Flags: W
HStem: -16 120<436.049 626> 720 224<785.188 921.812> 1388 20G<514.103 646>
VStem: 286 130<123.756 384.844> 518 128<1352.82 1408> 739 229<767.224 896.776>
LayerCount: 3
Back
Fore
SplineSet
416 203 m 0
 416 139 450 104 520 104 c 0
 562 104 612 106 649 109 c 1
 626 -11 l 1
 588 -13 542 -16 487 -16 c 0
 415 -16 361 9 327 52 c 0
 295 93 286 138 286 181 c 0
 286 217 293 251 298 279 c 2
 518 1408 l 1
 646 1408 l 1
 426 279 l 2
 421 253 416 227 416 203 c 0
739 807 m 0
 739 889 804 944 875 944 c 0
 932 944 968 909 968 857 c 0
 968 775 903 720 832 720 c 0
 775 720 739 755 739 807 c 0
EndSplineSet
Validated: 1
Layer: 2
EndChar
StartChar: lslash
Encoding: 322 322 285
GlifName: lslash
Width: 1024
VWidth: 0
Flags: W
HStem: -16 120<564.049 756.606> 1388 20G<642.104 774>
VStem: 414 130<123.756 389.242>
LayerCount: 3
Back
Fore
SplineSet
544 203 m 0
 544 139 578 104 648 104 c 0
 685 104 737 113 780 121 c 1
 756 -2 l 1
 712 -9 665 -16 615 -16 c 0
 543 -16 489 9 455 52 c 0
 423 93 414 138 414 181 c 0
 414 217 421 251 426 279 c 2
 474 523 l 1
 223 366 l 1
 173 467 l 1
 503 674 l 1
 646 1408 l 1
 774 1408 l 1
 649 765 l 1
 899 922 l 1
 955 825 l 1
 619 614 l 1
 554 279 l 2
 549 253 544 227 544 203 c 0
EndSplineSet
Validated: 1
Layer: 2
EndChar
StartChar: nacute
Encoding: 324 324 239
GlifName: nacute
Width: 1024
VWidth: 0
Flags: W
HStem: 0 21G<116 247.896 628 759.896> 920 120<543.941 723.793> 1004 20G<311.113 443> 1388 20G<771.125 926>
VStem: 772 130<585.141 871.341>
LayerCount: 3
Back
Fore
SplineSet
772 776 m 0xd8
 772 867 710 920 615 920 c 0xd8
 551 920 495 895 456 858 c 0
 401 806 389 744 372 657 c 2
 244 0 l 1
 116 0 l 1
 315 1024 l 1
 443 1024 l 1xb8
 421 912 l 1
 431 912 l 1
 495 989 582 1040 658 1040 c 0
 807 1040 902 944 902 801 c 0
 902 753 893 705 884 657 c 2
 756 0 l 1
 628 0 l 1
 756 657 l 2
 765 703 772 742 772 776 c 0xd8
572 1152 m 1
 788 1408 l 1
 926 1408 l 1
 710 1152 l 1
 572 1152 l 1
EndSplineSet
Validated: 1
Layer: 2
EndChar
StartChar: uni0145
Encoding: 325 325 240
GlifName: uni0145
Width: 1024
VWidth: 0
Flags: W
HStem: -528 120<165 259.22> 0 21G<-12 119.885 748.909 887.892> 1388 20G<258.108 396.108 1026.11 1158>
LayerCount: 3
Back
Fore
SplineSet
116 0 m 1
 -12 0 l 1
 262 1408 l 1
 389 1408 l 1
 797 260 l 1
 807 260 l 1
 1030 1408 l 1
 1158 1408 l 1
 884 0 l 1
 756 0 l 1
 349 1148 l 1
 339 1148 l 1
 116 0 l 1
455 -233 m 2
 443 -293 430 -363 364 -433 c 0
 311 -490 231 -528 141 -528 c 1
 165 -408 l 1
 212 -408 247 -391 273 -363 c 0
 308 -326 317 -283 327 -233 c 2
 347 -128 l 1
 475 -128 l 1
 455 -233 l 2
EndSplineSet
Validated: 1
Layer: 2
EndChar
StartChar: uni0146
Encoding: 326 326 241
GlifName: uni0146
Width: 1024
VWidth: 0
Flags: W
HStem: -528 120<165 259.22> 0 21G<116 247.896 628 759.896> 920 120<543.941 723.793> 1004 20G<311.113 443>
VStem: 772 130<585.141 871.341>
LayerCount: 3
Back
Fore
SplineSet
772 776 m 0xe8
 772 867 710 920 615 920 c 0xe8
 551 920 495 895 456 858 c 0
 401 806 389 744 372 657 c 2
 244 0 l 1
 116 0 l 1
 315 1024 l 1
 443 1024 l 1xd8
 421 912 l 1
 431 912 l 1
 495 989 582 1040 658 1040 c 0
 807 1040 902 944 902 801 c 0
 902 753 893 705 884 657 c 2
 756 0 l 1
 628 0 l 1
 756 657 l 2
 765 703 772 742 772 776 c 0xe8
455 -233 m 2
 443 -293 430 -363 364 -433 c 0
 311 -490 231 -528 141 -528 c 1
 165 -408 l 1
 212 -408 247 -391 273 -363 c 0
 308 -326 317 -283 327 -233 c 2
 347 -128 l 1
 475 -128 l 1
 455 -233 l 2
EndSplineSet
Validated: 1
Layer: 2
EndChar
StartChar: Eng
Encoding: 330 330 245
GlifName: E_ng
Width: 1024
VWidth: 0
Flags: W
HStem: -400 120<350.552 634.616> 0 21G<-12 119.885> 1388 20G<258.108 396.108 1026.11 1158>
LayerCount: 3
Back
Fore
SplineSet
116 0 m 1
 -12 0 l 1
 262 1408 l 1
 389 1408 l 1
 797 260 l 1
 807 260 l 1
 1030 1408 l 1
 1158 1408 l 1
 1065 931 972 453 879 -24 c 0
 862 -114 843 -210 759 -292 c 0
 695 -355 602 -400 496 -400 c 0
 421 -400 357 -385 301 -365 c 1
 326 -237 l 1
 377 -259 442 -280 510 -280 c 0
 577 -280 632 -256 671 -218 c 0
 727 -163 738 -93 756 0 c 1
 349 1148 l 1
 339 1148 l 1
 116 0 l 1
EndSplineSet
Validated: 1
Layer: 2
EndChar
StartChar: eng
Encoding: 331 331 246
GlifName: eng
Width: 1024
VWidth: 0
Flags: W
HStem: -400 120<317.937 540.681> 0 21G<116 247.896> 920 120<543.941 723.793> 1004 20G<311.113 443>
VStem: 772 130<585.562 871.341>
LayerCount: 3
Back
Fore
SplineSet
772 776 m 0xe8
 772 867 710 920 615 920 c 0xe8
 551 920 495 895 456 858 c 0
 401 806 389 744 372 657 c 2
 244 0 l 1
 116 0 l 1
 315 1024 l 1
 443 1024 l 1xd8
 421 912 l 1
 431 912 l 1
 495 989 582 1040 658 1040 c 0
 807 1040 902 944 902 801 c 0
 902 753 893 705 884 657 c 0
 835 403 785 149 736 -105 c 0
 724 -165 711 -235 645 -305 c 0
 592 -362 512 -400 422 -400 c 0
 387 -400 343 -393 298 -383 c 1
 321 -260 l 1
 367 -271 412 -280 446 -280 c 0
 493 -280 528 -263 554 -235 c 0
 589 -198 598 -155 608 -105 c 0
 657 149 707 403 756 657 c 0
 765 703 772 742 772 776 c 0xe8
EndSplineSet
Validated: 1
Layer: 2
EndChar
StartChar: obreve
Encoding: 335 335 250
GlifName: obreve
Width: 1024
VWidth: 0
Flags: W
HStem: -16 120<347.354 579.284> 920 120<491.716 723.437> 1136 120<544.756 826.461> 1388 20G<368.5 498 913.5 1050>
VStem: 154 129<168.206 527.214> 365 130<1302.36 1408> 787 129<484.395 855.594>
LayerCount: 3
Back
Fore
SplineSet
433 -16 m 0
 260 -16 154 96 154 278 c 0
 154 347 167 425 184 512 c 0
 213 662 246 788 320 880 c 0
 400 978 511 1040 638 1040 c 0
 811 1040 916 927 916 746 c 0
 916 677 905 599 888 512 c 0
 859 362 825 236 751 144 c 0
 671 46 560 -16 433 -16 c 0
787 724 m 0
 787 843 736 920 615 920 c 0
 531 920 466 881 420 822 c 0
 359 744 335 629 312 512 c 0
 298 438 283 364 283 300 c 0
 283 181 335 104 456 104 c 0
 540 104 605 143 651 202 c 0
 712 280 737 395 760 512 c 0
 774 586 787 660 787 724 c 0
922 1408 m 1
 1050 1408 l 1
 1017 1240 845 1136 657 1136 c 0
 488 1136 365 1219 365 1358 c 0
 365 1374 367 1391 370 1408 c 1
 498 1408 l 1
 496 1398 495 1389 495 1380 c 0
 495 1308 553 1256 680 1256 c 0
 823 1256 905 1322 922 1408 c 1
EndSplineSet
Validated: 1
Layer: 2
EndChar
StartChar: OE
Encoding: 338 338 253
GlifName: O_E_
Width: 1024
VWidth: 0
Flags: W
HStem: 0 120<269.409 523 651 884> 644 120<777 1009> 1288 120<486.453 750 878 1134>
VStem: 65 130<197.453 647.005>
CounterMasks: 1 e0
LayerCount: 3
Back
Fore
SplineSet
195 369 m 0
 195 219 229 120 395 120 c 2
 523 120 l 1
 750 1288 l 1
 750 1288 702 1288 622 1288 c 0
 482 1288 404 1214 352 1101 c 0
 294 976 264 841 237 704 c 0
 215 589 195 476 195 369 c 0
372 0 m 2
 150 0 65 126 65 344 c 0
 65 459 87 589 109 704 c 0
 171 1021 262 1408 646 1408 c 2
 1158 1408 l 1
 1134 1288 l 1
 878 1288 l 1
 777 764 l 1
 1033 764 l 1
 1009 644 l 1
 753 644 l 1
 651 120 l 1
 907 120 l 1
 884 0 l 1
 372 0 l 2
EndSplineSet
Validated: 1
Layer: 2
EndChar
StartChar: oe
Encoding: 339 339 254
GlifName: oe
Width: 1024
VWidth: 0
Flags: W
HStem: -16 120<190.674 318.197 612.085 883.203> 512 120<624 915.444> 920 120<335.197 466.683 750.001 893.163>
VStem: 23 131<139.369 511.975> 925 126<634.542 890.5>
LayerCount: 3
Back
Fore
SplineSet
248 104 m 0
 310 104 367 186 392 238 c 0
 430 317 454 417 472 512 c 0
 487 591 501 674 501 745 c 0
 501 861 459 920 407 920 c 0
 344 920 290 841 265 790 c 0
 226 710 203 608 184 512 c 0
 169 433 154 350 154 279 c 0
 154 203 178 104 248 104 c 0
852 1040 m 0
 999 1040 1051 906 1051 776 c 0
 1051 708 1038 641 1026 577 c 2
 1014 512 l 1
 600 512 l 1
 591 469 l 2
 578 403 567 335 567 277 c 0
 567 177 600 104 712 104 c 0
 768 104 845 119 909 129 c 1
 885 7 l 1
 820 -3 748 -16 686 -16 c 0
 581 -16 503 34 473 148 c 1
 463 148 l 1
 417 61 339 -16 225 -16 c 0
 77 -16 23 123 23 255 c 0
 23 333 38 422 56 512 c 0
 80 636 107 755 162 852 c 0
 211 938 310 1040 430 1040 c 0
 550 1040 589 954 600 863 c 1
 610 863 l 1
 676 973 757 1040 852 1040 c 0
925 774 m 0
 925 850 899 920 829 920 c 0
 756 920 700 842 668 773 c 0
 647 729 635 682 624 632 c 1
 910 632 l 1
 919 682 925 731 925 774 c 0
EndSplineSet
Validated: 1
Layer: 2
EndChar
StartChar: uni0156
Encoding: 342 342 257
GlifName: uni0156
Width: 1024
VWidth: 0
Flags: W
HStem: -528 120<165 259.22> 0 21G<-7 124.875 664.355 802> 640 120<269 551> 1288 120<371 768.912>
VStem: 854 131<940.2 1206.6>
LayerCount: 3
Back
Fore
SplineSet
121 0 m 1
 -7 0 l 1
 267 1408 l 1
 588 1408 l 2
 665 1408 717 1408 769 1395 c 0
 898 1363 985 1259 985 1109 c 0
 985 906 850 734 681 670 c 1
 802 0 l 1
 668 0 l 1
 551 642 l 1
 518 640 482 640 438 640 c 2
 245 640 l 1
 121 0 l 1
462 760 m 2
 538 760 578 762 616 770 c 0
 745 798 854 927 854 1087 c 0
 854 1188 800 1258 714 1278 c 0
 680 1286 640 1288 564 1288 c 2
 371 1288 l 1
 269 760 l 1
 462 760 l 2
455 -233 m 2
 443 -293 430 -363 364 -433 c 0
 311 -490 231 -528 141 -528 c 1
 165 -408 l 1
 212 -408 247 -391 273 -363 c 0
 308 -326 317 -283 327 -233 c 2
 347 -128 l 1
 475 -128 l 1
 455 -233 l 2
EndSplineSet
Validated: 1
Layer: 2
EndChar
StartChar: uni0157
Encoding: 343 343 258
GlifName: uni0157
Width: 1024
VWidth: 0
Flags: W
HStem: -528 120<37 131.22> 0 21G<116 247.874> 920 120<610.835 934.808> 1004 20G<311.113 443>
LayerCount: 3
Back
Fore
SplineSet
755 920 m 0xe0
 663 920 586 894 526 847 c 0
 388 740 358 589 336 475 c 2
 244 0 l 1
 116 0 l 1
 315 1024 l 1
 443 1024 l 1xd0
 412 865 l 1
 422 865 l 1
 517 967 623 1040 778 1040 c 0
 844 1040 900 1034 956 1027 c 1
 932 907 l 1
 876 914 820 920 755 920 c 0xe0
327 -233 m 2
 315 -293 302 -363 236 -433 c 0
 183 -490 103 -528 13 -528 c 1
 37 -408 l 1
 84 -408 119 -391 145 -363 c 0
 180 -326 189 -283 199 -233 c 2
 219 -128 l 1
 347 -128 l 1
 327 -233 l 2
EndSplineSet
Validated: 1
Layer: 2
EndChar
StartChar: rcaron
Encoding: 345 345 260
GlifName: rcaron
Width: 1024
VWidth: 0
Flags: W
HStem: 0 21G<116 247.874> 920 120<610.835 934.808> 1004 20G<311.113 443> 1388 20G<334 514.683 897.512 1086>
LayerCount: 3
Back
Fore
SplineSet
755 920 m 0xd0
 663 920 586 894 526 847 c 0
 388 740 358 589 336 475 c 2
 244 0 l 1
 116 0 l 1
 315 1024 l 1
 443 1024 l 1xb0
 412 865 l 1
 422 865 l 1
 517 967 623 1040 778 1040 c 0
 844 1040 900 1034 956 1027 c 1
 932 907 l 1
 876 914 820 920 755 920 c 0xd0
581 1152 m 1
 334 1408 l 1
 492 1408 l 1
 678 1244 l 1
 928 1408 l 1
 1086 1408 l 1
 739 1152 l 1
 581 1152 l 1
EndSplineSet
Validated: 1
Layer: 2
EndChar
StartChar: scircumflex
Encoding: 349 349 264
GlifName: scircumflex
Width: 1024
VWidth: 0
Flags: W
HStem: -16 120<136.675 591.761> 920 120<461.568 922.37> 1398 20G<601.891 806.297>
VStem: 240 130<673.894 840.365> 724 130<233.428 445.356>
LayerCount: 3
Back
Fore
SplineSet
-1031 1170 m 1048,0,-1
424 -16 m 0,1,-1
 321 -16 204 -4 117 6 c 1,4,-1
 140 126 l 1,5,-1
 223 116 350 104 447 104 c 0,8,-1
 647 104 724 247 724 349 c 0,11,-1
 724 410 695 454 653 478 c 0,14,-1
 576 522 464 499 367 540 c 0,17,-1
 300 568 240 634 240 729 c 0,20,-1
 240 895 395 1040 634 1040 c 0,23,-1
 751 1040 859 1028 944 1019 c 1,26,-1
 921 899 l 1,27,-1
 835 908 714 920 611 920 c 0,30,-1
 442 920 370 832 370 751 c 0,33,-1
 370 702 400 667 437 652 c 0,36,-1
 523 616 639 640 736 584 c 0,39,-1
 806 544 854 470 854 371 c 0,42,-1
 854 172 681 -16 424 -16 c 0,1,-1
629 1418 m 1,45,-1
 787 1418 l 1,46,-1
 1034 1162 l 1,47,-1
 876 1162 l 1,48,-1
 690 1326 l 1,49,-1
 440 1162 l 1,50,-1
 282 1162 l 1,51,-1
 629 1418 l 1,45,-1
EndSplineSet
Validated: 1
Layer: 2
EndChar
StartChar: Scedilla
Encoding: 350 350 265
GlifName: S_cedilla
Width: 1024
VWidth: 0
Flags: W
HStem: -400 120<189.937 412.681> -16 120<147.444 497> 1304 120<589.745 1099.59>
VStem: 281 130<874.719 1131.12> 867 130<300.364 560.977>
LayerCount: 3
Back
Fore
SplineSet
477 -16 m 0
 343 -16 226 -2 113 16 c 1
 137 139 l 1
 248 121 372 104 500 104 c 0
 719 104 867 261 867 443 c 0
 867 536 820 603 751 632 c 0
 646 678 530 650 411 721 c 0
 332 768 281 855 281 967 c 0
 281 1210 486 1424 757 1424 c 0
 893 1424 1011 1411 1122 1399 c 1
 1098 1278 l 1
 988 1290 858 1304 733 1304 c 0
 546 1304 411 1161 411 989 c 0
 411 913 445 856 497 825 c 0
 585 773 713 788 820 742 c 0
 921 699 997 603 997 465 c 0
 997 232 823 59 629 5 c 1
 608 -105 l 2
 596 -165 583 -235 517 -305 c 0
 464 -362 384 -400 294 -400 c 0
 259 -400 215 -393 170 -383 c 1
 193 -260 l 1
 239 -271 284 -280 318 -280 c 0
 365 -280 400 -263 426 -235 c 0
 461 -198 470 -155 480 -105 c 2
 497 -16 l 1
 490 -16 484 -16 477 -16 c 0
EndSplineSet
Validated: 1
Layer: 2
EndChar
StartChar: scedilla
Encoding: 351 351 266
GlifName: scedilla
Width: 1024
VWidth: 0
Flags: W
HStem: -393 120<191.454 414.255> -16 120<136.675 494.26> 920 120<462.222 922.514>
VStem: 240 130<674.662 840.907> 724 130<231.034 445.356>
LayerCount: 3
Back
Fore
SplineSet
609 -98 m 2
 597 -158 583 -228 518 -298 c 0
 465 -355 386 -393 296 -393 c 0
 261 -393 216 -386 171 -376 c 1
 195 -253 l 1
 241 -264 285 -273 319 -273 c 0
 366 -273 401 -256 428 -228 c 0
 463 -191 471 -148 481 -98 c 2
 498 -11 l 1
 474 -14 450 -16 424 -16 c 0
 321 -16 204 -4 117 6 c 1
 140 126 l 1
 223 116 350 104 447 104 c 0
 647 104 724 247 724 349 c 0
 724 410 695 454 653 478 c 0
 576 522 464 499 367 540 c 0
 300 569 240 632 240 730 c 0
 240 895 396 1040 634 1040 c 0
 751 1040 858 1023 942 1009 c 1
 919 889 l 1
 834 902 714 920 611 920 c 0
 444 920 370 834 370 750 c 0
 370 702 401 668 437 652 c 0
 523 616 639 640 736 584 c 0
 806 544 854 470 854 371 c 0
 854 229 766 97 634 31 c 1
 609 -98 l 2
EndSplineSet
Validated: 1
Layer: 2
EndChar
StartChar: scaron
Encoding: 353 353 268
GlifName: scaron
Width: 1024
VWidth: 0
Flags: W
HStem: -16 120<136.675 591.761> 920 120<461.568 922.37> 1398 20G<332 512.683 895.512 1084>
VStem: 240 130<673.894 840.365> 724 130<233.428 445.356>
LayerCount: 3
Back
Fore
SplineSet
424 -16 m 0
 321 -16 204 -4 117 6 c 1
 140 126 l 1
 223 116 350 104 447 104 c 0
 647 104 724 247 724 349 c 0
 724 410 695 454 653 478 c 0
 576 522 464 499 367 540 c 0
 300 568 240 634 240 729 c 0
 240 895 395 1040 634 1040 c 0
 751 1040 859 1028 944 1019 c 1
 921 899 l 1
 835 908 714 920 611 920 c 0
 442 920 370 832 370 751 c 0
 370 702 400 667 437 652 c 0
 523 616 639 640 736 584 c 0
 806 544 854 470 854 371 c 0
 854 172 681 -16 424 -16 c 0
579 1162 m 1
 332 1418 l 1
 490 1418 l 1
 676 1254 l 1
 926 1418 l 1
 1084 1418 l 1
 737 1162 l 1
 579 1162 l 1
EndSplineSet
Validated: 1
Layer: 2
EndChar
StartChar: uni0162
Encoding: 354 354 269
GlifName: uni0162
Width: 1024
VWidth: 0
Flags: W
HStem: -400 120<61.9374 284.681> 1288 120<262 622 750 1134>
LayerCount: 3
Back
Fore
SplineSet
480 -105 m 2
 467 -169 455 -235 389 -305 c 0
 336 -362 256 -400 166 -400 c 0
 131 -400 87 -393 42 -383 c 1
 65 -260 l 1
 111 -271 156 -280 190 -280 c 0
 237 -280 272 -263 298 -235 c 0
 333 -198 342 -156 352 -105 c 2
 622 1288 l 1
 238 1288 l 1
 262 1408 l 1
 1158 1408 l 1
 1134 1288 l 1
 750 1288 l 1
 480 -105 l 2
EndSplineSet
Validated: 1
Layer: 2
EndChar
StartChar: uni0163
Encoding: 355 355 270
GlifName: uni0163
Width: 1024
VWidth: 0
Flags: W
HStem: -400 120<189.937 412.681> -12 116<486 498 626 756.325> 898 126<187 419 571 931>
VStem: 296 131<150.74 435.828>
LayerCount: 3
Back
Fore
SplineSet
427 246 m 0
 427 153 486 104 584 104 c 0
 652 104 726 125 785 147 c 1
 760 19 l 1
 717 6 673 -5 626 -11 c 1
 608 -105 l 2
 596 -165 583 -235 517 -305 c 0
 464 -362 384 -400 294 -400 c 0
 259 -400 215 -393 170 -383 c 1
 193 -260 l 1
 239 -271 284 -280 318 -280 c 0
 365 -280 400 -263 426 -235 c 0
 461 -198 470 -155 480 -105 c 2
 498 -12 l 1
 377 6 296 90 296 220 c 0
 296 267 305 315 314 360 c 2
 419 898 l 1
 163 898 l 1
 187 1024 l 1
 443 1024 l 1
 493 1280 l 1
 621 1280 l 1
 571 1024 l 1
 955 1024 l 1
 931 898 l 1
 547 898 l 1
 444 370 l 2
 435 323 427 282 427 246 c 0
EndSplineSet
Validated: 1
Layer: 2
EndChar
StartChar: tcaron
Encoding: 357 357 287
GlifName: tcaron
Width: 1024
VWidth: 0
Flags: W
HStem: -16 120<476.061 755.844> 770 126<162 394 546 906>
VStem: 296 131<152.466 437.812>
LayerCount: 3
Back
Fore
SplineSet
427 246 m 0
 427 149 491 104 594 104 c 0
 658 104 726 112 779 119 c 1
 756 -1 l 1
 697 -9 632 -16 561 -16 c 0
 402 -16 296 70 296 220 c 0
 296 267 305 315 314 360 c 2
 394 770 l 1
 138 770 l 1
 162 896 l 1
 418 896 l 1
 493 1280 l 1
 621 1280 l 1
 546 896 l 1
 930 896 l 1
 906 770 l 1
 522 770 l 1
 444 370 l 2
 435 323 427 282 427 246 c 0
927 1536 m 1
 1055 1536 l 1
 980 1152 l 1
 852 1152 l 1
 927 1536 l 1
EndSplineSet
Validated: 1
Layer: 2
EndChar
StartChar: tbar
Encoding: 359 359 289
GlifName: tbar
Width: 1024
VWidth: 0
Flags: W
HStem: -16 120<474.819 755.844> 520 120<112 345 496 857> 898 126<187 419 571 931>
VStem: 296 131<149.521 440.156>
LayerCount: 3
Back
Fore
SplineSet
756 -1 m 1
 697 -9 632 -16 561 -16 c 0
 451 -16 371 28 330 92 c 0
 305 132 296 175 296 220 c 0
 296 267 305 315 314 360 c 2
 345 520 l 1
 89 520 l 1
 112 640 l 1
 368 640 l 1
 419 898 l 1
 163 898 l 1
 187 1024 l 1
 443 1024 l 1
 493 1280 l 1
 621 1280 l 1
 571 1024 l 1
 955 1024 l 1
 931 898 l 1
 547 898 l 1
 496 640 l 1
 880 640 l 1
 857 520 l 1
 473 520 l 1
 444 370 l 2
 435 323 427 282 427 246 c 0
 427 216 432 190 447 166 c 0
 472 127 523 104 594 104 c 0
 658 104 726 112 779 119 c 1
 756 -1 l 1
EndSplineSet
Validated: 1
Layer: 2
EndChar
StartChar: utilde
Encoding: 361 361 198
GlifName: utilde
Width: 1024
VWidth: 0
Flags: W
HStem: -16 120<347.207 527.059> 0 21G<628 759.887> 1004 20G<311.104 443 823.104 955> 1156 120<751.291 867.541> 1284 120<502.515 618.709>
VStem: 169 130<152.659 438.859>
LayerCount: 3
Back
Fore
SplineSet
558 1284 m 0x3c
 507 1284 482 1225 469 1171 c 1
 342 1177 l 1
 369 1295 452 1404 581 1404 c 0
 727 1404 735 1276 812 1276 c 0
 863 1276 888 1335 901 1389 c 1
 1028 1383 l 1
 1002 1267 918 1156 789 1156 c 0
 643 1156 635 1284 558 1284 c 0x3c
299 248 m 0
 299 157 361 104 456 104 c 0xbc
 520 104 576 129 615 166 c 0
 670 218 682 280 699 367 c 2
 827 1024 l 1
 955 1024 l 1
 756 0 l 1
 628 0 l 1x7c
 650 112 l 1
 640 112 l 1
 576 35 489 -16 413 -16 c 0xbc
 264 -16 169 80 169 223 c 0
 169 271 178 319 187 367 c 2
 315 1024 l 1
 443 1024 l 1
 315 367 l 2
 306 321 299 282 299 248 c 0
EndSplineSet
Validated: 1
Layer: 2
EndChar
StartChar: ubreve
Encoding: 365 365 202
GlifName: ubreve
Width: 1024
VWidth: 0
Flags: W
HStem: -16 120<347.207 527.059> 0 21G<628 759.887> 1004 20G<311.104 443 823.104 955> 1136 120<544.756 826.461> 1388 20G<368.5 498 913.5 1050>
VStem: 169 130<152.659 438.859> 365 130<1302.36 1408>
LayerCount: 3
Back
Fore
SplineSet
922 1408 m 1x3e
 1050 1408 l 1
 1017 1240 845 1136 657 1136 c 0
 488 1136 365 1219 365 1358 c 0
 365 1374 367 1391 370 1408 c 1
 498 1408 l 1
 496 1398 495 1389 495 1380 c 0
 495 1308 553 1256 680 1256 c 0
 823 1256 905 1322 922 1408 c 1x3e
299 248 m 0
 299 157 361 104 456 104 c 0xbe
 520 104 576 129 615 166 c 0
 670 218 682 280 699 367 c 2
 827 1024 l 1
 955 1024 l 1
 756 0 l 1
 628 0 l 1x7e
 650 112 l 1
 640 112 l 1
 576 35 489 -16 413 -16 c 0xbe
 264 -16 169 80 169 223 c 0
 169 271 178 319 187 367 c 2
 315 1024 l 1
 443 1024 l 1
 315 367 l 2
 306 321 299 282 299 248 c 0
EndSplineSet
Validated: 1
Layer: 2
EndChar
StartChar: uring
Encoding: 367 367 204
GlifName: uring
Width: 1024
VWidth: 0
Flags: W
HStem: -16 120<347.207 527.059> 0 21G<628 759.887> 1004 20G<311.104 443 823.104 955> 1038 100<575.9 750.33> 1394 100<613.67 788.1>
VStem: 169 130<152.659 438.859> 449 109<1155.94 1338.48> 806 109<1193.52 1376.06>
LayerCount: 3
Back
Fore
SplineSet
726 1494 m 0x3f
 844 1494 915 1416 915 1313 c 0
 915 1298 913 1282 910 1266 c 0
 886 1141 773 1038 638 1038 c 0
 520 1038 449 1116 449 1219 c 0
 449 1234 451 1250 454 1266 c 0
 478 1391 591 1494 726 1494 c 0x3f
657 1138 m 0
 735 1138 806 1195 806 1302 c 0
 806 1365 766 1394 707 1394 c 0
 629 1394 558 1337 558 1230 c 0
 558 1167 598 1138 657 1138 c 0
299 248 m 0
 299 157 361 104 456 104 c 0xbf
 520 104 576 129 615 166 c 0
 670 218 682 280 699 367 c 2
 827 1024 l 1
 955 1024 l 1
 756 0 l 1
 628 0 l 1x7f
 650 112 l 1
 640 112 l 1
 576 35 489 -16 413 -16 c 0xbf
 264 -16 169 80 169 223 c 0
 169 271 178 319 187 367 c 2
 315 1024 l 1
 443 1024 l 1
 315 367 l 2
 306 321 299 282 299 248 c 0
EndSplineSet
Validated: 1
Layer: 2
EndChar
StartChar: Uogonek
Encoding: 370 370 207
GlifName: U_ogonek
Width: 1024
VWidth: 0
Flags: W
HStem: -400 120<335.905 425.529> 1388 20G<258.116 390 1026.12 1158>
VStem: 62 130<216.747 540> 200 131<-275.551 -128.99>
LayerCount: 3
Back
Fore
SplineSet
200 -245 m 0
 200 -126 289 -55 358 -10 c 1
 173 18 62 145 62 324 c 0
 62 383 73 435 88 512 c 2
 262 1408 l 1
 390 1408 l 1
 216 512 l 2
 203 444 192 389 192 344 c 0
 192 199 292 104 456 104 c 0
 616 104 749 196 808 330 c 0
 829 378 841 437 856 512 c 2
 1030 1408 l 1
 1158 1408 l 1
 984 512 l 2
 967 426 956 371 927 303 c 0
 854 134 687 8 490 -13 c 1
 395 -69 331 -125 331 -221 c 0
 331 -264 360 -280 387 -280 c 0
 408 -280 428 -277 448 -268 c 1
 424 -389 l 1
 398 -398 371 -400 343 -400 c 0
 273 -400 200 -341 200 -245 c 0
EndSplineSet
Validated: 1
Layer: 2
EndChar
StartChar: uogonek
Encoding: 371 371 208
GlifName: uogonek
Width: 1024
VWidth: 0
Flags: W
HStem: -400 120<591.905 681.529> -16 120<347.207 527.059> 1004 20G<311.104 443 823.104 955>
VStem: 169 130<152.659 438.859> 456 131<-275.551 -129.444>
LayerCount: 3
Back
Fore
SplineSet
299 248 m 0
 299 157 361 104 456 104 c 0
 520 104 576 129 615 166 c 0
 670 218 682 280 699 367 c 2
 827 1024 l 1
 955 1024 l 1
 756 0 l 1
 656 -60 587 -120 587 -221 c 0
 587 -264 616 -280 643 -280 c 0
 664 -280 684 -277 704 -268 c 1
 680 -389 l 1
 654 -398 627 -400 599 -400 c 0
 529 -400 456 -341 456 -245 c 0
 456 -120 553 -47 628 0 c 1
 650 112 l 1
 640 112 l 1
 576 35 489 -16 413 -16 c 0
 264 -16 169 80 169 223 c 0
 169 271 178 319 187 367 c 2
 315 1024 l 1
 443 1024 l 1
 315 367 l 2
 306 321 299 282 299 248 c 0
EndSplineSet
Validated: 1
Layer: 2
EndChar
StartChar: wcircumflex
Encoding: 373 373 210
GlifName: wcircumflex
Width: 1024
VWidth: 0
Flags: W
HStem: 0 21G<117 250.481 629.295 755> 1003 21G<143 296 564.587 697.64 946.5 1105> 1388 20G<603.891 808.297>
VStem: 100 113<213.647 723.528> 601 96<686.793 823> 630 93<210 305.134> 974 131<879.418 1024>
LayerCount: 3
Back
Fore
SplineSet
573 1023 m 1xfa
 697 1023 l 1xfa
 723 210 l 1
 733 210 l 1
 857 461 919 741 974 1024 c 1
 1105 1024 l 1
 1038 681 921 340 755 2 c 1
 630 0 l 1xf6
 601 823 l 1
 591 823 l 1
 242 0 l 1
 117 2 l 1
 105 118 100 235 100 352 c 0
 100 575 121 799 165 1024 c 1
 296 1024 l 1
 252 797 213 572 213 362 c 0
 213 310 216 260 221 210 c 1
 231 210 l 1
 573 1023 l 1xfa
631 1408 m 1
 789 1408 l 1
 1036 1152 l 1
 878 1152 l 1
 692 1316 l 1
 442 1152 l 1
 284 1152 l 1
 631 1408 l 1
EndSplineSet
Validated: 1
Layer: 2
EndChar
StartChar: zacute
Encoding: 378 378 215
GlifName: zacute
Width: 1024
VWidth: 0
Flags: W
HStem: 0 120<284 756> 904 120<335 767> 1388 20G<771.125 926>
LayerCount: 3
Back
Fore
SplineSet
572 1152 m 1
 788 1408 l 1
 926 1408 l 1
 710 1152 l 1
 572 1152 l 1
312 904 m 1
 335 1024 l 1
 935 1024 l 1
 918 934 l 1
 286 130 l 1
 284 120 l 1
 779 120 l 1
 756 0 l 1
 116 0 l 1
 134 92 l 1
 765 894 l 1
 767 904 l 1
 312 904 l 1
EndSplineSet
Validated: 1
Layer: 2
EndChar
StartChar: zdotaccent
Encoding: 380 380 217
GlifName: zdotaccent
Width: 1024
VWidth: 0
Flags: W
HStem: 0 120<284 756> 904 120<335 767> 1200 224<624.391 757.821>
VStem: 577 229<1247.56 1376.44>
LayerCount: 3
Back
Fore
SplineSet
713 1424 m 0
 770 1424 806 1389 806 1337 c 0
 806 1329 805 1321 803 1312 c 0
 790 1246 735 1200 669 1200 c 0
 612 1200 577 1235 577 1287 c 0
 577 1295 577 1303 579 1312 c 0
 592 1378 647 1424 713 1424 c 0
312 904 m 1
 335 1024 l 1
 935 1024 l 1
 918 934 l 1
 286 130 l 1
 284 120 l 1
 779 120 l 1
 756 0 l 1
 116 0 l 1
 134 92 l 1
 765 894 l 1
 767 904 l 1
 312 904 l 1
EndSplineSet
Validated: 1
Layer: 2
EndChar
StartChar: longs
Encoding: 383 383 495
GlifName: longs
Width: 1024
VWidth: 0
Flags: W
HStem: 0 21G<244 375.88> 776 120<162 395> 1304 120<658.531 1009.14>
LayerCount: 3
Back
Fore
SplineSet
372 0 m 1
 244 0 l 1
 395 776 l 1
 139 776 l 1
 162 896 l 1
 418 896 l 1
 463 1129 l 2
 473 1181 488 1259 554 1329 c 0
 609 1388 698 1424 797 1424 c 0
 877 1424 969 1415 1030 1408 c 1
 1006 1288 l 1
 945 1295 850 1304 773 1304 c 0
 717 1304 674 1289 645 1259 c 0
 610 1222 600 1173 591 1129 c 2
 372 0 l 1
EndSplineSet
Validated: 1
Layer: 2
EndChar
StartChar: uni018F
Encoding: 399 399 600
GlifName: uni018F_
Width: 1024
VWidth: 0
Flags: W
HStem: -16 120<321.777 601.969> 648 120<220.246 898> 1304 120<313.049 774.254>
VStem: 68 131<239.532 643.034> 943 131<771.436 1142.53>
LayerCount: 3
Back
Fore
SplineSet
199 404 m 0
 199 243 270 104 456 104 c 0
 636 104 756 235 821 382 c 0
 855 462 879 553 898 648 c 1
 226 648 l 1
 210 561 199 479 199 404 c 0
433 -16 m 0
 178 -16 68 167 68 388 c 0
 68 486 90 609 121 768 c 1
 921 768 l 1
 933 839 943 910 943 976 c 0
 943 1179 838 1304 592 1304 c 0
 496 1304 387 1295 287 1282 c 1
 311 1402 l 1
 407 1415 511 1424 616 1424 c 0
 927 1424 1074 1255 1074 998 c 0
 1074 899 1056 799 1037 704 c 0
 1012 577 987 458 941 355 c 0
 853 155 678 -16 433 -16 c 0
EndSplineSet
Validated: 1
Layer: 2
EndChar
StartChar: uni01EA
Encoding: 490 490 436
GlifName: uni01E_A_
Width: 1024
VWidth: 0
Flags: W
HStem: -354 120<329.327 427> 1304 120<543.531 821.484>
VStem: 68 131<240.375 663.208> 195 126<-226.015 -102.23> 947 131<744.792 1166.82>
LayerCount: 3
Back
Fore
SplineSet
385 -234 m 0xd8
 408 -234 430 -233 450 -229 c 1
 427 -349 l 1
 401 -353 372 -354 342 -354 c 0
 276 -354 195 -291 195 -189 c 0xd8
 195 -105 277 -49 355 -10 c 1
 154 24 68 193 68 392 c 0xe8
 68 486 87 592 109 704 c 0
 134 831 159 950 205 1053 c 0
 293 1253 468 1424 713 1424 c 0
 970 1424 1078 1239 1078 1016 c 0
 1078 922 1059 816 1037 704 c 0
 1012 577 987 458 941 355 c 0
 857 165 695 1 469 -15 c 1
 367 -59 321 -99 321 -162 c 0
 321 -215 356 -234 385 -234 c 0xd8
947 1003 m 0
 947 1164 876 1304 689 1304 c 0
 509 1304 389 1173 324 1026 c 0
 283 930 260 820 237 704 c 0
 216 597 199 495 199 405 c 0xe8
 199 244 269 104 456 104 c 0
 636 104 756 235 821 382 c 0
 862 478 886 588 909 704 c 0
 930 811 947 913 947 1003 c 0
EndSplineSet
Validated: 1
Layer: 2
EndChar
StartChar: uni01EB
Encoding: 491 491 437
GlifName: uni01E_B_
Width: 1024
VWidth: 0
Flags: W
HStem: -400 120<335.905 425.529> 920 120<491.686 722.563>
VStem: 154 130<171.119 529.386> 200 131<-275.551 -127.391> 787 131<494.614 853.509>
LayerCount: 3
Back
Fore
SplineSet
615 920 m 0xe8
 404 920 349 702 312 512 c 0
 297 437 284 364 284 300 c 0
 284 181 337 104 456 104 c 0
 667 104 723 322 760 512 c 0
 775 587 787 660 787 724 c 0
 787 843 734 920 615 920 c 0xe8
358 -8 m 1
 218 23 154 130 154 283 c 0xe8
 154 353 168 427 184 512 c 0
 208 633 229 734 285 829 c 0
 354 945 478 1040 638 1040 c 0
 829 1040 918 914 918 741 c 0
 918 671 904 597 888 512 c 0
 864 391 842 290 786 195 c 0
 732 105 619 10 477 -11 c 1
 392 -66 331 -136 331 -221 c 0
 331 -264 360 -280 387 -280 c 0
 408 -280 428 -277 448 -268 c 1
 424 -389 l 1
 398 -398 371 -400 343 -400 c 0
 273 -400 200 -341 200 -245 c 0xd8
 200 -127 286 -55 358 -8 c 1
EndSplineSet
Validated: 1
Layer: 2
EndChar
StartChar: uni0201
Encoding: 513 513 439
GlifName: uni0201
Width: 1024
VWidth: 0
Flags: W
HStem: -16 120<314.202 506.422> 0 21G<628 759.899> 512 110<385.44 728> 920 120<379.349 762.114> 1388 20G<366 513.062 750 897.062>
VStem: 135 131<151.579 381.918> 784 130<640.461 897.451>
LayerCount: 3
Back
Fore
SplineSet
728 512 m 1xbe
 532 512 l 2
 477 512 418 512 357 458 c 0
 305 412 266 334 266 254 c 0
 266 168 315 104 412 104 c 0
 642 104 695 341 720 471 c 2
 728 512 l 1xbe
670 1040 m 0
 734 1040 805 1032 854 987 c 0
 888 955 914 913 914 848 c 0
 914 810 906 772 902 749 c 2
 756 0 l 1
 628 0 l 1x7e
 652 123 l 1
 642 123 l 1
 561 35 474 -16 365 -16 c 0
 229 -16 135 82 135 228 c 0
 135 335 186 457 276 533 c 0
 383 622 493 622 555 622 c 2
 749 622 l 1
 773 744 l 2
 778 772 784 800 784 825 c 0
 784 887 748 920 647 920 c 0
 559 920 445 910 355 899 c 1
 378 1021 l 1
 467 1031 578 1040 670 1040 c 0
1004 1152 m 1
 866 1152 l 1
 750 1408 l 1
 888 1408 l 1
 1004 1152 l 1
620 1152 m 1
 482 1152 l 1
 366 1408 l 1
 504 1408 l 1
 620 1152 l 1
EndSplineSet
Validated: 1
Layer: 2
EndChar
StartChar: uni0202
Encoding: 514 514 440
GlifName: uni0202
Width: 1024
VWidth: 0
Flags: W
HStem: 0 21G<-35 119.5 777 908> 384 120<306 762> 1432 120<568.23 849.982>
VStem: 345 128<1280 1346.97> 780 130<0 370.327> 900 130<1280 1385.64>
LayerCount: 3
Back
Fore
SplineSet
606 1152 m 1xf8
 714 1152 l 1
 855 864 910 555 910 154 c 0
 910 104 909 53 907 0 c 1
 777 0 l 1
 779 54 780 107 780 158 c 0
 780 237 778 312 773 384 c 1
 249 384 l 1
 195 266 144 139 95 0 c 1
 -35 0 l 1
 136 478 322 829 606 1152 c 1xf8
306 504 m 1
 762 504 l 1
 741 686 700 848 636 1005 c 1
 626 1005 l 1
 501 849 397 686 306 504 c 1
897 1280 m 1
 899 1290 900 1299 900 1308 c 0
 900 1380 841 1432 714 1432 c 0
 571 1432 490 1366 473 1280 c 1
 345 1280 l 1
 378 1448 550 1552 738 1552 c 0
 907 1552 1030 1469 1030 1330 c 0xf4
 1030 1314 1028 1297 1025 1280 c 1
 897 1280 l 1
EndSplineSet
Validated: 1
Layer: 2
Substitution2: "'ss14' Style Set 14 lookup 13 subtable" uni0202.sq
EndChar
StartChar: uni0203
Encoding: 515 515 441
GlifName: uni0203
Width: 1024
VWidth: 0
Flags: W
HStem: -16 120<314.202 506.422> 0 21G<628 759.899> 512 110<385.44 728> 920 120<379.349 762.114> 1304 120<543.23 824.982>
VStem: 135 131<151.579 381.918> 320 128<1152 1218.97> 784 129<638.555 897.451> 875 130<1152.63 1257.64>
LayerCount: 3
Back
Fore
SplineSet
728 512 m 1xbe
 532 512 l 2
 477 512 418 512 357 458 c 0
 305 412 266 334 266 254 c 0
 266 168 315 104 412 104 c 0
 642 104 695 341 720 471 c 2
 728 512 l 1xbe
670 1040 m 0
 734 1040 805 1032 854 987 c 0
 888 955 913 913 913 848 c 0
 913 810 906 772 902 749 c 2
 756 0 l 1
 628 0 l 1x7f
 652 123 l 1
 642 123 l 1
 561 35 474 -16 365 -16 c 0
 229 -16 135 82 135 228 c 0
 135 335 186 457 276 533 c 0
 383 622 493 622 555 622 c 2
 749 622 l 1
 773 744 l 2
 778 772 784 800 784 825 c 0xbf
 784 887 748 920 647 920 c 0
 559 920 445 910 355 899 c 1
 378 1021 l 1
 467 1031 578 1040 670 1040 c 0
872 1152 m 1
 874 1162 875 1171 875 1180 c 0
 875 1252 816 1304 689 1304 c 0
 546 1304 465 1238 448 1152 c 1
 320 1152 l 1
 353 1320 525 1424 713 1424 c 0
 882 1424 1005 1341 1005 1202 c 0x3e80
 1005 1186 1003 1169 1000 1152 c 1
 872 1152 l 1
EndSplineSet
Validated: 1
Layer: 2
EndChar
StartChar: uni0206
Encoding: 518 518 444
GlifName: uni0206
Width: 1024
VWidth: 0
Flags: W
HStem: 0 120<267 884> 516 120<368 856> 1032 120<445 1085> 1432 120<568.23 849.982>
VStem: 345 128<1280 1346.97> 900 130<1280 1385.64>
LayerCount: 3
Back
Fore
SplineSet
897 1280 m 1
 899 1290 900 1299 900 1308 c 0
 900 1380 841 1432 714 1432 c 0
 571 1432 490 1366 473 1280 c 1
 345 1280 l 1
 378 1448 550 1552 738 1552 c 0
 907 1552 1030 1469 1030 1330 c 0
 1030 1314 1028 1297 1025 1280 c 1
 897 1280 l 1
340 1152 m 1
 1108 1152 l 1
 1085 1032 l 1
 445 1032 l 1
 368 636 l 1
 880 636 l 1
 856 516 l 1
 344 516 l 1
 267 120 l 1
 907 120 l 1
 884 0 l 1
 116 0 l 1
 340 1152 l 1
EndSplineSet
Validated: 1
Layer: 2
Substitution2: "'ss14' Style Set 14 lookup 13 subtable" uni0206.sq
EndChar
StartChar: uni0207
Encoding: 519 519 445
GlifName: uni0207
Width: 1024
VWidth: 0
Flags: W
HStem: -16 120<350.972 753.509> 512 120<337 785.736> 920 120<484.729 730.6> 1304 120<543.23 824.982>
VStem: 153 130<173.845 510.253> 320 128<1152 1218.97> 792 129<634.658 860.023> 875 130<1152 1257.64>
LayerCount: 3
Back
Fore
SplineSet
792 745 m 0xfe
 792 857 733 920 615 920 c 0
 518 920 439 874 396 799 c 0
 366 751 352 693 337 632 c 1
 781 632 l 1
 787 672 792 710 792 745 c 0xfe
283 301 m 0
 283 173 347 104 476 104 c 0
 569 104 673 113 780 125 c 1
 757 5 l 1
 651 -7 553 -16 453 -16 c 0
 253 -16 153 103 153 280 c 0
 153 351 168 427 184 512 c 0
 208 637 230 747 284 839 c 0
 348 951 476 1040 638 1040 c 0
 811 1040 921 941 921 761 c 0
 921 687 906 604 888 512 c 1
 312 512 l 1
 298 438 283 364 283 301 c 0
872 1152 m 1
 874 1162 875 1171 875 1180 c 0
 875 1252 816 1304 689 1304 c 0
 546 1304 465 1238 448 1152 c 1
 320 1152 l 1
 353 1320 525 1424 713 1424 c 0
 882 1424 1005 1341 1005 1202 c 0xfd
 1005 1186 1003 1169 1000 1152 c 1
 872 1152 l 1
EndSplineSet
Validated: 1
Layer: 2
EndChar
StartChar: uni020F
Encoding: 527 527 453
GlifName: uni020F_
Width: 1024
VWidth: 0
Flags: W
HStem: -16 120<347.354 579.284> 920 120<491.716 723.437> 1304 120<543.23 824.982>
VStem: 154 129<168.206 527.214> 320 128<1152 1218.97> 787 129<484.395 855.594> 875 130<1152.63 1257.64>
LayerCount: 3
Back
Fore
SplineSet
433 -16 m 0xfc
 260 -16 154 96 154 278 c 0
 154 347 167 425 184 512 c 0
 213 662 246 788 320 880 c 0
 400 978 511 1040 638 1040 c 0
 811 1040 916 927 916 746 c 0
 916 677 905 599 888 512 c 0
 859 362 825 236 751 144 c 0
 671 46 560 -16 433 -16 c 0xfc
787 724 m 0
 787 843 736 920 615 920 c 0
 531 920 466 881 420 822 c 0
 359 744 335 629 312 512 c 0
 298 438 283 364 283 300 c 0
 283 181 335 104 456 104 c 0
 540 104 605 143 651 202 c 0
 712 280 737 395 760 512 c 0
 774 586 787 660 787 724 c 0
872 1152 m 1
 874 1162 875 1171 875 1180 c 0
 875 1252 816 1304 689 1304 c 0
 546 1304 465 1238 448 1152 c 1
 320 1152 l 1
 353 1320 525 1424 713 1424 c 0
 882 1424 1005 1341 1005 1202 c 0xfa
 1005 1186 1003 1169 1000 1152 c 1
 872 1152 l 1
EndSplineSet
Validated: 1
Layer: 2
EndChar
StartChar: uni0213
Encoding: 531 531 457
GlifName: uni0213
Width: 1024
VWidth: 0
Flags: W
HStem: 0 21G<116 247.874> 920 120<610.835 934.808> 1004 20G<311.113 443> 1304 120<543.23 824.982>
VStem: 875 130<1152 1257.64>
LayerCount: 3
Back
Fore
SplineSet
755 920 m 0xd8
 663 920 586 894 526 847 c 0
 388 740 358 589 336 475 c 2
 244 0 l 1
 116 0 l 1
 315 1024 l 1
 443 1024 l 1xb8
 412 865 l 1
 422 865 l 1
 517 967 623 1040 778 1040 c 0
 844 1040 900 1034 956 1027 c 1
 932 907 l 1
 876 914 820 920 755 920 c 0xd8
872 1152 m 1
 874 1162 875 1171 875 1180 c 0
 875 1252 816 1304 689 1304 c 0
 546 1304 465 1238 448 1152 c 1
 320 1152 l 1
 353 1320 525 1424 713 1424 c 0
 882 1424 1005 1341 1005 1202 c 0
 1005 1186 1003 1169 1000 1152 c 1
 872 1152 l 1
EndSplineSet
Validated: 1
Layer: 2
EndChar
StartChar: uni0217
Encoding: 535 535 461
GlifName: uni0217
Width: 1024
VWidth: 0
Flags: W
HStem: -16 120<348.059 527.059> 0 21G<628 759.887> 1004 20G<311.104 443 823.104 955> 1304 120<543.23 824.982>
VStem: 169 130<151.435 438.859> 315 128<994.476 1024 1152 1211.92> 875 130<1152 1257.64>
LayerCount: 3
Back
Fore
SplineSet
872 1152 m 1x3e
 874 1162 875 1171 875 1180 c 0
 875 1252 816 1304 689 1304 c 0
 546 1304 465 1238 448 1152 c 1
 320 1152 l 1
 353 1320 525 1424 713 1424 c 0
 882 1424 1005 1341 1005 1202 c 0
 1005 1186 1003 1169 1000 1152 c 1
 872 1152 l 1x3e
413 -16 m 0xbe
 313 -16 241 29 203 91 c 0
 177 133 169 178 169 223 c 0
 169 271 178 319 187 367 c 2
 315 1024 l 1
 443 1024 l 1
 315 367 l 2
 306 321 299 282 299 248 c 0
 299 217 305 190 321 166 c 0
 346 129 392 104 456 104 c 0xbe
 520 104 576 129 615 166 c 0
 670 218 682 280 699 367 c 2
 827 1024 l 1
 955 1024 l 1
 756 0 l 1
 628 0 l 1x7e
 650 112 l 1
 640 112 l 1
 576 35 489 -16 413 -16 c 0xbe
EndSplineSet
Validated: 1
Layer: 2
EndChar
StartChar: uni0218
Encoding: 536 536 462
GlifName: uni0218
Width: 1024
VWidth: 0
Flags: W
HStem: -400 120<318 421.806> -16 120<135.525 659.348> 1304 120<588.616 1099.59>
VStem: 281 130<875.185 1124.74> 475 128<-223.671 -128> 867 130<304.693 560.977>
LayerCount: 3
Back
Fore
SplineSet
477 -16 m 0
 343 -16 226 -2 113 16 c 1
 137 139 l 1
 248 121 372 104 500 104 c 0
 679 104 827 209 861 385 c 0
 865 405 867 425 867 443 c 0
 867 536 820 603 751 632 c 0
 646 678 530 650 411 721 c 0
 332 768 281 855 281 967 c 0
 281 992 284 1018 289 1045 c 0
 332 1266 522 1424 757 1424 c 0
 893 1424 1011 1411 1122 1399 c 1
 1098 1278 l 1
 988 1290 858 1304 733 1304 c 0
 568 1304 447 1198 417 1045 c 0
 413 1026 411 1007 411 989 c 0
 411 913 445 856 497 825 c 0
 585 773 713 788 820 742 c 0
 921 699 997 603 997 465 c 0
 997 440 994 413 989 385 c 0
 942 143 726 -16 477 -16 c 0
515 -315 m 0
 464 -367 384 -400 294 -400 c 1
 318 -280 l 1
 365 -280 401 -268 424 -245 c 0
 459 -211 466 -173 475 -128 c 1
 518 -128 560 -128 603 -128 c 1
 592 -184 580 -249 515 -315 c 0
EndSplineSet
Validated: 1
Layer: 2
EndChar
StartChar: uni0219
Encoding: 537 537 463
GlifName: uni0219
Width: 1024
VWidth: 0
Flags: W
HStem: -400 120<318 421.806> -16 120<136.675 591.761> 920 120<461.568 922.37>
VStem: 240 130<673.894 840.365> 475 128<-223.671 -128> 724 130<233.428 445.356>
LayerCount: 3
Back
Fore
SplineSet
424 -16 m 0
 321 -16 204 -4 117 6 c 1
 140 126 l 1
 223 116 350 104 447 104 c 0
 647 104 724 247 724 349 c 0
 724 410 695 454 653 478 c 0
 576 522 464 499 367 540 c 0
 300 568 240 634 240 729 c 0
 240 895 395 1040 634 1040 c 0
 751 1040 859 1028 944 1019 c 1
 921 899 l 1
 835 908 714 920 611 920 c 0
 442 920 370 832 370 751 c 0
 370 702 400 667 437 652 c 0
 523 616 639 640 736 584 c 0
 806 544 854 470 854 371 c 0
 854 172 681 -16 424 -16 c 0
515 -315 m 0
 464 -367 384 -400 294 -400 c 1
 318 -280 l 1
 365 -280 401 -268 424 -245 c 0
 459 -211 466 -173 475 -128 c 1
 518 -128 560 -128 603 -128 c 1
 592 -184 580 -249 515 -315 c 0
EndSplineSet
Validated: 1
Layer: 2
EndChar
StartChar: uni021A
Encoding: 538 538 464
GlifName: uni021A_
Width: 1024
VWidth: 0
Flags: W
HStem: -400 120<190 293.806> 0 21G<372 503.879> 1160 120<237 597 725 1109>
VStem: 597 128<1104.57 1160>
LayerCount: 3
Back
Fore
SplineSet
387 -315 m 0
 336 -367 256 -400 166 -400 c 1
 190 -280 l 1
 237 -280 273 -268 296 -245 c 0
 331 -211 338 -173 347 -128 c 1
 390 -128 432 -128 475 -128 c 1
 464 -184 452 -249 387 -315 c 0
1133 1280 m 1
 1109 1160 l 1
 725 1160 l 1
 500 0 l 1
 372 0 l 1
 597 1160 l 1
 213 1160 l 1
 237 1280 l 1
 1133 1280 l 1
EndSplineSet
Validated: 1
Layer: 2
EndChar
StartChar: uni021B
Encoding: 539 539 465
GlifName: uni021B_
Width: 1024
VWidth: 0
Flags: W
HStem: -400 120<318 421.806> -16 120<475.422 753.669> 898 126<187 419 571 931>
VStem: 296 131<149.738 435.828> 475 128<-223.671 -128>
LayerCount: 3
Back
Fore
SplineSet
515 -315 m 0
 464 -367 384 -400 294 -400 c 1
 318 -280 l 1
 365 -280 401 -268 424 -245 c 0
 459 -211 466 -173 475 -128 c 1
 518 -128 560 -128 603 -128 c 1
 592 -184 580 -249 515 -315 c 0
427 246 m 0
 427 153 486 104 584 104 c 0
 652 104 726 125 785 147 c 1
 760 19 l 1
 696 -1 626 -16 551 -16 c 0
 398 -16 296 74 296 220 c 0
 296 267 305 315 314 360 c 2
 419 898 l 1
 163 898 l 1
 187 1024 l 1
 443 1024 l 1
 493 1280 l 1
 621 1280 l 1
 571 1024 l 1
 955 1024 l 1
 931 898 l 1
 547 898 l 1
 444 370 l 2
 435 323 427 282 427 246 c 0
EndSplineSet
Validated: 1
Layer: 2
EndChar
StartChar: uni0237
Encoding: 567 567 292
GlifName: uni0237
Width: 1024
VWidth: 0
Flags: W
HStem: -400 120<60.6184 378.616> 904 120<443 676>
LayerCount: 3
Back
Fore
SplineSet
64 -265 m 1
 117 -273 186 -280 254 -280 c 0
 321 -280 376 -256 415 -218 c 0
 468 -166 480 -102 497 -14 c 2
 676 904 l 1
 420 904 l 1
 443 1024 l 1
 827 1024 l 1
 623 -24 l 2
 605 -115 587 -210 503 -292 c 0
 439 -355 346 -400 240 -400 c 0
 165 -400 99 -394 41 -385 c 1
 64 -265 l 1
EndSplineSet
Validated: 1
Layer: 2
EndChar
StartChar: uni0259
Encoding: 601 601 434
GlifName: uni0259
Width: 1024
VWidth: 0
Flags: W
HStem: -16 120<340.352 586.271> 392 120<285.264 734> 920 120<317.491 717.244>
VStem: 150 129<163.181 389.342> 788 130<513.747 850.155>
LayerCount: 3
Back
Fore
SplineSet
279 279 m 0
 279 167 338 104 456 104 c 0
 553 104 632 150 675 225 c 0
 705 273 719 331 734 392 c 1
 290 392 l 1
 284 352 279 314 279 279 c 0
788 723 m 0
 788 851 724 920 595 920 c 0
 502 920 398 911 291 899 c 1
 314 1019 l 1
 420 1031 518 1040 618 1040 c 0
 824 1040 918 921 918 744 c 0
 918 673 905 597 888 512 c 0
 864 387 841 277 787 185 c 0
 723 73 595 -16 433 -16 c 0
 240 -16 150 96 150 263 c 0
 150 337 166 420 184 512 c 1
 760 512 l 1
 774 586 788 660 788 723 c 0
EndSplineSet
Validated: 1
Layer: 2
EndChar
StartChar: uni025C
Encoding: 604 604 522
GlifName: uni025C_
Width: 1024
VWidth: 0
Flags: W
HStem: -16 120<263.326 590.936> 512 120<367 658.149> 920 120<415.074 750.547>
VStem: 724 131<229.689 450.068> 803 130<711.619 871.65>
LayerCount: 3
Back
Fore
SplineSet
744 563 m 1xe8
 824 520 855 456 855 378 c 0
 855 146 651 -16 433 -16 c 0
 330 -16 226 15 125 44 c 1
 149 170 l 1
 253 140 365 104 456 104 c 0
 595 104 724 200 724 350 c 0xf0
 724 430 676 486 603 503 c 0
 569 511 528 512 482 512 c 2
 344 512 l 1
 367 632 l 1
 413 632 460 632 506 632 c 0
 555 632 593 632 641 641 c 0
 714 654 803 709 803 798 c 0
 803 862 745 920 616 920 c 0
 524 920 409 887 303 858 c 1
 327 984 l 1
 431 1012 542 1040 639 1040 c 0
 824 1040 933 945 933 821 c 0
 933 703 855 615 746 573 c 1
 744 563 l 1xe8
EndSplineSet
Validated: 1
Layer: 2
EndChar
StartChar: uni02BB
Encoding: 699 699 520
GlifName: uni02B_B_
Width: 1024
VWidth: 0
Flags: W
HStem: 1024 21G<571 702.863> 1432 120<811.78 906>
VStem: 571 359
LayerCount: 3
Back
Fore
SplineSet
616 1257 m 2
 628 1317 641 1387 707 1457 c 0
 760 1514 840 1552 930 1552 c 1
 906 1432 l 1
 859 1432 824 1415 798 1387 c 0
 763 1350 754 1307 744 1257 c 2
 699 1024 l 1
 571 1024 l 1
 616 1257 l 2
EndSplineSet
Validated: 1
Layer: 2
EndChar
StartChar: uni02BC
Encoding: 700 700 519
GlifName: uni02B_C_
Width: 1024
VWidth: 0
Flags: W
HStem: 1008 120<463 557.767>
VStem: 440 359
LayerCount: 3
Back
Fore
SplineSet
753 1303 m 2
 741 1243 728 1173 662 1103 c 0
 609 1046 530 1008 440 1008 c 1
 463 1128 l 1
 510 1128 546 1145 572 1173 c 0
 607 1210 615 1253 625 1303 c 2
 671 1536 l 1
 799 1536 l 1
 753 1303 l 2
EndSplineSet
Validated: 1
Layer: 2
EndChar
StartChar: gravecomb
Encoding: 768 768 293
GlifName: gravecomb
Width: 1024
VWidth: 0
Flags: W
HStem: 1280 256<635 657>
VStem: 519 254
AnchorPoint: "top" 665 1152 mark 0
LayerCount: 3
Back
Fore
SplineSet
773 1280 m 1
 635 1280 l 1
 519 1536 l 1
 657 1536 l 1
 773 1280 l 1
EndSplineSet
Validated: 1
Layer: 2
EndChar
StartChar: uni0302
Encoding: 770 770 295
GlifName: uni0302
Width: 1024
VWidth: 0
Flags: W
HStem: 1280 256
AnchorPoint: "top" 665 1152 mark 0
LayerCount: 3
Back
Fore
SplineSet
656 1536 m 1
 814 1536 l 1
 1061 1280 l 1
 903 1280 l 1
 717 1444 l 1
 467 1280 l 1
 309 1280 l 1
 656 1536 l 1
EndSplineSet
Validated: 1
Layer: 2
EndChar
StartChar: tildecomb
Encoding: 771 771 296
GlifName: tildecomb
Width: 1024
VWidth: 0
Flags: W
HStem: 1284 120<776.279 892.541> 1412 120<527.242 643.335>
VStem: 367 127<1305 1379.7> 926 127<1436.7 1511>
AnchorPoint: "top" 665 1152 mark 0
LayerCount: 3
Back
Fore
SplineSet
582 1412 m 0
 531 1412 507 1353 494 1299 c 1
 367 1305 l 1
 394 1423 477 1532 606 1532 c 0
 752 1532 760 1404 837 1404 c 0
 888 1404 913 1463 926 1517 c 1
 1053 1511 l 1
 1027 1395 943 1284 814 1284 c 0
 668 1284 659 1412 582 1412 c 0
EndSplineSet
Validated: 1
Layer: 2
EndChar
StartChar: uni0306
Encoding: 774 774 298
GlifName: uni0306
Width: 1024
VWidth: 0
Flags: W
HStem: 1264 120<569.756 851.461>
VStem: 390 130<1430.36 1536> 947 128<1469.03 1536>
AnchorPoint: "top" 665 1152 mark 0
LayerCount: 3
Back
Fore
SplineSet
947 1536 m 1
 1075 1536 l 1
 1042 1368 870 1264 682 1264 c 0
 513 1264 390 1347 390 1486 c 0
 390 1502 392 1519 395 1536 c 1
 523 1536 l 1
 521 1526 520 1517 520 1508 c 0
 520 1436 578 1384 705 1384 c 0
 848 1384 930 1450 947 1536 c 1
EndSplineSet
Validated: 1
Layer: 2
EndChar
StartChar: uni0307
Encoding: 775 775 299
GlifName: uni0307
Width: 1024
VWidth: 0
Flags: W
HStem: 1328 224<649.179 782.609>
VStem: 601 229<1375.22 1504.44>
AnchorPoint: "top" 665 1152 mark 0
LayerCount: 3
Back
Fore
SplineSet
601 1415 m 0
 601 1497 667 1552 738 1552 c 0
 795 1552 830 1517 830 1465 c 0
 830 1383 765 1328 694 1328 c 0
 637 1328 601 1363 601 1415 c 0
EndSplineSet
Validated: 1
Layer: 2
EndChar
StartChar: uni0308
Encoding: 776 776 300
GlifName: uni0308
Width: 1024
VWidth: 0
Flags: W
HStem: 1328 224<425.179 558.609 873.179 1006.61>
VStem: 377 229<1375.22 1504.44> 825 229<1375.22 1504.44>
AnchorPoint: "top" 665 1152 mark 0
LayerCount: 3
Back
Fore
SplineSet
825 1415 m 0
 825 1497 891 1552 962 1552 c 0
 1019 1552 1054 1517 1054 1465 c 0
 1054 1383 989 1328 918 1328 c 0
 861 1328 825 1363 825 1415 c 0
377 1415 m 0
 377 1497 443 1552 514 1552 c 0
 571 1552 606 1517 606 1465 c 0
 606 1383 541 1328 470 1328 c 0
 413 1328 377 1363 377 1415 c 0
EndSplineSet
Validated: 1
Layer: 2
EndChar
StartChar: uni030A
Encoding: 778 778 301
GlifName: uni030A_
Width: 1024
VWidth: 0
Flags: W
HStem: 1068 100<577.603 761.85> 1424 100<614.034 797.98>
VStem: 455 109<1182.97 1376> 811 109<1215.78 1409.03>
AnchorPoint: "top" 663 1168 mark 0
LayerCount: 3
Back
Fore
SplineSet
732 1524 m 0
 850 1524 920 1448 920 1344 c 0
 920 1185 789 1068 644 1068 c 0
 526 1068 455 1144 455 1248 c 0
 455 1406 588 1524 732 1524 c 0
663 1168 m 0
 740 1168 811 1228 811 1330 c 0
 811 1391 773 1424 713 1424 c 0
 636 1424 564 1364 564 1262 c 0
 564 1201 603 1168 663 1168 c 0
EndSplineSet
Validated: 1
Layer: 2
EndChar
StartChar: uni030C
Encoding: 780 780 303
GlifName: uni030C_
Width: 1024
VWidth: 0
Flags: W
HStem: 1280 256
AnchorPoint: "top" 665 1152 mark 0
LayerCount: 3
Back
Fore
SplineSet
606 1280 m 1
 359 1536 l 1
 517 1536 l 1
 703 1372 l 1
 953 1536 l 1
 1111 1536 l 1
 764 1280 l 1
 606 1280 l 1
EndSplineSet
Validated: 1
Layer: 2
EndChar
StartChar: uni030F
Encoding: 783 783 435
GlifName: uni030F_
Width: 1024
VWidth: 0
Flags: W
HStem: 1280 256<443 465 827 849>
AnchorPoint: "top" 660 1152 mark 0
LayerCount: 3
Back
Fore
SplineSet
581 1280 m 1
 443 1280 l 1
 327 1536 l 1
 465 1536 l 1
 581 1280 l 1
965 1280 m 1
 827 1280 l 1
 711 1536 l 1
 849 1536 l 1
 965 1280 l 1
EndSplineSet
Validated: 1
Layer: 2
EndChar
StartChar: uni0311
Encoding: 785 785 655
Width: 1024
VWidth: 0
Flags: W
HStem: 1432 120<568.23 849.982>
VStem: 345 128<1280 1346.97> 900 130<1280 1385.64>
AnchorPoint: "top" 660 1152 mark 0
LayerCount: 3
Back
Fore
SplineSet
897 1280 m 1
 899 1290 900 1299 900 1308 c 0
 900 1380 841 1432 714 1432 c 0
 571 1432 490 1366 473 1280 c 1
 345 1280 l 1
 378 1448 550 1552 738 1552 c 0
 907 1552 1030 1469 1030 1330 c 0
 1030 1314 1028 1297 1025 1280 c 1
 897 1280 l 1
EndSplineSet
Validated: 1
Layer: 2
EndChar
StartChar: uni0312
Encoding: 786 786 304
GlifName: uni0312
Width: 1024
VWidth: 0
Flags: W
HStem: 1560 120<708.78 803>
VStem: 493 334
AnchorPoint: "top" 665 1152 mark 0
LayerCount: 3
Back
Fore
SplineSet
513 1385 m 2
 525 1445 538 1515 604 1585 c 0
 657 1642 737 1680 827 1680 c 1
 803 1560 l 1
 756 1560 720 1543 694 1515 c 0
 659 1478 651 1435 641 1385 c 2
 621 1280 l 1
 493 1280 l 1
 513 1385 l 2
EndSplineSet
Validated: 1
Layer: 2
EndChar
StartChar: uni0326
Encoding: 806 806 306
GlifName: uni0326
Width: 1024
VWidth: 0
Flags: W
HStem: -400 120<190 293.806>
VStem: 347 128<-223.671 -128>
LayerCount: 3
Back
Fore
SplineSet
387 -315 m 0
 336 -367 256 -400 166 -400 c 1
 190 -280 l 1
 237 -280 273 -268 296 -245 c 0
 331 -211 338 -173 347 -128 c 1
 390 -128 432 -128 475 -128 c 1
 464 -184 452 -249 387 -315 c 0
EndSplineSet
Validated: 1
Layer: 2
EndChar
StartChar: uni0327
Encoding: 807 807 307
GlifName: uni0327
Width: 1024
VWidth: 0
Flags: W
HStem: -400 120<61.9374 284.681> -20 20G<368.19 500>
VStem: 42 458
LayerCount: 3
Back
Fore
SplineSet
480 -105 m 2
 468 -165 455 -235 389 -305 c 0
 336 -362 256 -400 166 -400 c 0
 131 -400 87 -393 42 -383 c 1
 65 -260 l 1
 111 -271 156 -280 190 -280 c 0
 237 -280 272 -263 298 -235 c 0
 333 -198 342 -155 352 -105 c 2
 372 0 l 1
 500 0 l 1
 480 -105 l 2
EndSplineSet
Validated: 1
Layer: 2
EndChar
StartChar: uni0328
Encoding: 808 808 308
GlifName: uni0328
Width: 1024
VWidth: 0
Flags: W
HStem: -350 120<335.327 433> -20 20G<331.5 500>
VStem: 201 126<-222.015 -98.2031>
AnchorPoint: "bottom" 436 0 mark 0
LayerCount: 3
Back
Fore
SplineSet
391 -230 m 0
 414 -230 436 -229 456 -225 c 1
 433 -345 l 1
 407 -349 378 -350 348 -350 c 0
 282 -350 201 -287 201 -185 c 0
 201 -97 291 -39 372 0 c 1
 500 0 l 1
 381 -48 327 -90 327 -158 c 0
 327 -211 362 -230 391 -230 c 0
EndSplineSet
Validated: 1
Layer: 2
EndChar
StartChar: tonos
Encoding: 900 900 553
GlifName: tonos
Width: 1024
VWidth: 0
Flags: W
HStem: 1131 307
VStem: 596 313
AnchorPoint: "top" 635 1024 mark 0
LayerCount: 3
Back
Fore
SplineSet
830 1438 m 1
 909 1358 l 1
 659 1131 l 1
 596 1194 l 1
 830 1438 l 1
EndSplineSet
Validated: 1
Layer: 2
EndChar
StartChar: dieresistonos
Encoding: 901 901 554
GlifName: dieresistonos
Width: 1024
VWidth: 0
Flags: W
HStem: 1136 224<319.046 469.954 887.046 1037.95>
VStem: 280 229<1174.36 1321.64> 848 229<1174.36 1321.64>
LayerCount: 3
Back
Fore
SplineSet
848 1223 m 0
 848 1305 913 1360 984 1360 c 0
 1041 1360 1077 1325 1077 1273 c 0
 1077 1191 1012 1136 941 1136 c 0
 884 1136 848 1171 848 1223 c 0
280 1223 m 0
 280 1305 345 1360 416 1360 c 0
 473 1360 509 1325 509 1273 c 0
 509 1191 444 1136 373 1136 c 0
 316 1136 280 1171 280 1223 c 0
854 1566 m 1
 935 1486 l 1
 684 1259 l 1
 621 1322 l 1
 854 1566 l 1
EndSplineSet
Validated: 1
Layer: 2
EndChar
StartChar: Etatonos
Encoding: 905 905 558
GlifName: E_tatonos
Width: 1024
VWidth: 0
Flags: W
HStem: 0 21G<-12 119.882 756 887.892> 644 120<265 881> 1388 20G<258.108 390 1026.12 1158>
LayerCount: 3
Back
Fore
SplineSet
90 1438 m 1
 169 1358 l 1
 -81 1131 l 1
 -144 1194 l 1
 90 1438 l 1
262 1408 m 1
 390 1408 l 1
 265 764 l 1
 905 764 l 1
 1030 1408 l 1
 1158 1408 l 1
 884 0 l 1
 756 0 l 1
 881 644 l 1
 241 644 l 1
 116 0 l 1
 -12 0 l 1
 262 1408 l 1
EndSplineSet
Validated: 1
Layer: 2
EndChar
StartChar: Upsilontonos
Encoding: 910 910 561
GlifName: U_psilontonos
Width: 1024
VWidth: 0
Flags: W
HStem: 0 21G<372 503.873> 1388 20G<247 379 990 1173>
VStem: 247 125<1129.78 1408>
LayerCount: 3
Back
Fore
SplineSet
80 1438 m 1
 159 1358 l 1
 -91 1131 l 1
 -154 1194 l 1
 80 1438 l 1
247 1408 m 1
 372 1408 l 1
 386 1145 437 921 565 740 c 1
 595 740 l 1
 793 921 932 1145 1048 1408 c 1
 1173 1408 l 1
 1059 1134 897 871 622 630 c 1
 500 0 l 1
 372 0 l 1
 494 630 l 1
 313 871 255 1134 247 1408 c 1
EndSplineSet
Validated: 1
Layer: 2
EndChar
StartChar: Omegatonos
Encoding: 911 911 562
GlifName: O_megatonos
Width: 1024
VWidth: 0
Flags: W
HStem: 0 120<11 175 743 884> 1304 120<530.113 835.015>
VStem: 91 127<254.267 776.762> 957 130<778.765 1182.76>
LayerCount: 3
Back
Fore
SplineSet
201 1438 m 1
 280 1358 l 1
 30 1131 l 1
 -33 1194 l 1
 201 1438 l 1
713 1424 m 0
 963 1424 1087 1272 1087 1045 c 0
 1087 868 1019 584 938 411 c 0
 892 312 824 216 745 130 c 1
 743 120 l 1
 907 120 l 1
 884 0 l 1
 570 0 l 1
 589 96 l 1
 688 195 769 313 823 438 c 0
 887 584 957 865 957 1026 c 0
 957 1196 875 1304 689 1304 c 0
 525 1304 410 1217 343 1089 c 0
 270 949 218 635 218 483 c 0
 218 332 253 207 321 96 c 1
 302 0 l 1
 -12 0 l 1
 11 120 l 1
 175 120 l 1
 177 130 l 1
 120 237 91 343 91 485 c 0
 91 688 156 987 227 1124 c 0
 318 1298 491 1424 713 1424 c 0
EndSplineSet
Validated: 1
Layer: 2
EndChar
StartChar: iotadieresistonos
Encoding: 912 912 555
GlifName: iotadieresistonos
Width: 1024
VWidth: 0
Flags: W
HStem: -16 120<564.625 756.266> 1004 20G<567.107 699> 1136 224<326.188 462.812 894.188 1030.81>
VStem: 280 229<1183.22 1312.78> 414 130<123.352 383.766> 848 229<1183.22 1312.78>
LayerCount: 3
Back
Fore
SplineSet
544 203 m 0xec
 544 139 578 104 648 104 c 0
 690 104 741 111 779 119 c 1
 756 -2 l 1
 717 -9 670 -16 615 -16 c 0
 491 -16 414 61 414 181 c 0
 414 217 421 251 426 279 c 2
 571 1024 l 1
 699 1024 l 1
 554 279 l 2
 549 253 544 227 544 203 c 0xec
848 1223 m 0
 848 1305 913 1360 984 1360 c 0
 1041 1360 1077 1325 1077 1273 c 0
 1077 1191 1012 1136 941 1136 c 0
 884 1136 848 1171 848 1223 c 0
280 1223 m 0xf4
 280 1305 345 1360 416 1360 c 0
 473 1360 509 1325 509 1273 c 0
 509 1191 444 1136 373 1136 c 0
 316 1136 280 1171 280 1223 c 0xf4
854 1566 m 1
 935 1486 l 1
 684 1259 l 1
 621 1322 l 1
 854 1566 l 1
EndSplineSet
Validated: 1
Layer: 2
EndChar
StartChar: Iota
Encoding: 921 921 479
GlifName: I_ota
Width: 1024
VWidth: 0
Flags: W
HStem: 0 120<139 395 523 756> 1288 120<390 622 750 1006>
AnchorPoint: "top" 704 1408 basechar 0
LayerCount: 3
Back
Fore
SplineSet
1030 1408 m 1
 1006 1288 l 1
 750 1288 l 1
 523 120 l 1
 779 120 l 1
 756 0 l 1
 116 0 l 1
 139 120 l 1
 395 120 l 1
 622 1288 l 1
 366 1288 l 1
 390 1408 l 1
 1030 1408 l 1
EndSplineSet
Validated: 1
Layer: 2
EndChar
StartChar: Lambda
Encoding: 923 923 492
GlifName: L_ambda
Width: 1024
VWidth: 0
Flags: W
HStem: 0 21G<-37 164 774 915.5> 1289 119<659.584 701.888>
VStem: -37 135<0 89.6335> 800 129<67.5114 823.68>
LayerCount: 3
Back
Fore
SplineSet
692 1289 m 1
 682 1289 l 1
 442 945 230 479 98 0 c 1
 -37 0 l 1
 112 496 316 971 645 1408 c 1
 775 1408 l 1
 887 1100 929 773 929 433 c 0
 929 291 922 146 909 0 c 1
 774 0 l 1
 792 156 800 311 800 460 c 0
 800 770 764 1057 692 1289 c 1
EndSplineSet
Validated: 1
Layer: 2
EndChar
StartChar: Nu
Encoding: 925 925 477
GlifName: N_u
Width: 1024
VWidth: 0
Flags: W
HStem: 0 21G<-12 119.886 749.005 887.892> 1388 20G<258.108 396.012 1026.11 1158>
LayerCount: 3
Back
Fore
SplineSet
116 0 m 1
 -12 0 l 1
 262 1408 l 1
 389 1408 l 1
 795 250 l 1
 805 250 l 1
 1030 1408 l 1
 1158 1408 l 1
 884 0 l 1
 756 0 l 1
 351 1158 l 1
 341 1158 l 1
 116 0 l 1
EndSplineSet
Validated: 1
Layer: 2
EndChar
StartChar: Xi
Encoding: 926 926 497
GlifName: X_i
Width: 1024
VWidth: 0
Flags: W
HStem: 0 120<11 884> 644 120<265 881> 1288 120<262 1134>
CounterMasks: 1 e0
LayerCount: 3
Back
Fore
SplineSet
262 1408 m 1
 1158 1408 l 1
 1134 1288 l 1
 238 1288 l 1
 262 1408 l 1
11 120 m 1
 907 120 l 1
 884 0 l 1
 -12 0 l 1
 11 120 l 1
265 764 m 1
 905 764 l 1
 881 644 l 1
 241 644 l 1
 265 764 l 1
EndSplineSet
Validated: 1
Layer: 2
EndChar
StartChar: Rho
Encoding: 929 929 475
GlifName: R_ho
Width: 1024
VWidth: 0
Flags: W
HStem: 0 21G<116 247.875> 640 120<392 798.866> 1288 120<494 891.912>
VStem: 977 131<940.532 1206.6>
LayerCount: 3
Back
Fore
SplineSet
585 760 m 2
 661 760 701 762 739 770 c 0
 863 797 977 917 977 1087 c 0
 977 1188 923 1258 837 1278 c 0
 803 1286 763 1288 687 1288 c 2
 494 1288 l 1
 392 760 l 1
 585 760 l 2
244 0 m 1
 116 0 l 1
 390 1408 l 1
 711 1408 l 2
 788 1408 840 1408 892 1395 c 0
 1021 1363 1108 1259 1108 1109 c 0
 1108 912 972 703 748 653 c 0
 690 640 638 640 561 640 c 2
 368 640 l 1
 244 0 l 1
EndSplineSet
Validated: 1
Layer: 2
EndChar
StartChar: Upsilon
Encoding: 933 933 481
GlifName: U_psilon
Width: 1024
VWidth: 0
Flags: W
HStem: 0 21G<372 503.896> 1388 20G<234 397 988 1186>
VStem: 234 136<1278.82 1408>
AnchorPoint: "top" 704 1408 basechar 0
LayerCount: 3
Back
Fore
SplineSet
590 741 m 1
 782 944 926 1172 1050 1408 c 1
 1186 1408 l 1
 1040 1132 870 857 620 616 c 1
 500 0 l 1
 372 0 l 1
 492 616 l 1
 378 857 300 1132 234 1408 c 1
 370 1408 l 1
 424 1172 487 943 570 741 c 1
 590 741 l 1
EndSplineSet
Validated: 1
Layer: 2
EndChar
StartChar: Psi
Encoding: 936 936 517
GlifName: P_si
Width: 1024
VWidth: 0
Flags: W
HStem: 0 21G<372 503.892> 370 120<344.936 444 595 730.236> 1388 20G<258.094 390 642.1 774 1026.09 1158>
VStem: 123 131<565.014 868> 1030 128<1352.95 1408>
LayerCount: 3
Back
Fore
SplineSet
444 370 m 1
 257 384 123 468 123 649 c 0
 123 691 130 731 137 768 c 2
 262 1408 l 1
 390 1408 l 1
 265 768 l 2
 258 732 254 699 254 669 c 0
 254 549 343 501 467 490 c 1
 646 1408 l 1
 774 1408 l 1
 595 490 l 1
 715 500 813 544 865 640 c 0
 884 676 896 720 905 768 c 2
 1030 1408 l 1
 1158 1408 l 1
 1033 768 l 2
 1023 718 1011 661 980 603 c 0
 902 459 751 383 572 370 c 1
 500 0 l 1
 372 0 l 1
 444 370 l 1
EndSplineSet
Validated: 1
Layer: 2
EndChar
StartChar: etatonos
Encoding: 942 942 538
GlifName: etatonos
Width: 1024
VWidth: 0
Flags: W
HStem: 0 21G<116 247.896> 920 120<543.941 723.793> 1004 20G<311.113 443>
VStem: 553 128<-384 -328.863> 772 130<591.938 871.341>
LayerCount: 3
Back
Fore
SplineSet
830 1438 m 1x98
 910 1358 l 1
 659 1131 l 1
 596 1194 l 1
 830 1438 l 1x98
772 776 m 0
 772 867 710 920 615 920 c 0xd8
 551 920 495 895 456 858 c 0
 401 806 389 744 372 657 c 2
 244 0 l 1
 116 0 l 1
 315 1024 l 1
 443 1024 l 1xb8
 421 912 l 1
 431 912 l 1
 495 989 582 1040 658 1040 c 0xd8
 807 1040 902 944 902 801 c 0
 902 753 893 705 884 657 c 2
 681 -384 l 1
 553 -384 l 1
 756 657 l 2
 765 703 772 742 772 776 c 0
EndSplineSet
Validated: 1
Layer: 2
EndChar
StartChar: iotatonos
Encoding: 943 943 540
GlifName: iotatonos
Width: 1024
VWidth: 0
Flags: W
HStem: -16 120<564.625 756.266> 1004 20G<567.107 699>
VStem: 414 130<123.352 383.766>
LayerCount: 3
Back
Fore
SplineSet
544 203 m 0
 544 139 578 104 648 104 c 0
 690 104 741 111 779 119 c 1
 756 -2 l 1
 717 -9 670 -16 615 -16 c 0
 491 -16 414 61 414 181 c 0
 414 217 421 251 426 279 c 2
 571 1024 l 1
 699 1024 l 1
 554 279 l 2
 549 253 544 227 544 203 c 0
830 1438 m 1
 910 1358 l 1
 659 1131 l 1
 596 1194 l 1
 830 1438 l 1
EndSplineSet
Validated: 1
Layer: 2
EndChar
StartChar: upsilondieresistonos
Encoding: 944 944 537
GlifName: upsilondieresistonos
Width: 1024
VWidth: 0
Flags: W
HStem: -16 120<349.022 576.364> 1004 20G<311.128 443 823.128 955> 1136 224<326.188 462.812 894.188 1030.81>
VStem: 167 132<151.503 433.609> 280 229<1183.22 1312.78> 848 229<1183.22 1312.78>
LayerCount: 3
Back
Fore
SplineSet
848 1223 m 0xe4
 848 1305 913 1360 984 1360 c 0
 1041 1360 1077 1325 1077 1273 c 0
 1077 1191 1012 1136 941 1136 c 0
 884 1136 848 1171 848 1223 c 0xe4
280 1223 m 0xec
 280 1305 345 1360 416 1360 c 0
 473 1360 509 1325 509 1273 c 0
 509 1191 444 1136 373 1136 c 0
 316 1136 280 1171 280 1223 c 0xec
854 1566 m 1
 935 1486 l 1
 684 1259 l 1
 621 1322 l 1
 854 1566 l 1
299 250 m 0xf4
 299 162 355 104 456 104 c 0
 554 104 631 159 667 240 c 0
 679 268 687 301 694 337 c 2
 827 1024 l 1
 955 1024 l 1
 822 337 l 2
 815 299 806 258 789 214 c 0
 736 81 606 -16 433 -16 c 0
 259 -16 167 82 167 218 c 0
 167 261 175 300 182 337 c 2
 315 1024 l 1
 443 1024 l 1
 310 337 l 2
 302 296 299 276 299 250 c 0xf4
EndSplineSet
Validated: 1
Layer: 2
EndChar
StartChar: alpha
Encoding: 945 945 516
GlifName: alpha
Width: 1024
VWidth: 0
Flags: W
HStem: -16 120<344.158 535.358 801.701 881> 920 120<493.366 694.836> 1004 20G<823.16 955>
VStem: 152 133<168.484 518.923>
AnchorPoint: "bottom" 704 0 basechar 0
AnchorPoint: "top" 576 1024 basechar 0
LayerCount: 3
Back
Fore
SplineSet
791 172 m 4xb0
 791 121 839 103 904 103 c 5
 881 -16 l 5
 795 -16 744 2 708 36 c 4
 681 61 670 89 668 118 c 5
 658 118 l 5
 572 23 495 -16 397 -16 c 4
 249 -16 152 96 152 277 c 4
 152 349 167 423 184 512 c 4
 206 624 223 713 268 803 c 4
 344 953 471 1040 602 1040 c 4xd0
 685 1040 752 991 793 899 c 5
 803 899 l 5
 827 1024 l 5
 955 1024 l 5
 796 208 l 6
 794 196 791 184 791 172 c 4xb0
754 716 m 4
 754 824 713 920 599 920 c 4
 503 920 428 847 387 768 c 4
 347 692 330 604 312 512 c 4
 298 440 285 370 285 306 c 4
 285 199 327 104 440 104 c 4
 536 104 611 177 652 256 c 4
 692 332 710 420 728 512 c 4
 742 584 754 653 754 716 c 4
EndSplineSet
Validated: 1
Layer: 2
EndChar
StartChar: beta
Encoding: 946 946 549
GlifName: beta
Width: 1024
VWidth: 0
Flags: W
HStem: -16 120<270.869 593.721> 772 120<545 678.262> 1304 120<555.896 765.97>
VStem: 761 131<376.012 696.181> 804 129<1011.39 1266.72>
LayerCount: 3
Back
Fore
SplineSet
732 833 m 1xe8
 849 794 892 715 892 597 c 0xf0
 892 550 885 497 873 438 c 0
 822 178 698 -16 469 -16 c 0
 385 -16 308 -5 245 7 c 1
 169 -384 l 1
 41 -384 l 1
 326 1078 l 2
 365 1278 490 1424 699 1424 c 0
 850 1424 933 1323 933 1179 c 0
 933 1153 930 1126 925 1098 c 0
 904 991 863 893 734 843 c 1
 732 833 l 1xe8
269 128 m 1
 343 115 420 104 472 104 c 0
 652 104 711 264 745 438 c 0
 754 487 761 531 761 572 c 0xf0
 761 693 706 772 522 772 c 1
 545 892 l 1
 714 892 772 969 797 1098 c 0
 802 1122 804 1144 804 1164 c 0xe8
 804 1253 760 1304 675 1304 c 0
 533 1304 481 1218 454 1078 c 2
 269 128 l 1
EndSplineSet
Validated: 1
Layer: 2
EndChar
